<svg width="205" height="70" viewBox="0 0 205 70" fill="none" xmlns="http://www.w3.org/2000/svg">
<g clip-path="url(#clip0_405_2251)">
<path d="M8.36105 0H196.637C201.229 0 204.961 3.766 204.961 8.4V61.6C204.961 66.234 201.229 70 196.637 70H8.36105C3.76863 70 0.0364113 66.234 0.0364113 61.6V8.4C0.0364113 3.766 3.76863 0 8.36105 0Z" fill="#F2F2F2"/>
<path d="M69.1422 21.6018C68.1091 21.6018 67.3234 21.3411 66.7852 20.8195C66.2556 20.298 65.9431 19.6192 65.8476 18.7831H66.9414C67.0196 19.3874 67.2192 19.8634 67.5405 20.2111C67.8704 20.5588 68.4043 20.7326 69.1422 20.7326C69.8367 20.7326 70.3663 20.5712 70.7309 20.2483C71.0955 19.9172 71.2778 19.4619 71.2778 18.8825C71.2778 18.3361 71.1086 17.9429 70.77 17.7028C70.4401 17.4545 69.8758 17.3303 69.0771 17.3303H67.8921V16.5108H69.0771C70.2751 16.5108 70.8742 15.9685 70.8742 14.8841C70.8742 13.8742 70.2968 13.3692 69.1422 13.3692C68.5692 13.3692 68.1308 13.4934 67.827 13.7417C67.5318 13.9818 67.3278 14.3833 67.2149 14.9462H66.1992C66.3988 13.3154 67.4059 12.5 69.2203 12.5C70.0451 12.5 70.7092 12.7194 71.2127 13.1581C71.7249 13.5886 71.981 14.1639 71.981 14.8841C71.981 15.3477 71.8465 15.7616 71.5774 16.1258C71.3169 16.4818 70.9393 16.7301 70.4444 16.8709C71.0869 16.9619 71.573 17.1813 71.9029 17.529C72.2328 17.8767 72.3978 18.3278 72.3978 18.8825C72.3978 19.6689 72.0939 20.3187 71.4862 20.832C70.8872 21.3452 70.1058 21.6018 69.1422 21.6018Z" fill="#303033"/>
<path d="M75.9493 21.6018C75.2808 21.6018 74.7339 21.4445 74.3085 21.13C73.8918 20.8071 73.6834 20.327 73.6834 19.6896C73.6834 19.3336 73.7746 19.0232 73.9569 18.7583C74.1479 18.4851 74.4083 18.274 74.7382 18.125C75.0681 17.9677 75.4284 17.856 75.819 17.7897C76.2097 17.7152 76.6351 17.678 77.0952 17.678H78.0719V17.2061C78.0719 16.6846 77.959 16.3121 77.7333 16.0886C77.5076 15.8568 77.1343 15.7409 76.6134 15.7409C75.6758 15.7409 75.1549 16.13 75.0507 16.9081H73.9699C74.0393 16.2127 74.3215 15.7036 74.8163 15.3808C75.3199 15.0497 75.9362 14.8841 76.6655 14.8841C78.3237 14.8841 79.1527 15.6581 79.1527 17.2061V21.4901H78.0719V20.6705C77.551 21.2914 76.8435 21.6018 75.9493 21.6018ZM76.0534 20.7823C76.6438 20.7823 77.1256 20.6457 77.4989 20.3725C77.8809 20.0911 78.0719 19.7061 78.0719 19.2177V18.4106H77.1343C75.5543 18.4106 74.7642 18.8369 74.7642 19.6896C74.7642 20.418 75.194 20.7823 76.0534 20.7823Z" fill="#303033"/>
<path d="M82.2786 15.8651V21.4901H81.1977V14.9959H85.5211V15.8651H82.2786Z" fill="#303033"/>
<path d="M87.0876 14.9959H88.1684V16.0886C88.3681 15.7575 88.6806 15.476 89.106 15.2442C89.5314 15.0041 89.9872 14.8841 90.4733 14.8841C91.3849 14.8841 92.1272 15.178 92.7001 15.7657C93.2818 16.3535 93.5726 17.1482 93.5726 18.1498V18.2492C93.5726 19.2508 93.2861 20.0621 92.7132 20.6829C92.1489 21.2955 91.4023 21.6018 90.4733 21.6018C89.4316 21.6018 88.6633 21.2086 88.1684 20.4222V23.75H87.0876V14.9959ZM90.3692 20.745C91.0463 20.745 91.5629 20.5381 91.9188 20.1242C92.2748 19.702 92.4527 19.0935 92.4527 18.2988V18.1995C92.4527 17.4131 92.253 16.8088 91.8537 16.3866C91.463 15.9561 90.9638 15.7409 90.3561 15.7409C89.6964 15.7409 89.1581 15.952 88.7414 16.3742C88.3334 16.7881 88.1293 17.3965 88.1293 18.1995V18.2988C88.1293 19.1018 88.329 19.7103 88.7284 20.1242C89.1364 20.5381 89.6833 20.745 90.3692 20.745Z" fill="#303033"/>
<path d="M97.026 20.8195L94.3564 14.9959H95.5154L97.599 19.6523L99.4872 14.9959H100.594L96.8306 23.75H95.7368L97.026 20.8195Z" fill="#303033"/>
<path d="M106.201 16.6846C106.201 17.0075 106.101 17.3055 105.901 17.5786C105.71 17.8435 105.437 18.0091 105.081 18.0753C105.523 18.1498 105.875 18.3113 106.135 18.5596C106.396 18.8079 106.526 19.1349 106.526 19.5406V19.5778C106.526 20.1821 106.292 20.6705 105.823 21.043C105.363 21.4156 104.733 21.6018 103.935 21.6018C103.11 21.6018 102.463 21.4197 101.994 21.0555C101.534 20.6829 101.287 20.1614 101.252 19.4909H102.307C102.359 19.9048 102.507 20.2194 102.75 20.4346C103.001 20.6416 103.396 20.745 103.935 20.745C104.907 20.745 105.393 20.3767 105.393 19.6399V19.6026C105.393 19.2384 105.276 18.9735 105.042 18.8079C104.816 18.6424 104.464 18.5596 103.987 18.5596H102.958V17.7401H103.804C104.256 17.7401 104.577 17.6614 104.768 17.5041C104.968 17.3469 105.068 17.0902 105.068 16.7343V16.697C105.068 16.0596 104.677 15.7409 103.896 15.7409C103.14 15.7409 102.689 16.0803 102.541 16.7591H101.5C101.578 16.1051 101.838 15.6291 102.281 15.3311C102.732 15.0331 103.292 14.8841 103.961 14.8841C104.603 14.8841 105.137 15.0414 105.562 15.356C105.988 15.6623 106.201 16.0927 106.201 16.6474V16.6846Z" fill="#303033"/>
<path d="M108.247 21.4901V14.9959H109.328V20L112.805 14.9959H113.886V21.4901H112.805V16.4859L109.328 21.4901H108.247Z" fill="#303033"/>
<path d="M120.72 15.8651H118.519V21.4901H117.438V15.8651H115.237V14.9959H120.72V15.8651Z" fill="#303033"/>
<path d="M124.821 21.6018C123.848 21.6018 123.054 21.2997 122.438 20.6954C121.83 20.0911 121.526 19.2964 121.526 18.3113V18.2119C121.526 17.2351 121.821 16.4363 122.412 15.8154C123.011 15.1945 123.779 14.8841 124.717 14.8841C125.585 14.8841 126.31 15.1531 126.891 15.6912C127.482 16.221 127.777 17.0281 127.777 18.1126V18.4478H122.646C122.698 19.9793 123.427 20.745 124.834 20.745C125.902 20.745 126.505 20.3684 126.644 19.6151H127.725C127.603 20.2608 127.286 20.7533 126.774 21.0927C126.262 21.4321 125.611 21.6018 124.821 21.6018ZM126.67 17.6159C126.574 16.3659 125.923 15.7409 124.717 15.7409C124.17 15.7409 123.718 15.9065 123.362 16.2376C123.006 16.5687 122.781 17.0281 122.685 17.6159H126.67Z" fill="#303033"/>
<path d="M132.803 14.9959H135.187C136.784 14.9959 137.583 15.5464 137.583 16.6474V16.6846C137.583 16.9992 137.491 17.2889 137.309 17.5538C137.127 17.8104 136.853 17.9843 136.489 18.0753C137.435 18.274 137.908 18.7624 137.908 19.5406V19.5778C137.908 20.207 137.691 20.6829 137.257 21.0058C136.832 21.3286 136.237 21.4901 135.473 21.4901H132.803V14.9959ZM133.884 15.8154V17.7401H135.187C135.638 17.7401 135.959 17.6614 136.15 17.5041C136.35 17.3469 136.45 17.0902 136.45 16.7343V16.697C136.45 16.3659 136.346 16.1382 136.137 16.0141C135.937 15.8816 135.616 15.8154 135.174 15.8154H133.884ZM133.884 18.5596V20.6705H135.369C135.846 20.6705 136.198 20.5919 136.424 20.4346C136.658 20.269 136.775 20.0041 136.775 19.6399V19.6026C136.775 19.2384 136.658 18.9735 136.424 18.8079C136.198 18.6424 135.846 18.5596 135.369 18.5596H133.884Z" fill="#303033"/>
<path d="M44.8926 33.404C44.8509 28.392 48.9578 25.956 49.1381 25.844C46.8072 22.428 43.1999 21.952 41.9373 21.91C38.9127 21.588 35.9713 23.744 34.4313 23.744C32.8635 23.744 30.4771 21.952 27.9242 21.994C24.6359 22.05 21.542 23.968 19.8632 26.964C16.3807 33.054 18.9752 42.014 22.3189 46.942C23.9977 49.35 25.9401 52.052 28.5069 51.954C31.0043 51.856 31.9478 50.344 34.9585 50.344C37.9554 50.344 38.8295 51.954 41.4378 51.898C44.1295 51.856 45.8083 49.476 47.4316 47.04C49.3601 44.282 50.1371 41.552 50.1648 41.412C50.0955 41.384 44.9481 39.396 44.8926 33.404Z" fill="black"/>
<path d="M39.9672 18.6761C41.313 16.9821 42.2287 14.6721 41.9789 12.3201C40.0365 12.4041 37.5946 13.6781 36.1933 15.3441C34.9585 16.8141 33.8485 19.2081 34.126 21.4621C36.3182 21.6301 38.5658 20.3421 39.9672 18.6761Z" fill="black"/>
<path d="M81.1325 51.604H77.6362L75.7215 45.528H69.0618L67.2442 51.604H63.845L70.4353 30.926H74.5144L81.1325 51.604ZM75.1526 42.98L73.4183 37.59C73.238 37.03 72.8911 35.742 72.3916 33.698H72.3223C72.1141 34.58 71.795 35.882 71.3511 37.59L69.6445 42.98H75.1526Z" fill="black"/>
<path d="M98.0731 43.974C98.0731 46.508 97.3933 48.51 96.0197 49.98C94.7988 51.296 93.2726 51.94 91.4689 51.94C89.5126 51.94 88.1113 51.24 87.2511 49.826V57.652H83.9629V41.594C83.9629 39.998 83.9213 38.374 83.838 36.694H86.7239L86.9043 39.06H86.9598C88.0558 37.282 89.7208 36.386 91.9407 36.386C93.6888 36.386 95.1318 37.086 96.2972 38.472C97.4904 39.872 98.0731 41.692 98.0731 43.974ZM94.7294 44.086C94.7294 42.63 94.4103 41.44 93.7582 40.502C93.0506 39.522 92.0933 39.032 90.9001 39.032C90.0954 39.032 89.36 39.312 88.6941 39.844C88.042 40.39 87.598 41.09 87.4037 41.972C87.3066 42.378 87.2511 42.714 87.2511 42.98V45.472C87.2511 46.55 87.5841 47.474 88.2362 48.216C88.8883 48.958 89.7485 49.336 90.803 49.336C92.0378 49.336 92.9951 48.846 93.6888 47.894C94.3826 46.928 94.7294 45.668 94.7294 44.086Z" fill="black"/>
<path d="M115.056 43.974C115.056 46.508 114.376 48.51 113.002 49.98C111.781 51.296 110.255 51.94 108.452 51.94C106.495 51.94 105.094 51.24 104.234 49.826V57.652H100.945V41.594C100.945 39.998 100.904 38.374 100.821 36.694H103.706L103.887 39.06H103.942C105.038 37.282 106.703 36.386 108.923 36.386C110.671 36.386 112.114 37.086 113.28 38.472C114.473 39.872 115.056 41.692 115.056 43.974ZM111.712 44.086C111.712 42.63 111.393 41.44 110.741 40.502C110.033 39.522 109.076 39.032 107.883 39.032C107.078 39.032 106.343 39.312 105.677 39.844C105.025 40.39 104.594 41.09 104.386 41.972C104.289 42.378 104.234 42.714 104.234 42.98V45.472C104.234 46.55 104.567 47.474 105.219 48.216C105.871 48.958 106.731 49.336 107.786 49.336C109.02 49.336 109.992 48.846 110.671 47.894C111.379 46.928 111.712 45.668 111.712 44.086Z" fill="black"/>
<path d="M134.063 45.8081C134.063 47.5721 133.453 49.0001 132.246 50.1061C130.914 51.3101 129.055 51.9121 126.668 51.9121C124.462 51.9121 122.7 51.4781 121.368 50.6241L122.131 47.8661C123.574 48.7201 125.156 49.1541 126.876 49.1541C128.111 49.1541 129.082 48.8741 129.762 48.3141C130.456 47.7541 130.803 46.9981 130.803 46.0601C130.803 45.2201 130.512 44.5201 129.957 43.9461C129.388 43.3721 128.444 42.8401 127.126 42.3501C123.505 40.9921 121.715 39.0181 121.715 36.4281C121.715 34.7341 122.353 33.3481 123.616 32.2561C124.878 31.1781 126.557 30.6321 128.652 30.6321C130.512 30.6321 132.065 30.9541 133.3 31.6121L132.468 34.3001C131.302 33.6701 129.998 33.3481 128.527 33.3481C127.376 33.3481 126.46 33.6421 125.808 34.2021C125.267 34.7201 124.989 35.3361 124.989 36.0781C124.989 36.8901 125.309 37.5761 125.933 38.0941C126.474 38.5841 127.473 39.1161 128.916 39.6901C130.678 40.4041 131.968 41.2441 132.801 42.2101C133.647 43.1761 134.063 44.3801 134.063 45.8081Z" fill="black"/>
<path d="M144.941 39.1861H141.32V46.4241C141.32 48.2581 141.958 49.1821 143.234 49.1821C143.817 49.1821 144.303 49.1261 144.691 49.0281L144.788 51.5481C144.136 51.7861 143.29 51.9121 142.235 51.9121C140.931 51.9121 139.932 51.5061 139.197 50.7081C138.462 49.9101 138.101 48.5661 138.101 46.6901V39.1721H135.95V36.6941H138.101V33.9641L141.32 32.9841V36.6941H144.941V39.1861Z" fill="black"/>
<path d="M161.229 44.0301C161.229 46.3261 160.577 48.2021 159.287 49.6721C157.927 51.1841 156.123 51.9401 153.876 51.9401C151.711 51.9401 149.977 51.2121 148.687 49.7701C147.396 48.3281 146.758 46.4941 146.758 44.2821C146.758 41.9721 147.424 40.0821 148.742 38.6121C150.074 37.1421 151.864 36.4001 154.112 36.4001C156.276 36.4001 158.024 37.1281 159.342 38.5841C160.605 39.9841 161.229 41.8041 161.229 44.0301ZM157.83 44.1001C157.83 42.7281 157.538 41.5661 156.956 40.5861C156.262 39.3961 155.277 38.8081 154.001 38.8081C152.682 38.8081 151.67 39.3961 150.99 40.5861C150.393 41.5661 150.116 42.7561 150.116 44.1701C150.116 45.5421 150.407 46.7181 150.99 47.6841C151.697 48.8741 152.696 49.4621 153.973 49.4621C155.221 49.4621 156.207 48.8601 156.928 47.6561C157.525 46.6481 157.83 45.4721 157.83 44.1001Z" fill="black"/>
<path d="M171.913 39.606C171.594 39.55 171.247 39.522 170.872 39.522C169.721 39.522 168.819 39.956 168.194 40.838C167.653 41.608 167.376 42.602 167.376 43.778V51.604H164.088V41.384C164.088 39.662 164.06 38.094 163.99 36.694H166.849L166.973 39.55H167.071C167.417 38.57 167.958 37.772 168.708 37.184C169.443 36.652 170.234 36.386 171.08 36.386C171.385 36.386 171.663 36.414 171.899 36.442L171.913 39.606Z" fill="black"/>
<path d="M186.591 43.442C186.591 44.03 186.55 44.534 186.467 44.94H176.616C176.657 46.41 177.129 47.544 178.045 48.314C178.877 49 179.946 49.35 181.264 49.35C182.721 49.35 184.052 49.112 185.246 48.65L185.759 50.946C184.358 51.562 182.707 51.87 180.806 51.87C178.517 51.87 176.713 51.184 175.409 49.826C174.105 48.468 173.452 46.634 173.452 44.352C173.452 42.112 174.063 40.236 175.284 38.738C176.56 37.142 178.281 36.344 180.445 36.344C182.568 36.344 184.191 37.142 185.273 38.738C186.147 40.026 186.591 41.58 186.591 43.442ZM183.456 42.588C183.484 41.608 183.262 40.754 182.818 40.04C182.249 39.116 181.375 38.654 180.209 38.654C179.141 38.654 178.267 39.102 177.601 39.998C177.06 40.712 176.727 41.58 176.63 42.574L183.456 42.588Z" fill="black"/>
</g>
<defs>
<clipPath id="clip0_405_2251">
<rect width="205" height="70" fill="white" transform="translate(-0.000915527)"/>
</clipPath>
</defs>
</svg>
