<svg width="165" height="56" viewBox="0 0 165 56" fill="none" xmlns="http://www.w3.org/2000/svg">
<g clip-path="url(#clip0_735_138)">
<path d="M6.73035 0H158.269C161.966 0 164.97 3.0128 164.97 6.72V49.28C164.97 52.9872 161.966 56 158.269 56H6.73035C3.03401 56 0.0300293 52.9872 0.0300293 49.28V6.72C0.0300293 3.0128 3.03401 0 6.73035 0Z" fill="#E9E8E8"/>
<path d="M55.6518 17.2815C54.8203 17.2815 54.1879 17.0728 53.7547 16.6556C53.3284 16.2384 53.0769 15.6954 53 15.0265H53.8804C53.9433 15.5099 54.104 15.8907 54.3626 16.1689C54.6281 16.447 55.0578 16.5861 55.6518 16.5861C56.2108 16.5861 56.637 16.457 56.9305 16.1987C57.224 15.9338 57.3707 15.5695 57.3707 15.106C57.3707 14.6689 57.2345 14.3543 56.9619 14.1623C56.6964 13.9636 56.2422 13.8642 55.5994 13.8642H54.6456V13.2086H55.5994C56.5636 13.2086 57.0458 12.7748 57.0458 11.9073C57.0458 11.0993 56.5811 10.6954 55.6518 10.6954C55.1906 10.6954 54.8377 10.7947 54.5932 10.9934C54.3556 11.1854 54.1914 11.5066 54.1005 11.957H53.283C53.4437 10.6523 54.2543 10 55.7147 10C56.3785 10 56.913 10.1755 57.3183 10.5265C57.7306 10.8709 57.9367 11.3311 57.9367 11.9073C57.9367 12.2781 57.8284 12.6093 57.6118 12.9007C57.4022 13.1854 57.0982 13.3841 56.6999 13.4967C57.217 13.5695 57.6083 13.745 57.8738 14.0232C58.1393 14.3013 58.2721 14.6623 58.2721 15.106C58.2721 15.7351 58.0275 16.255 57.5384 16.6656C57.0563 17.0762 56.4274 17.2815 55.6518 17.2815Z" fill="#303033"/>
<path d="M61.1306 17.2815C60.5926 17.2815 60.1524 17.1556 59.81 16.904C59.4746 16.6457 59.3069 16.2616 59.3069 15.7517C59.3069 15.4669 59.3803 15.2185 59.527 15.0066C59.6807 14.7881 59.8903 14.6192 60.1559 14.5C60.4214 14.3742 60.7114 14.2848 61.0258 14.2318C61.3403 14.1722 61.6827 14.1424 62.053 14.1424H62.8391V13.7649C62.8391 13.3477 62.7483 13.0497 62.5666 12.8709C62.3849 12.6854 62.0844 12.5927 61.6652 12.5927C60.9105 12.5927 60.4913 12.904 60.4074 13.5265H59.5375C59.5934 12.9702 59.8205 12.5629 60.2188 12.3046C60.624 12.0397 61.1202 11.9073 61.7071 11.9073C63.0417 11.9073 63.709 12.5265 63.709 13.7649V17.1921H62.8391V16.5364C62.4198 17.0331 61.8504 17.2815 61.1306 17.2815ZM61.2145 16.6258C61.6896 16.6258 62.0774 16.5166 62.3779 16.298C62.6854 16.0728 62.8391 15.7649 62.8391 15.3742V14.7285H62.0844C60.8127 14.7285 60.1768 15.0695 60.1768 15.7517C60.1768 16.3344 60.5227 16.6258 61.2145 16.6258Z" fill="#303033"/>
<path d="M66.225 12.6921V17.1921H65.355V11.9967H68.8348V12.6921H66.225Z" fill="#303033"/>
<path d="M70.0956 11.9967H70.9655V12.8709C71.1263 12.606 71.3778 12.3808 71.7202 12.1954C72.0626 12.0033 72.4294 11.9073 72.8207 11.9073C73.5544 11.9073 74.1519 12.1424 74.613 12.6126C75.0812 13.0828 75.3153 13.7185 75.3153 14.5199V14.5993C75.3153 15.4007 75.0847 16.0497 74.6235 16.5464C74.1693 17.0364 73.5684 17.2815 72.8207 17.2815C71.9822 17.2815 71.3638 16.9669 70.9655 16.3377V19H70.0956V11.9967ZM72.7369 16.596C73.2819 16.596 73.6977 16.4305 73.9842 16.0993C74.2707 15.7616 74.4139 15.2748 74.4139 14.6391V14.5596C74.4139 13.9305 74.2532 13.447 73.9318 13.1093C73.6173 12.7649 73.2155 12.5927 72.7264 12.5927C72.1954 12.5927 71.7621 12.7616 71.4267 13.0993C71.0983 13.4305 70.9341 13.9172 70.9341 14.5596V14.6391C70.9341 15.2815 71.0948 15.7682 71.4162 16.0993C71.7447 16.4305 72.1849 16.596 72.7369 16.596Z" fill="#303033"/>
<path d="M78.0948 16.6556L75.9461 11.9967H76.879L78.556 15.7219L80.0758 11.9967H80.9667L77.9376 19H77.0572L78.0948 16.6556Z" fill="#303033"/>
<path d="M85.4792 13.3477C85.4792 13.606 85.3989 13.8444 85.2382 14.0629C85.0844 14.2748 84.8643 14.4073 84.5778 14.4603C84.9342 14.5199 85.2172 14.649 85.4268 14.8477C85.6364 15.0464 85.7413 15.3079 85.7413 15.6325V15.6623C85.7413 16.1457 85.5526 16.5364 85.1753 16.8344C84.8049 17.1325 84.2983 17.2815 83.6555 17.2815C82.9917 17.2815 82.4711 17.1358 82.0938 16.8444C81.7234 16.5464 81.5243 16.1291 81.4963 15.5927H82.3453C82.3872 15.9238 82.506 16.1755 82.7017 16.3477C82.9043 16.5132 83.2222 16.596 83.6555 16.596C84.4381 16.596 84.8294 16.3013 84.8294 15.7119V15.6821C84.8294 15.3907 84.7351 15.1788 84.5464 15.0464C84.3647 14.9139 84.0817 14.8477 83.6974 14.8477H82.8694V14.1921H83.5507C83.914 14.1921 84.1726 14.1291 84.3263 14.0033C84.487 13.8775 84.5674 13.6722 84.5674 13.3874V13.3576C84.5674 12.8477 84.2529 12.5927 83.624 12.5927C83.0161 12.5927 82.6528 12.8642 82.534 13.4073H81.6955C81.7584 12.8841 81.968 12.5033 82.3243 12.2649C82.6877 12.0265 83.1384 11.9073 83.6764 11.9073C84.1935 11.9073 84.6233 12.0331 84.9656 12.2848C85.308 12.5298 85.4792 12.8742 85.4792 13.3179V13.3477Z" fill="#303033"/>
<path d="M87.1263 17.1921V11.9967H87.9962V16L90.7947 11.9967H91.6647V17.1921H90.7947V13.1887L87.9962 17.1921H87.1263Z" fill="#303033"/>
<path d="M97.1655 12.6921H95.3941V17.1921H94.5242V12.6921H92.7528V11.9967H97.1655V12.6921Z" fill="#303033"/>
<path d="M100.466 17.2815C99.6836 17.2815 99.0442 17.0397 98.5481 16.5563C98.059 16.0728 97.8144 15.4371 97.8144 14.649V14.5695C97.8144 13.7881 98.052 13.149 98.5272 12.6523C99.0093 12.1556 99.6277 11.9073 100.382 11.9073C101.081 11.9073 101.665 12.1225 102.133 12.553C102.608 12.9768 102.845 13.6225 102.845 14.4901V14.7583H98.7158C98.7577 15.9834 99.3447 16.596 100.477 16.596C101.336 16.596 101.822 16.2947 101.934 15.6921H102.804C102.706 16.2086 102.451 16.6026 102.038 16.8742C101.626 17.1457 101.102 17.2815 100.466 17.2815ZM101.955 14.0927C101.878 13.0927 101.354 12.5927 100.382 12.5927C99.9421 12.5927 99.5788 12.7252 99.2923 12.9901C99.0058 13.255 98.8241 13.6225 98.7473 14.0927H101.955Z" fill="#303033"/>
<path d="M106.891 11.9967H108.809C110.095 11.9967 110.738 12.4371 110.738 13.3179V13.3477C110.738 13.5993 110.665 13.8311 110.518 14.043C110.371 14.2483 110.151 14.3874 109.858 14.4603C110.619 14.6192 111 15.0099 111 15.6325V15.6623C111 16.1656 110.825 16.5464 110.476 16.8046C110.134 17.0629 109.655 17.1921 109.04 17.1921H106.891V11.9967ZM107.761 12.6523V14.1921H108.809C109.173 14.1921 109.431 14.1291 109.585 14.0033C109.746 13.8775 109.826 13.6722 109.826 13.3874V13.3576C109.826 13.0927 109.742 12.9106 109.575 12.8113C109.414 12.7053 109.155 12.6523 108.799 12.6523H107.761ZM107.761 14.8477V16.5364H108.956C109.34 16.5364 109.623 16.4735 109.805 16.3477C109.994 16.2152 110.088 16.0033 110.088 15.7119V15.6821C110.088 15.3907 109.994 15.1788 109.805 15.0464C109.623 14.9139 109.34 14.8477 108.956 14.8477H107.761Z" fill="#303033"/>
<path d="M36.1338 26.7234C36.1003 22.7138 39.4057 20.765 39.5509 20.6754C37.6748 17.9426 34.7714 17.5618 33.7551 17.5282C31.3207 17.2706 28.9532 18.9954 27.7137 18.9954C26.4518 18.9954 24.531 17.5618 22.4763 17.5954C19.8296 17.6402 17.3394 19.1746 15.9881 21.5714C13.1852 26.4434 15.2734 33.6114 17.9647 37.5538C19.316 39.4802 20.8794 41.6418 22.9453 41.5634C24.9554 41.485 25.7148 40.2754 28.138 40.2754C30.5502 40.2754 31.2537 41.5634 33.3531 41.5186C35.5196 41.485 36.8708 39.581 38.1774 37.6322C39.7296 35.4258 40.355 33.2418 40.3773 33.1298C40.3215 33.1074 36.1784 31.517 36.1338 26.7234Z" fill="black"/>
<path d="M32.1694 14.9408C33.2526 13.5856 33.9896 11.7376 33.7886 9.85596C32.2252 9.92316 30.2598 10.9424 29.1319 12.2752C28.138 13.4512 27.2447 15.3664 27.468 17.1696C29.2324 17.304 31.0415 16.2736 32.1694 14.9408Z" fill="black"/>
<path d="M65.3025 41.2831H62.4884L60.9473 36.4223H55.5871L54.1241 41.2831H51.3882L56.6926 24.7407H59.9758L65.3025 41.2831ZM60.4895 34.3839L59.0936 30.0719C58.9484 29.6239 58.6692 28.5935 58.2672 26.9583H58.2113C58.0438 27.6639 57.787 28.7055 57.4296 30.0719L56.0561 34.3839H60.4895Z" fill="black"/>
<path d="M78.9377 35.1788C78.9377 37.206 78.3905 38.8076 77.2849 39.9836C76.3022 41.0364 75.0738 41.5516 73.6221 41.5516C72.0475 41.5516 70.9196 40.9916 70.2272 39.8604V46.1212H67.5806V33.2748C67.5806 31.998 67.5471 30.6988 67.4801 29.3548H69.8029L69.9481 31.2476H69.9927C70.8749 29.8252 72.215 29.1084 74.0017 29.1084C75.4088 29.1084 76.5702 29.6684 77.5082 30.7772C78.4686 31.8972 78.9377 33.3532 78.9377 35.1788ZM76.2464 35.2684C76.2464 34.1036 75.9895 33.1516 75.4647 32.4012C74.8951 31.6172 74.1246 31.2252 73.1642 31.2252C72.5165 31.2252 71.9246 31.4492 71.3886 31.8748C70.8638 32.3116 70.5064 32.8716 70.3501 33.5772C70.2719 33.902 70.2272 34.1708 70.2272 34.3836V36.3772C70.2272 37.2396 70.4952 37.9788 71.0201 38.5724C71.545 39.166 72.2373 39.4684 73.086 39.4684C74.0799 39.4684 74.8505 39.0764 75.4088 38.3148C75.9672 37.542 76.2464 36.534 76.2464 35.2684Z" fill="black"/>
<path d="M92.6064 35.1788C92.6064 37.206 92.0592 38.8076 90.9536 39.9836C89.9709 41.0364 88.7425 41.5516 87.2908 41.5516C85.7162 41.5516 84.5883 40.9916 83.8959 39.8604V46.1212H81.2493V33.2748C81.2493 31.998 81.2158 30.6988 81.1488 29.3548H83.4716L83.6168 31.2476H83.6614C84.5436 29.8252 85.8837 29.1084 87.6704 29.1084C89.0775 29.1084 90.2389 29.6684 91.177 30.7772C92.1373 31.8972 92.6064 33.3532 92.6064 35.1788ZM89.9151 35.2684C89.9151 34.1036 89.6582 33.1516 89.1334 32.4012C88.5638 31.6172 87.7933 31.2252 86.8329 31.2252C86.1852 31.2252 85.5933 31.4492 85.0573 31.8748C84.5325 32.3116 84.1863 32.8716 84.0188 33.5772C83.9406 33.902 83.8959 34.1708 83.8959 34.3836V36.3772C83.8959 37.2396 84.1639 37.9788 84.6888 38.5724C85.2137 39.166 85.906 39.4684 86.7547 39.4684C87.7486 39.4684 88.5303 39.0764 89.0775 38.3148C89.647 37.542 89.9151 36.534 89.9151 35.2684Z" fill="black"/>
<path d="M107.905 36.6462C107.905 38.0574 107.414 39.1998 106.442 40.0846C105.37 41.0478 103.874 41.5294 101.953 41.5294C100.178 41.5294 98.7594 41.1822 97.6874 40.499L98.3016 38.2926C99.463 38.9758 100.736 39.323 102.121 39.323C103.115 39.323 103.896 39.099 104.444 38.651C105.002 38.203 105.281 37.5982 105.281 36.8478C105.281 36.1758 105.047 35.6158 104.6 35.1566C104.142 34.6974 103.383 34.2718 102.322 33.8798C99.4071 32.7934 97.9666 31.2142 97.9666 29.1422C97.9666 27.787 98.4803 26.6782 99.4965 25.8046C100.513 24.9422 101.864 24.5054 103.55 24.5054C105.047 24.5054 106.297 24.763 107.291 25.2894L106.621 27.4398C105.683 26.9358 104.633 26.6782 103.45 26.6782C102.523 26.6782 101.786 26.9134 101.261 27.3614C100.825 27.7758 100.602 28.2686 100.602 28.8622C100.602 29.5118 100.859 30.0606 101.361 30.475C101.797 30.867 102.601 31.2926 103.762 31.7518C105.181 32.323 106.219 32.995 106.889 33.7678C107.57 34.5406 107.905 35.5038 107.905 36.6462Z" fill="black"/>
<path d="M116.66 31.3488H113.746V37.1392C113.746 38.6064 114.26 39.3456 115.287 39.3456C115.756 39.3456 116.147 39.3008 116.459 39.2224L116.538 41.2384C116.013 41.4288 115.332 41.5296 114.483 41.5296C113.433 41.5296 112.629 41.2048 112.037 40.5664C111.445 39.928 111.155 38.8528 111.155 37.352V31.3376H109.424V29.3552H111.155V27.1712L113.746 26.3872V29.3552H116.66V31.3488Z" fill="black"/>
<path d="M129.771 35.2236C129.771 37.0604 129.246 38.5612 128.207 39.7372C127.113 40.9468 125.661 41.5516 123.852 41.5516C122.11 41.5516 120.714 40.9692 119.676 39.8156C118.637 38.662 118.123 37.1948 118.123 35.4252C118.123 33.5772 118.659 32.0652 119.72 30.8892C120.792 29.7132 122.233 29.1196 124.042 29.1196C125.784 29.1196 127.191 29.702 128.252 30.8668C129.268 31.9868 129.771 33.4428 129.771 35.2236ZM127.035 35.2796C127.035 34.182 126.8 33.2524 126.331 32.4684C125.773 31.5164 124.98 31.046 123.953 31.046C122.892 31.046 122.077 31.5164 121.529 32.4684C121.049 33.2524 120.826 34.2044 120.826 35.3356C120.826 36.4332 121.06 37.374 121.529 38.1468C122.099 39.0988 122.903 39.5692 123.93 39.5692C124.935 39.5692 125.728 39.0876 126.309 38.1244C126.789 37.318 127.035 36.3772 127.035 35.2796Z" fill="black"/>
<path d="M138.37 31.6844C138.113 31.6396 137.833 31.6172 137.532 31.6172C136.605 31.6172 135.879 31.9644 135.377 32.67C134.941 33.286 134.718 34.0812 134.718 35.022V41.2828H132.071V33.1068C132.071 31.7292 132.049 30.4748 131.993 29.3548H134.293L134.394 31.6396H134.472C134.751 30.8556 135.187 30.2172 135.79 29.7468C136.382 29.3212 137.018 29.1084 137.699 29.1084C137.945 29.1084 138.169 29.1308 138.358 29.1532L138.37 31.6844Z" fill="black"/>
<path d="M150.184 34.7536C150.184 35.224 150.151 35.6272 150.084 35.952H142.155C142.189 37.128 142.568 38.0352 143.305 38.6512C143.975 39.2 144.835 39.48 145.896 39.48C147.069 39.48 148.141 39.2896 149.101 38.92L149.514 40.7568C148.386 41.2496 147.058 41.496 145.528 41.496C143.685 41.496 142.233 40.9472 141.184 39.8608C140.134 38.7744 139.609 37.3072 139.609 35.4816C139.609 33.6896 140.1 32.1888 141.083 30.9904C142.111 29.7136 143.495 29.0752 145.237 29.0752C146.946 29.0752 148.252 29.7136 149.124 30.9904C149.827 32.0208 150.184 33.264 150.184 34.7536ZM147.661 34.0704C147.683 33.2864 147.504 32.6032 147.147 32.032C146.689 31.2928 145.986 30.9232 145.047 30.9232C144.188 30.9232 143.484 31.2816 142.948 31.9984C142.513 32.5696 142.245 33.264 142.166 34.0592L147.661 34.0704Z" fill="black"/>
</g>
<defs>
<clipPath id="clip0_735_138">
<rect width="165" height="56" fill="white"/>
</clipPath>
</defs>
</svg>
