<svg width="165" height="56" viewBox="0 0 165 56" fill="none" xmlns="http://www.w3.org/2000/svg">
<g id="available-on-the-app-store-logo-svg-vector 3" clip-path="url(#clip0_735_153)">
<path id="background" d="M6.73035 0H158.269C161.966 0 164.97 3.0128 164.97 6.72V49.28C164.97 52.9872 161.966 56 158.269 56H6.73035C3.03401 56 0.0300293 52.9872 0.0300293 49.28V6.72C0.0300293 3.0128 3.03401 0 6.73035 0Z" fill="#E9E8E8"/>
<g id="&#208;&#148;&#208;&#190;&#209;&#129;&#209;&#130;&#209;&#131;&#208;&#191;&#208;&#189;&#208;&#190; &#208;&#178;">
<path d="M52.9778 15.5504C52.9317 16.2318 52.8112 16.717 52.6163 17.006H55.2931V12.3366H53.1394C53.1291 12.4892 53.1163 12.7782 53.1009 13.2034C53.0855 13.6232 53.0676 14.0375 53.0471 14.4464C53.0265 14.8498 53.0035 15.2178 52.9778 15.5504ZM51.9856 18.666H51.4318V17.006H51.7779C51.9625 16.946 52.0958 16.7961 52.1779 16.5562C52.2651 16.3163 52.3317 15.962 52.3779 15.4931C52.4394 14.6808 52.483 13.8549 52.5086 13.0153C52.5291 12.4429 52.542 12.0231 52.5471 11.756H55.9469V17.006H56.5623V18.666H56.0084L55.97 17.6029H52.024L51.9856 18.666Z" fill="#303033"/>
<path d="M60.8333 17.0877C61.4384 17.0877 61.9179 16.867 62.2717 16.4254C62.6306 15.9838 62.8101 15.4059 62.8101 14.6917V14.6263C62.8101 13.9503 62.6306 13.386 62.2717 12.9335C61.9127 12.481 61.4281 12.2548 60.8179 12.2548C60.1923 12.2548 59.7 12.4756 59.3411 12.9172C58.9821 13.3533 58.8026 13.9285 58.8026 14.6427V14.7081C58.8026 15.4059 58.9949 15.9783 59.3795 16.4254C59.7693 16.867 60.2538 17.0877 60.8333 17.0877ZM60.8333 17.6765C60.0333 17.6765 59.3795 17.393 58.8719 16.8261C58.3642 16.2536 58.1104 15.5504 58.1104 14.7162V14.6508C58.1104 13.8058 58.3616 13.0998 58.8642 12.5328C59.3718 11.9659 60.0231 11.6824 60.8179 11.6824C61.6127 11.6824 62.2589 11.9659 62.7563 12.5328C63.2537 13.0944 63.5024 13.7949 63.5024 14.6345V14.6999C63.5024 15.5395 63.2537 16.2455 62.7563 16.8179C62.2589 17.3903 61.6179 17.6765 60.8333 17.6765Z" fill="#303033"/>
<path d="M67.8371 17.6765C67.0423 17.6765 66.4141 17.4094 65.9526 16.8751C65.4962 16.3409 65.268 15.6212 65.268 14.7162V14.6508C65.268 13.784 65.5116 13.0698 65.9988 12.5083C66.4859 11.9468 67.1038 11.666 67.8525 11.666C68.4525 11.666 68.9576 11.8323 69.3678 12.1648C69.7832 12.4974 70.0216 12.969 70.0832 13.5796H69.4217C69.3447 13.1271 69.1806 12.7891 68.9294 12.5655C68.6832 12.342 68.3268 12.2303 67.8602 12.2303C67.291 12.2303 66.832 12.4511 66.4834 12.8927C66.1347 13.3288 65.9603 13.9121 65.9603 14.6427V14.7081C65.9603 15.455 66.127 16.041 66.4603 16.4662C66.7987 16.886 67.2628 17.0959 67.8525 17.0959C68.3089 17.0959 68.6807 16.976 68.9678 16.7361C69.2601 16.4908 69.4422 16.1337 69.514 15.6648H70.137C70.0447 16.3245 69.796 16.8261 69.3909 17.1695C68.9858 17.5075 68.4679 17.6765 67.8371 17.6765Z" fill="#303033"/>
<path d="M73.1346 12.3366H71.5346V11.756H75.4037V12.3366H73.8037V17.6029H73.1346V12.3366Z" fill="#303033"/>
<path d="M77.5453 17.6684C77.4376 17.6684 77.3607 17.6574 77.3146 17.6356L77.2453 17.6029V16.9569L77.3146 16.9733C77.3863 16.9842 77.4633 16.9896 77.5453 16.9896C77.7658 16.9896 77.953 16.9296 78.1068 16.8097C78.2607 16.6898 78.3991 16.4935 78.5222 16.2209L76.6915 11.756H77.3915L78.8606 15.4032L80.3529 11.756H80.9836L79.1298 16.2209C78.9401 16.6898 78.7273 17.0496 78.4914 17.3004C78.2607 17.5457 77.9453 17.6684 77.5453 17.6684Z" fill="#303033"/>
<path d="M86.1594 12.3529H83.3442V17.6029H82.675V11.756H86.8286V17.6029H86.1594V12.3529Z" fill="#303033"/>
<path d="M89.1802 11.756H89.8494V14.4055H92.7415V11.756H93.4107V17.6029H92.7415V15.0025H89.8494V17.6029H89.1802V11.756Z" fill="#303033"/>
<path d="M98.1756 17.0877C98.7807 17.0877 99.2602 16.867 99.614 16.4254C99.973 15.9838 100.152 15.4059 100.152 14.6917V14.6263C100.152 13.9503 99.973 13.386 99.614 12.9335C99.255 12.481 98.7705 12.2548 98.1602 12.2548C97.5346 12.2548 97.0424 12.4756 96.6834 12.9172C96.3244 13.3533 96.145 13.9285 96.145 14.6427V14.7081C96.145 15.4059 96.3373 15.9783 96.7219 16.4254C97.1116 16.867 97.5962 17.0877 98.1756 17.0877ZM98.1756 17.6765C97.3757 17.6765 96.7219 17.393 96.2142 16.8261C95.7065 16.2536 95.4527 15.5504 95.4527 14.7162V14.6508C95.4527 13.8058 95.704 13.0998 96.2065 12.5328C96.7142 11.9659 97.3654 11.6824 98.1602 11.6824C98.9551 11.6824 99.6012 11.9659 100.099 12.5328C100.596 13.0944 100.845 13.7949 100.845 14.6345V14.6999C100.845 15.5395 100.596 16.2455 100.099 16.8179C99.6012 17.3903 98.9602 17.6765 98.1756 17.6765Z" fill="#303033"/>
<path d="M105.838 11.756H107.492C108.671 11.756 109.261 12.2603 109.261 13.2688V13.3015C109.261 13.923 108.984 14.3346 108.43 14.5363C108.825 14.6345 109.107 14.7953 109.277 15.0188C109.446 15.2423 109.53 15.5476 109.53 15.9347V15.9674C109.53 16.5071 109.369 16.916 109.046 17.1941C108.728 17.4666 108.287 17.6029 107.723 17.6029H105.838V11.756ZM107.707 17.0469C108.487 17.0469 108.877 16.6843 108.877 15.9592V15.9265C108.877 15.5613 108.777 15.2941 108.577 15.1251C108.377 14.9507 108.056 14.8634 107.615 14.8634H106.492V17.0469H107.707ZM107.492 14.3074C107.892 14.3074 108.177 14.2283 108.346 14.0702C108.52 13.9067 108.607 13.6423 108.607 13.277V13.2443C108.607 12.9172 108.515 12.68 108.33 12.5328C108.151 12.3856 107.866 12.312 107.477 12.312H106.492V14.3074H107.492Z" fill="#303033"/>
</g>
<g id="g1231">
<path id="path1192" fill-rule="evenodd" clip-rule="evenodd" d="M14.5259 12.1729C14.1562 12.5719 13.9437 13.186 13.9437 13.984V42.3686C13.9437 43.1666 14.1562 43.7807 14.5398 44.1659L14.64 44.2509L30.4805 28.3463V27.989L14.6261 12.0879L14.5259 12.1729Z" fill="url(#paint0_linear_735_153)"/>
<path id="path1203" fill-rule="evenodd" clip-rule="evenodd" d="M35.7503 33.6693L30.4667 28.3625V27.9913L35.752 22.6846L35.8661 22.7557L42.1173 26.3224C43.9073 27.3355 43.9073 29.0044 42.1173 30.0314L35.8661 33.5981C35.8643 33.5981 35.7503 33.6693 35.7503 33.6693Z" fill="url(#paint1_linear_735_153)"/>
<path id="path1210" fill-rule="evenodd" clip-rule="evenodd" d="M35.8643 33.598L30.4666 28.1768L14.5259 44.1819C15.1082 44.8099 16.0878 44.881 17.1832 44.2669L35.8643 33.598Z" fill="url(#paint2_linear_735_153)"/>
<path id="path1223" fill-rule="evenodd" clip-rule="evenodd" d="M35.8644 22.7566L17.1833 12.1015C16.0896 11.4735 15.1082 11.5586 14.5259 12.1865L30.465 28.1761L35.8644 22.7566Z" fill="url(#paint3_linear_735_153)"/>
<path id="path1225" opacity="0.2" fill-rule="evenodd" clip-rule="evenodd" d="M35.7503 33.4834L17.1971 44.0673C16.1604 44.6658 15.236 44.6242 14.6399 44.0812L14.5397 44.1818L14.6399 44.2668C15.236 44.8081 16.1604 44.8515 17.1971 44.253L35.8782 33.5979L35.7503 33.4834Z" fill="black"/>
<path id="path1227" opacity="0.12" fill-rule="evenodd" clip-rule="evenodd" d="M42.1156 29.8456L35.7365 33.4835L35.8505 33.598L42.1018 30.0312C42.9968 29.5177 43.4373 28.8481 43.4373 28.1768C43.3803 28.7909 42.9259 29.3755 42.1156 29.8456Z" fill="black"/>
<path id="path1229" opacity="0.25" fill-rule="evenodd" clip-rule="evenodd" d="M17.1833 12.2879L42.1156 26.5097C42.9259 26.9659 43.3803 27.5644 43.4512 28.1786C43.4512 27.5089 43.0106 26.8376 42.1156 26.3241L17.1833 12.1023C15.3933 11.0753 13.9437 11.9305 13.9437 13.9845V14.1701C13.9437 12.1162 15.3933 11.2748 17.1833 12.2879Z" fill="white"/>
</g>
<g id="g1237">
<path id="path1233" fill-rule="evenodd" clip-rule="evenodd" d="M51.0035 33.1112C51.0035 28.5643 54.8098 24.8623 59.3384 24.8623C61.842 24.8623 63.6234 25.8494 64.9676 27.1349L63.3849 28.7239C62.4243 27.8184 61.1215 27.1158 59.3367 27.1158C56.0296 27.1158 53.4448 29.7891 53.4448 33.1095C53.4448 36.4299 56.0296 39.1067 59.3349 39.1067C61.4791 39.1067 62.699 38.2427 63.4817 37.4551C64.1227 36.8115 64.5426 35.8869 64.705 34.6188H59.3384V32.3705H66.8924C66.9719 32.7729 67.0133 33.2552 67.0133 33.7774C67.0133 35.4653 66.552 37.5592 65.0678 39.0494C63.6234 40.5587 61.7815 41.3636 59.3367 41.3636C54.8064 41.3636 51 37.665 51 33.1147L51.0035 33.1112ZM73.1194 30.738C70.1942 30.738 67.8064 32.9724 67.8064 36.0482C67.8064 39.1084 70.1925 41.3584 73.1194 41.3584C76.0463 41.3584 78.4289 39.1049 78.4289 36.0465C78.4289 32.9707 76.0446 30.7363 73.1194 30.738ZM73.1194 39.2697C71.5177 39.2697 70.1337 37.9426 70.1337 36.05C70.1337 34.1382 71.516 32.8302 73.1194 32.8302C74.7211 32.8302 76.1033 34.1365 76.1033 36.05C76.1033 37.9409 74.7228 39.2697 73.1194 39.2697ZM84.7043 30.738C81.7792 30.738 79.3948 32.9724 79.3948 36.0482C79.3948 39.1084 81.7792 41.3584 84.7043 41.3584C87.6295 41.3584 90.0139 39.1049 90.0139 36.0465C90.0139 32.9707 87.6312 30.7363 84.7043 30.738ZM84.7043 39.2697C83.1027 39.2697 81.7187 37.9426 81.7187 36.05C81.7187 34.1382 83.1009 32.8302 84.7043 32.8302C86.306 32.8302 87.69 34.1365 87.69 36.05C87.69 37.9409 86.306 39.2697 84.7043 39.2697ZM98.9225 31.0607V31.9246H98.843C98.3229 31.2984 97.3208 30.7363 96.0595 30.7363C93.4142 30.7363 90.9866 33.0713 90.9866 36.0708C90.9866 39.0459 93.4125 41.3619 96.0595 41.3619C97.3208 41.3619 98.3229 40.7998 98.843 40.1562H98.9225V40.9195C98.9225 42.9509 97.8409 44.0387 96.0975 44.0387C94.6738 44.0387 93.7926 43.0117 93.4315 42.1495L91.4065 42.9943C91.987 44.4012 93.5317 46.1325 96.0958 46.1325C98.8188 46.1325 101.124 44.5209 101.124 40.5986V31.059L98.9225 31.0607ZM96.2582 39.2697C94.6565 39.2697 93.3105 37.9201 93.3105 36.0708C93.3105 34.2007 94.6548 32.8319 96.2582 32.8319C97.8409 32.8319 99.0832 34.1989 99.0832 36.0708C99.0849 37.9201 97.8426 39.2697 96.2582 39.2697ZM102.729 25.4261H105.054V41.0392H102.729V25.4261ZM111.428 39.2697C110.247 39.2697 109.403 38.725 108.866 37.6616L115.94 34.7211L115.696 34.1174C115.257 32.9325 113.913 30.738 111.167 30.738C108.443 30.738 106.178 32.8909 106.178 36.05C106.178 39.0251 108.422 41.3601 111.428 41.3601C113.854 41.3601 115.257 39.8734 115.838 39.006L114.034 37.8004C113.431 38.6868 112.608 39.2715 111.428 39.2697ZM111.247 32.7903C112.168 32.7903 112.949 33.2535 113.21 33.9162L108.479 35.8886C108.42 33.8364 110.063 32.7903 111.247 32.7903Z" fill="#808285"/>
<path id="path1235" fill-rule="evenodd" clip-rule="evenodd" d="M126.144 25.4258H120.584V41.0389H122.904V35.125H126.146C128.718 35.125 131.248 33.2549 131.248 30.2745C131.248 27.2994 128.72 25.4275 126.149 25.4275L126.144 25.4258ZM126.205 32.9513H122.904V27.5977H126.205C127.939 27.5977 128.928 29.0428 128.928 30.2745C128.928 31.4854 127.939 32.9513 126.205 32.9513ZM134.847 41.0389V25.4258H132.527V41.0389H134.847ZM145.271 41.0111V35.0261C145.271 32.2539 143.208 30.7082 140.545 30.7082C138.868 30.7082 137.128 31.4524 136.407 33.0988L138.467 33.9609C138.907 33.0988 139.726 32.816 140.589 32.816C141.788 32.816 143.007 33.5394 143.026 34.8266V34.9879C142.607 34.7468 141.708 34.3842 140.606 34.3842C138.386 34.3842 136.126 35.609 136.126 37.8989C136.126 39.9893 137.947 41.3338 139.987 41.3338C141.549 41.3338 142.408 40.6312 142.947 39.8089H143.026V41.0146H145.269L145.271 41.0111ZM140.269 39.2659C139.509 39.2659 138.448 38.8843 138.448 37.9423C138.448 36.7366 139.77 36.2717 140.91 36.2717C141.931 36.2717 142.41 36.492 143.032 36.7938C142.854 38.1956 141.674 39.2486 140.269 39.2659ZM153.431 31.05L150.771 37.8174H150.691L147.93 31.05H145.43L149.57 40.5115L147.208 45.7731H149.628L156.009 31.05H153.431Z" fill="#808285"/>
</g>
</g>
<defs>
<linearGradient id="paint0_linear_735_153" x1="29.0581" y1="13.6789" x2="3.67078" y2="20.4162" gradientUnits="userSpaceOnUse">
<stop stop-color="#00A0FF"/>
<stop offset="0.007" stop-color="#00A1FF"/>
<stop offset="0.26" stop-color="#00BEFF"/>
<stop offset="0.512" stop-color="#00D2FF"/>
<stop offset="0.76" stop-color="#00DFFF"/>
<stop offset="1" stop-color="#00E3FF"/>
</linearGradient>
<linearGradient id="paint1_linear_735_153" x1="44.4466" y1="28.1777" x2="13.5086" y2="28.1777" gradientUnits="userSpaceOnUse">
<stop stop-color="#FFE000"/>
<stop offset="0.409" stop-color="#FFBD00"/>
<stop offset="0.775" stop-color="#FFA500"/>
<stop offset="1" stop-color="#FF9C00"/>
</linearGradient>
<linearGradient id="paint2_linear_735_153" x1="32.9292" y1="31.1259" x2="12.4374" y2="65.4762" gradientUnits="userSpaceOnUse">
<stop stop-color="#FF3A44"/>
<stop offset="1" stop-color="#C31162"/>
</linearGradient>
<linearGradient id="paint3_linear_735_153" x1="10.5133" y1="2.73057" x2="19.6553" y2="18.072" gradientUnits="userSpaceOnUse">
<stop stop-color="#32A071"/>
<stop offset="0.069" stop-color="#2DA771"/>
<stop offset="0.476" stop-color="#15CF74"/>
<stop offset="0.801" stop-color="#06E775"/>
<stop offset="1" stop-color="#00F076"/>
</linearGradient>
<clipPath id="clip0_735_153">
<rect width="165" height="56" fill="white"/>
</clipPath>
</defs>
</svg>
