<svg width="205" height="70" viewBox="0 0 205 70" fill="none" xmlns="http://www.w3.org/2000/svg">
<g clip-path="url(#clip0_405_2266)">
<path d="M8.36105 0H196.637C201.229 0 204.961 3.766 204.961 8.4V61.6C204.961 66.234 201.229 70 196.637 70H8.36105C3.76863 70 0.0364113 66.234 0.0364113 61.6V8.4C0.0364113 3.766 3.76863 0 8.36105 0Z" fill="#F2F2F2"/>
<path d="M65.8204 19.4384C65.763 20.2903 65.6133 20.8968 65.3712 21.2579H68.6969V15.4212H66.021C66.0083 15.612 65.9924 15.9732 65.9733 16.5047C65.9541 17.0295 65.9318 17.5474 65.9064 18.0585C65.8809 18.5628 65.8522 19.0227 65.8204 19.4384ZM64.5875 23.333H63.8995V21.2579H64.3295C64.5589 21.183 64.7245 20.9956 64.8265 20.6957C64.9348 20.3959 65.0176 19.9529 65.0749 19.3669C65.1514 18.3515 65.2055 17.3191 65.2374 16.2696C65.2629 15.5541 65.2788 15.0294 65.2852 14.6954H69.5092V21.2579H70.2737V23.333H69.5856L69.5379 22.0042H64.6353L64.5875 23.333Z" fill="#303033"/>
<path d="M75.5802 21.3602C76.332 21.3602 76.9276 21.0842 77.3673 20.5322C77.8132 19.9802 78.0362 19.2579 78.0362 18.3651V18.2834C78.0362 17.4383 77.8132 16.733 77.3673 16.1674C76.9213 15.6018 76.3192 15.319 75.5611 15.319C74.7838 15.319 74.1722 15.595 73.7262 16.147C73.2802 16.6921 73.0572 17.4111 73.0572 18.3038V18.3856C73.0572 19.2579 73.2961 19.9734 73.774 20.5322C74.2582 21.0842 74.8602 21.3602 75.5802 21.3602ZM75.5802 22.0962C74.5863 22.0962 73.774 21.7418 73.1432 21.0331C72.5125 20.3175 72.1971 19.4384 72.1971 18.3958V18.314C72.1971 17.2578 72.5093 16.3753 73.1337 15.6665C73.7644 14.9578 74.5735 14.6035 75.5611 14.6035C76.5486 14.6035 77.3513 14.9578 77.9693 15.6665C78.5873 16.3684 78.8963 17.2441 78.8963 18.2936V18.3754C78.8963 19.4248 78.5873 20.3073 77.9693 21.0228C77.3513 21.7384 76.5549 22.0962 75.5802 22.0962Z" fill="#303033"/>
<path d="M84.2819 22.0962C83.2944 22.0962 82.5139 21.7622 81.9405 21.0944C81.3735 20.4266 81.09 19.527 81.09 18.3958V18.314C81.09 17.2305 81.3926 16.3378 81.9979 15.6359C82.6031 14.934 83.3708 14.583 84.301 14.583C85.0464 14.583 85.674 14.7909 86.1837 15.2065C86.6997 15.6222 86.996 16.2117 87.0724 16.9749H86.2506C86.155 16.4093 85.9511 15.9868 85.6389 15.7074C85.3331 15.428 84.8903 15.2883 84.3106 15.2883C83.6034 15.2883 83.0332 15.5643 82.5999 16.1163C82.1667 16.6615 81.9501 17.3906 81.9501 18.3038V18.3856C81.9501 19.3192 82.1571 20.0518 82.5713 20.5833C82.9918 21.108 83.5683 21.3704 84.301 21.3704C84.868 21.3704 85.3299 21.2205 85.6867 20.9206C86.0499 20.614 86.276 20.1676 86.3652 19.5815H87.1393C87.0246 20.4061 86.7156 21.0331 86.2123 21.4624C85.709 21.8849 85.0655 22.0962 84.2819 22.0962Z" fill="#303033"/>
<path d="M90.8635 15.4212H88.8758V14.6954H93.6827V15.4212H91.695V22.0042H90.8635V15.4212Z" fill="#303033"/>
<path d="M96.3436 22.0859C96.2098 22.0859 96.1142 22.0723 96.0569 22.045L95.9709 22.0042V21.1966L96.0569 21.2171C96.1461 21.2307 96.2416 21.2375 96.3436 21.2375C96.6175 21.2375 96.8501 21.1625 97.0412 21.0126C97.2323 20.8627 97.4044 20.6174 97.5573 20.2766L95.2828 14.6954H96.1525L97.9778 19.2544L99.8317 14.6954H100.615L98.3122 20.2766C98.0765 20.8627 97.8121 21.3125 97.519 21.6259C97.2323 21.9326 96.8405 22.0859 96.3436 22.0859Z" fill="#303033"/>
<path d="M107.046 15.4417H103.548V22.0042H102.717V14.6954H107.877V22.0042H107.046V15.4417Z" fill="#303033"/>
<path d="M110.799 14.6954H111.63V18.0074H115.224V14.6954H116.055V22.0042H115.224V18.7536H111.63V22.0042H110.799V14.6954Z" fill="#303033"/>
<path d="M121.975 21.3602C122.727 21.3602 123.323 21.0842 123.762 20.5322C124.208 19.9802 124.431 19.2579 124.431 18.3651V18.2834C124.431 17.4383 124.208 16.733 123.762 16.1674C123.316 15.6018 122.714 15.319 121.956 15.319C121.179 15.319 120.567 15.595 120.121 16.147C119.675 16.6921 119.452 17.4111 119.452 18.3038V18.3856C119.452 19.2579 119.691 19.9734 120.169 20.5322C120.653 21.0842 121.255 21.3602 121.975 21.3602ZM121.975 22.0962C120.981 22.0962 120.169 21.7418 119.538 21.0331C118.908 20.3175 118.592 19.4384 118.592 18.3958V18.314C118.592 17.2578 118.904 16.3753 119.529 15.6665C120.159 14.9578 120.969 14.6035 121.956 14.6035C122.944 14.6035 123.746 14.9578 124.364 15.6665C124.982 16.3684 125.291 17.2441 125.291 18.2936V18.3754C125.291 19.4248 124.982 20.3073 124.364 21.0228C123.746 21.7384 122.95 22.0962 121.975 22.0962Z" fill="#303033"/>
<path d="M131.495 14.6954H133.55C135.015 14.6954 135.748 15.3258 135.748 16.5865V16.6274C135.748 17.4043 135.404 17.9188 134.716 18.1709C135.207 18.2936 135.557 18.4946 135.767 18.774C135.977 19.0534 136.083 19.435 136.083 19.9189V19.9598C136.083 20.6344 135.882 21.1455 135.481 21.4931C135.086 21.8338 134.538 22.0042 133.837 22.0042H131.495V14.6954ZM133.818 21.3091C134.786 21.3091 135.27 20.8559 135.27 19.9495V19.9087C135.27 19.4521 135.146 19.1182 134.898 18.9069C134.649 18.6888 134.251 18.5798 133.703 18.5798H132.308V21.3091H133.818ZM133.55 17.8847C134.047 17.8847 134.401 17.7859 134.611 17.5883C134.827 17.3838 134.936 17.0533 134.936 16.5967V16.5558C134.936 16.147 134.821 15.8505 134.592 15.6665C134.369 15.4825 134.015 15.3905 133.531 15.3905H132.308V17.8847H133.55Z" fill="#303033"/>
<path fill-rule="evenodd" clip-rule="evenodd" d="M18.0467 15.2156C17.5873 15.7144 17.3233 16.482 17.3233 17.4795V52.9603C17.3233 53.9578 17.5873 54.7254 18.0639 55.2068L18.1884 55.3131L37.8691 35.4324V34.9857L18.1712 15.1094L18.0467 15.2156Z" fill="url(#paint0_linear_405_2266)"/>
<path fill-rule="evenodd" clip-rule="evenodd" d="M44.4161 42.0868L37.8516 35.4534V34.9894L44.4183 28.356L44.56 28.4449L52.3266 32.9033C54.5506 34.1697 54.5506 36.2557 52.3266 37.5395L44.56 41.9979C44.5578 41.9979 44.4161 42.0868 44.4161 42.0868Z" fill="url(#paint1_linear_405_2266)"/>
<path fill-rule="evenodd" clip-rule="evenodd" d="M44.5581 41.9977L37.8519 35.2212L18.0467 55.2276C18.7701 56.0126 19.9873 56.1015 21.3483 55.3339L44.5581 41.9977Z" fill="url(#paint2_linear_405_2266)"/>
<path fill-rule="evenodd" clip-rule="evenodd" d="M44.5581 28.4455L21.3483 15.1267C19.9894 14.3417 18.7701 14.4479 18.0467 15.2329L37.8497 35.2199L44.5581 28.4455Z" fill="url(#paint3_linear_405_2266)"/>
<path opacity="0.2" fill-rule="evenodd" clip-rule="evenodd" d="M44.4161 41.8535L21.3651 55.0834C20.0771 55.8316 18.9286 55.7795 18.188 55.1008L18.0635 55.2266L18.188 55.3328C18.9286 56.0094 20.0771 56.0636 21.3651 55.3155L44.5749 41.9966L44.4161 41.8535Z" fill="black"/>
<path opacity="0.12" fill-rule="evenodd" clip-rule="evenodd" d="M52.3248 37.3073L44.3993 41.8546L44.541 41.9977L52.3076 37.5393C53.4196 36.8974 53.967 36.0604 53.967 35.2212C53.8962 35.9888 53.3316 36.7196 52.3248 37.3073Z" fill="black"/>
<path opacity="0.25" fill-rule="evenodd" clip-rule="evenodd" d="M21.3483 15.3596L52.3248 33.1369C53.3315 33.7072 53.8961 34.4553 53.9841 35.223C53.9841 34.3859 53.4367 33.5467 52.3248 32.9049L21.3483 15.1276C19.1244 13.8439 17.3233 14.9129 17.3233 17.4804V17.7124C17.3233 15.145 19.1244 14.0932 21.3483 15.3596Z" fill="white"/>
<path fill-rule="evenodd" clip-rule="evenodd" d="M63.3667 41.3893C63.3667 35.7057 68.0958 31.0781 73.7222 31.0781C76.8327 31.0781 79.0459 32.312 80.716 33.9188L78.7497 35.9052C77.5561 34.7732 75.9376 33.895 73.72 33.895C69.6113 33.895 66.3999 37.2366 66.3999 41.3871C66.3999 45.5376 69.6113 48.8836 73.7179 48.8836C76.3819 48.8836 77.8975 47.8037 78.8699 46.8192C79.6663 46.0147 80.188 44.8589 80.3897 43.2737H73.7222V40.4633H83.1074C83.2062 40.9664 83.2577 41.5693 83.2577 42.222C83.2577 44.3319 82.6845 46.9493 80.8406 48.812C79.0459 50.6986 76.7576 51.7048 73.72 51.7048C68.0915 51.7048 63.3624 47.0815 63.3624 41.3936L63.3667 41.3893ZM90.844 38.4228C87.2097 38.4228 84.243 41.2158 84.243 45.0605C84.243 48.8857 87.2076 51.6983 90.844 51.6983C94.4805 51.6983 97.4408 48.8814 97.4408 45.0584C97.4408 41.2136 94.4783 38.4206 90.844 38.4228ZM90.844 49.0874C88.8541 49.0874 87.1346 47.4285 87.1346 45.0627C87.1346 42.673 88.8519 41.038 90.844 41.038C92.834 41.038 94.5513 42.6708 94.5513 45.0627C94.5513 47.4263 92.8361 49.0874 90.844 49.0874ZM105.237 38.4228C101.603 38.4228 98.6407 41.2158 98.6407 45.0605C98.6407 48.8857 101.603 51.6983 105.237 51.6983C108.872 51.6983 111.834 48.8814 111.834 45.0584C111.834 41.2136 108.874 38.4206 105.237 38.4228ZM105.237 49.0874C103.247 49.0874 101.528 47.4285 101.528 45.0627C101.528 42.673 103.245 41.038 105.237 41.038C107.227 41.038 108.947 42.6708 108.947 45.0627C108.947 47.4263 107.227 49.0874 105.237 49.0874ZM122.902 38.8261V39.906H122.804C122.158 39.1232 120.912 38.4206 119.345 38.4206C116.059 38.4206 113.043 41.3394 113.043 45.0887C113.043 48.8077 116.057 51.7026 119.345 51.7026C120.912 51.7026 122.158 51 122.804 50.1955H122.902V51.1496C122.902 53.6889 121.559 55.0486 119.393 55.0486C117.624 55.0486 116.529 53.7648 116.08 52.6871L113.564 53.7431C114.286 55.5018 116.205 57.6659 119.39 57.6659C122.774 57.6659 125.637 55.6514 125.637 50.7485V38.824L122.902 38.8261ZM119.592 49.0874C117.602 49.0874 115.93 47.4003 115.93 45.0887C115.93 42.7511 117.6 41.0401 119.592 41.0401C121.559 41.0401 123.102 42.7489 123.102 45.0887C123.104 47.4003 121.561 49.0874 119.592 49.0874ZM127.632 31.7829H130.521V51.2993H127.632V31.7829ZM138.44 49.0874C136.972 49.0874 135.924 48.4065 135.256 47.0772L144.045 43.4016L143.742 42.647C143.197 41.1659 141.527 38.4228 138.116 38.4228C134.731 38.4228 131.916 41.1139 131.916 45.0627C131.916 48.7816 134.705 51.7004 138.44 51.7004C141.454 51.7004 143.197 49.842 143.918 48.7578L141.677 47.2507C140.928 48.3588 139.906 49.0896 138.44 49.0874ZM138.215 40.9881C139.359 40.9881 140.329 41.5671 140.653 42.3955L134.776 44.861C134.703 42.2957 136.744 40.9881 138.215 40.9881Z" fill="#808285"/>
<path fill-rule="evenodd" clip-rule="evenodd" d="M156.723 31.7822H149.815V51.2986H152.698V43.9062H156.726C159.922 43.9062 163.065 41.5686 163.065 37.8431C163.065 34.1242 159.924 31.7844 156.73 31.7844L156.723 31.7822ZM156.799 41.1891H152.698V34.4972H156.799C158.954 34.4972 160.182 36.3035 160.182 37.8431C160.182 39.3567 158.954 41.1891 156.799 41.1891ZM167.536 51.2986V31.7822H164.653V51.2986H167.536ZM180.487 51.2639V43.7826C180.487 40.3174 177.924 38.3853 174.616 38.3853C172.532 38.3853 170.37 39.3155 169.475 41.3734L172.034 42.4512C172.581 41.3734 173.598 41.02 174.67 41.02C176.159 41.02 177.675 41.9242 177.699 43.5333V43.7349C177.177 43.4335 176.061 42.9803 174.691 42.9803C171.933 42.9803 169.125 44.5112 169.125 47.3736C169.125 49.9867 171.387 51.6672 173.923 51.6672C175.863 51.6672 176.93 50.789 177.6 49.7611H177.699V51.2682H180.485L180.487 51.2639ZM174.272 49.0824C173.328 49.0824 172.01 48.6053 172.01 47.4279C172.01 45.9208 173.652 45.3396 175.069 45.3396C176.338 45.3396 176.932 45.615 177.705 45.9923C177.484 47.7444 176.018 49.0607 174.272 49.0824ZM190.626 38.8125L187.32 47.2717H187.221L183.791 38.8125H180.685L185.828 50.6394L182.894 57.2164H185.901L193.829 38.8125H190.626Z" fill="#808285"/>
</g>
<defs>
<linearGradient id="paint0_linear_405_2266" x1="36.1018" y1="17.0981" x2="4.53492" y2="25.4246" gradientUnits="userSpaceOnUse">
<stop stop-color="#00A0FF"/>
<stop offset="0.007" stop-color="#00A1FF"/>
<stop offset="0.26" stop-color="#00BEFF"/>
<stop offset="0.512" stop-color="#00D2FF"/>
<stop offset="0.76" stop-color="#00DFFF"/>
<stop offset="1" stop-color="#00E3FF"/>
</linearGradient>
<linearGradient id="paint1_linear_405_2266" x1="55.2206" y1="35.2224" x2="16.7825" y2="35.2224" gradientUnits="userSpaceOnUse">
<stop stop-color="#FFE000"/>
<stop offset="0.409" stop-color="#FFBD00"/>
<stop offset="0.775" stop-color="#FFA500"/>
<stop offset="1" stop-color="#FF9C00"/>
</linearGradient>
<linearGradient id="paint2_linear_405_2266" x1="40.9114" y1="38.9077" x2="15.2229" y2="81.7081" gradientUnits="userSpaceOnUse">
<stop stop-color="#FF3A44"/>
<stop offset="1" stop-color="#C31162"/>
</linearGradient>
<linearGradient id="paint3_linear_405_2266" x1="13.0612" y1="3.41297" x2="24.5218" y2="22.5285" gradientUnits="userSpaceOnUse">
<stop stop-color="#32A071"/>
<stop offset="0.069" stop-color="#2DA771"/>
<stop offset="0.476" stop-color="#15CF74"/>
<stop offset="0.801" stop-color="#06E775"/>
<stop offset="1" stop-color="#00F076"/>
</linearGradient>
<clipPath id="clip0_405_2266">
<rect width="205" height="70" fill="white" transform="translate(-0.000915527)"/>
</clipPath>
</defs>
</svg>
