<svg width="165" height="56" fill="none" xmlns="http://www.w3.org/2000/svg"><g clip-path="url(#a)"><path d="M6.73 0h151.54c3.697 0 6.701 3.013 6.701 6.72v42.56c0 3.707-3.004 6.72-6.701 6.72H6.73c-3.696 0-6.7-3.013-6.7-6.72V6.72C.03 3.013 3.034 0 6.73 0Z" fill="#E9E8E8"/><path d="M55.652 17.282c-.832 0-1.464-.21-1.897-.626-.427-.418-.678-.96-.755-1.63h.88c.063.484.224.865.483 1.143.265.278.695.417 1.289.417.559 0 .985-.129 1.279-.387.293-.265.44-.63.44-1.093 0-.437-.137-.752-.41-.944-.265-.198-.719-.298-1.362-.298h-.953v-.655h.953c.965 0 1.447-.434 1.447-1.302 0-.808-.465-1.212-1.394-1.212-.461 0-.814.1-1.059.298-.237.192-.402.514-.493.964h-.817c.16-1.305.971-1.957 2.432-1.957.663 0 1.198.175 1.603.527.413.344.619.804.619 1.38 0 .371-.109.702-.325.994-.21.284-.514.483-.912.596.517.072.908.248 1.174.526.265.278.398.64.398 1.083 0 .63-.244 1.149-.734 1.56-.482.41-1.11.616-1.886.616Zm5.478 0c-.537 0-.978-.126-1.32-.378-.335-.258-.503-.642-.503-1.152 0-.285.073-.534.22-.745a1.5 1.5 0 0 1 .629-.507c.265-.126.555-.215.87-.268.314-.06.657-.09 1.027-.09h.786v-.377c0-.417-.09-.715-.272-.894-.182-.186-.483-.278-.902-.278-.755 0-1.174.311-1.258.934h-.87c.056-.557.284-.964.682-1.222.405-.265.901-.398 1.488-.398 1.335 0 2.002.62 2.002 1.858v3.427h-.87v-.656c-.42.497-.989.745-1.708.745Zm.084-.656c.476 0 .863-.11 1.164-.328.307-.225.461-.533.461-.924v-.646h-.755c-1.271 0-1.907.341-1.907 1.024 0 .582.346.874 1.038.874Zm5.011-3.934v4.5h-.87v-5.195h3.48v.695h-2.61Zm3.871-.695h.87v.874c.16-.265.412-.49.754-.676.343-.192.71-.288 1.1-.288.734 0 1.332.235 1.793.706.468.47.702 1.106.702 1.907v.08c0 .8-.23 1.45-.691 1.946-.455.49-1.056.736-1.803.736-.839 0-1.457-.315-1.855-.944V19h-.87v-7.003Zm2.64 4.599c.546 0 .962-.166 1.248-.497.287-.337.43-.824.43-1.46v-.08c0-.628-.16-1.112-.482-1.45-.315-.344-.716-.516-1.206-.516-.53 0-.964.169-1.3.506-.328.332-.492.818-.492 1.46v.08c0 .643.16 1.13.482 1.46.329.331.769.497 1.32.497Zm5.359.06-2.149-4.66h.933l1.677 3.726 1.52-3.725h.89L77.939 19h-.88l1.037-2.344Zm7.385-3.308c0 .258-.081.496-.242.715a1.005 1.005 0 0 1-.66.397c.356.06.64.189.849.388.21.198.314.46.314.784v.03c0 .484-.188.874-.566 1.172-.37.299-.877.448-1.52.448-.663 0-1.184-.146-1.561-.438-.37-.298-.57-.715-.598-1.251h.85c.041.33.16.582.356.755.202.165.52.248.954.248.782 0 1.173-.295 1.173-.884v-.03c0-.291-.094-.503-.283-.636-.181-.132-.464-.198-.849-.198h-.828v-.656h.682c.363 0 .622-.063.775-.189.161-.126.241-.33.241-.616v-.03c0-.51-.314-.764-.943-.764-.608 0-.971.271-1.09.814h-.839c.063-.523.273-.904.63-1.142.363-.239.813-.358 1.351-.358.517 0 .947.126 1.29.378.342.245.513.59.513 1.033v.03Zm1.646 3.844v-5.195h.87V16l2.799-4.003h.87v5.195h-.87V13.19l-2.799 4.003h-.87Zm10.039-4.5h-1.77v4.5h-.87v-4.5h-1.772v-.695h4.412v.695Zm3.301 4.59c-.782 0-1.422-.242-1.918-.726-.489-.483-.734-1.119-.734-1.907v-.08c0-.78.238-1.42.713-1.917.482-.496 1.1-.745 1.855-.745.699 0 1.283.216 1.751.646.475.424.712 1.07.712 1.937v.268h-4.13c.043 1.225.63 1.838 1.762 1.838.859 0 1.345-.301 1.457-.904h.87c-.098.517-.353.91-.766 1.182-.412.272-.936.408-1.572.408Zm1.489-3.19c-.077-1-.601-1.5-1.573-1.5-.44 0-.803.133-1.09.398-.286.265-.468.633-.545 1.103h3.208Zm4.936-2.095h1.918c1.286 0 1.929.44 1.929 1.32v.03c0 .252-.073.484-.22.696-.147.205-.367.344-.66.417.761.16 1.142.55 1.142 1.172v.03c0 .504-.175.884-.524 1.143-.342.258-.821.387-1.436.387h-2.149v-5.195Zm.87.655v1.54h1.048c.364 0 .622-.063.776-.189.161-.126.241-.33.241-.616v-.03c0-.264-.084-.446-.251-.546-.161-.106-.42-.159-.776-.159h-1.038Zm0 2.196v1.688h1.195c.384 0 .667-.063.849-.188.189-.133.283-.345.283-.636v-.03c0-.291-.094-.503-.283-.636-.182-.132-.465-.198-.849-.198h-1.195Z" fill="#303033"/><path d="M36.134 26.723c-.034-4.01 3.272-5.958 3.417-6.048-1.876-2.732-4.78-3.113-5.796-3.147-2.434-.257-4.802 1.467-6.041 1.467-1.262 0-3.183-1.433-5.238-1.4-2.646.045-5.137 1.58-6.488 3.976-2.803 4.872-.715 12.04 1.977 15.983 1.351 1.926 2.914 4.088 4.98 4.01 2.01-.079 2.77-1.289 5.193-1.289 2.412 0 3.116 1.288 5.215 1.244 2.167-.034 3.518-1.938 4.824-3.887 1.553-2.206 2.178-4.39 2.2-4.502-.056-.023-4.199-1.613-4.243-6.407ZM32.17 14.94c1.083-1.354 1.82-3.202 1.619-5.084-1.564.067-3.53 1.086-4.657 2.42-.994 1.175-1.887 3.09-1.664 4.894 1.764.134 3.573-.896 4.701-2.23Zm33.132 26.343h-2.814l-1.54-4.86h-5.36l-1.464 4.86h-2.736l5.305-16.542h3.283l5.326 16.542Zm-4.813-6.9-1.395-4.311c-.146-.448-.425-1.479-.827-3.114h-.056c-.167.706-.424 1.748-.781 3.114l-1.374 4.312h4.434Zm18.449.796c0 2.027-.547 3.629-1.653 4.805-.983 1.052-2.211 1.568-3.663 1.568-1.575 0-2.702-.56-3.395-1.692v6.261h-2.646V33.275c0-1.277-.034-2.576-.1-3.92h2.322l.145 1.893h.045c.882-1.423 2.222-2.14 4.009-2.14 1.407 0 2.568.56 3.506 1.67.96 1.12 1.43 2.575 1.43 4.4Zm-2.692.09c0-1.165-.256-2.117-.781-2.868-.57-.784-1.34-1.176-2.3-1.176-.649 0-1.24.224-1.776.65a3 3 0 0 0-1.039 1.702c-.078.325-.123.594-.123.807v1.993c0 .863.268 1.602.793 2.195.525.594 1.217.896 2.066.896.994 0 1.764-.392 2.323-1.153.558-.773.837-1.781.837-3.047Zm16.36-.09c0 2.027-.547 3.629-1.652 4.805-.983 1.052-2.211 1.568-3.663 1.568-1.575 0-2.703-.56-3.395-1.692v6.261h-2.647V33.275c0-1.277-.033-2.576-.1-3.92h2.323l.145 1.893h.044c.883-1.423 2.223-2.14 4.01-2.14 1.406 0 2.568.56 3.506 1.67.96 1.12 1.43 2.575 1.43 4.4Zm-2.69.09c0-1.165-.258-2.117-.783-2.868-.57-.784-1.34-1.176-2.3-1.176-.648 0-1.24.224-1.776.65a3.061 3.061 0 0 0-1.038 1.702c-.078.325-.123.594-.123.807v1.993c0 .863.268 1.602.793 2.195.525.594 1.217.896 2.066.896.994 0 1.775-.392 2.323-1.153.569-.773.837-1.781.837-3.047Zm17.989 1.377c0 1.411-.491 2.554-1.463 3.439-1.072.963-2.568 1.444-4.489 1.444-1.775 0-3.194-.347-4.266-1.03l.615-2.206a7.401 7.401 0 0 0 3.819 1.03c.994 0 1.775-.224 2.323-.672.558-.448.837-1.053.837-1.803 0-.672-.234-1.232-.681-1.691-.458-.46-1.217-.885-2.278-1.277-2.915-1.087-4.355-2.666-4.355-4.738 0-1.355.513-2.464 1.53-3.337 1.016-.863 2.367-1.3 4.053-1.3 1.497 0 2.747.258 3.741.784l-.67 2.15c-.938-.503-1.988-.76-3.171-.76-.927 0-1.664.234-2.189.682-.436.415-.659.908-.659 1.501 0 .65.257 1.199.759 1.613.436.392 1.24.818 2.401 1.277 1.419.571 2.457 1.243 3.127 2.016.681.773 1.016 1.736 1.016 2.878Zm8.755-5.297h-2.914v5.79c0 1.467.514 2.207 1.541 2.207.469 0 .86-.045 1.172-.124l.079 2.016c-.525.19-1.206.292-2.055.292-1.05 0-1.854-.325-2.446-.964-.592-.638-.882-1.713-.882-3.214v-6.014h-1.731v-1.983h1.731v-2.184l2.591-.784v2.968h2.914v1.994Zm13.111 3.875c0 1.836-.525 3.337-1.564 4.513-1.094 1.21-2.546 1.815-4.355 1.815-1.742 0-3.138-.583-4.176-1.736-1.039-1.154-1.553-2.621-1.553-4.39 0-1.849.536-3.36 1.597-4.537 1.072-1.176 2.513-1.77 4.322-1.77 1.742 0 3.149.583 4.21 1.748 1.016 1.12 1.519 2.576 1.519 4.357Zm-2.736.056c0-1.098-.235-2.028-.704-2.812-.558-.952-1.351-1.422-2.378-1.422-1.061 0-1.876.47-2.424 1.422-.48.784-.703 1.736-.703 2.868 0 1.097.234 2.038.703 2.81.57.953 1.374 1.423 2.401 1.423 1.005 0 1.798-.481 2.379-1.445.48-.806.726-1.747.726-2.844Zm11.335-3.596a4.893 4.893 0 0 0-.838-.067c-.927 0-1.653.347-2.155 1.053-.436.616-.659 1.411-.659 2.352v6.26h-2.647v-8.175a76.33 76.33 0 0 0-.078-3.752h2.3l.101 2.285h.078c.279-.784.715-1.423 1.318-1.893.592-.426 1.228-.639 1.909-.639.246 0 .47.023.659.045l.012 2.531Zm11.814 3.07c0 .47-.033.873-.1 1.198h-7.929c.034 1.176.413 2.083 1.15 2.7.67.548 1.53.828 2.591.828 1.173 0 2.245-.19 3.205-.56l.413 1.837c-1.128.493-2.456.739-3.986.739-1.843 0-3.295-.549-4.344-1.635-1.05-1.087-1.575-2.554-1.575-4.38 0-1.791.491-3.292 1.474-4.49 1.028-1.277 2.412-1.916 4.154-1.916 1.709 0 3.015.639 3.887 1.915.703 1.03 1.06 2.274 1.06 3.764Zm-2.523-.684c.022-.784-.157-1.467-.514-2.038-.458-.74-1.161-1.109-2.1-1.109-.859 0-1.563.359-2.099 1.075-.435.572-.703 1.266-.782 2.061l5.495.011Z" fill="#000"/></g><defs><clipPath id="a"><path fill="#fff" d="M0 0h165v56H0z"/></clipPath></defs></svg>