<svg width="205" height="70" fill="none" xmlns="http://www.w3.org/2000/svg"><g clip-path="url(#a)"><path d="M8.361 0h188.276c4.592 0 8.324 3.766 8.324 8.4v53.2c0 4.634-3.732 8.4-8.324 8.4H8.361C3.77 70 .036 66.234.036 61.6V8.4C.036 3.766 3.77 0 8.361 0Z" fill="#F2F2F2"/><path d="M69.142 21.602c-1.033 0-1.819-.26-2.357-.782-.53-.522-.842-1.2-.937-2.037h1.093c.079.604.278 1.08.6 1.428.33.348.863.522 1.601.522.695 0 1.224-.162 1.589-.485.365-.33.547-.786.547-1.366 0-.546-.17-.94-.508-1.18-.33-.248-.894-.372-1.693-.372h-1.185v-.82h1.185c1.198 0 1.797-.542 1.797-1.626 0-1.01-.577-1.515-1.732-1.515-.573 0-1.011.124-1.315.373-.295.24-.5.641-.612 1.204h-1.016c.2-1.63 1.207-2.446 3.021-2.446.825 0 1.49.22 1.993.658.512.43.768 1.006.768 1.726 0 .464-.134.878-.404 1.242-.26.356-.638.604-1.133.745.643.09 1.129.31 1.459.658.33.348.495.799.495 1.354 0 .786-.304 1.436-.912 1.949-.599.513-1.38.77-2.344.77Zm6.808 0c-.67 0-1.216-.157-1.642-.472-.416-.323-.625-.803-.625-1.44 0-.356.092-.667.274-.932a1.86 1.86 0 0 1 .781-.633c.33-.157.69-.269 1.081-.335.39-.075.816-.112 1.276-.112h.977v-.472c0-.521-.113-.894-.339-1.117-.225-.232-.599-.348-1.12-.348-.937 0-1.458.389-1.562 1.167H73.97c.07-.695.352-1.204.846-1.527.504-.331 1.12-.497 1.85-.497 1.658 0 2.487.774 2.487 2.322v4.284h-1.081v-.82c-.521.621-1.228.932-2.123.932Zm.103-.82c.59 0 1.073-.136 1.446-.41.382-.28.573-.666.573-1.154v-.807h-.938c-1.58 0-2.37.426-2.37 1.279 0 .728.43 1.092 1.29 1.092Zm6.226-4.917v5.625h-1.081v-6.494h4.323v.87H82.28Zm4.809-.869h1.08v1.093c.2-.331.513-.613.938-.845.425-.24.881-.36 1.367-.36.912 0 1.654.294 2.227.882.582.588.873 1.382.873 2.384v.1c0 1-.287 1.812-.86 2.433-.564.613-1.31.919-2.24.919-1.041 0-1.81-.393-2.305-1.18v3.328h-1.08v-8.754Zm3.281 5.749c.677 0 1.194-.207 1.55-.62.356-.423.534-1.032.534-1.826v-.1c0-.786-.2-1.39-.6-1.812-.39-.43-.89-.646-1.497-.646-.66 0-1.198.211-1.615.633-.408.414-.612 1.023-.612 1.826v.099c0 .803.2 1.411.6 1.825.407.414.954.621 1.64.621Zm6.657.075-2.67-5.824h1.16l2.083 4.656 1.888-4.656h1.107l-3.763 8.754h-1.094l1.289-2.93Zm9.175-4.135c0 .323-.1.62-.3.894-.191.264-.464.43-.82.496.442.075.794.236 1.054.485.261.248.391.575.391.98v.038a1.78 1.78 0 0 1-.703 1.465c-.46.373-1.09.559-1.888.559-.825 0-1.472-.182-1.941-.547-.46-.372-.707-.894-.742-1.564h1.055c.052.414.2.728.443.944.251.207.646.31 1.185.31.972 0 1.458-.368 1.458-1.105v-.037c0-.365-.117-.63-.351-.795-.226-.166-.578-.248-1.055-.248h-1.029v-.82h.846c.452 0 .773-.079.964-.236.2-.157.3-.414.3-.77v-.037c0-.637-.391-.956-1.172-.956-.756 0-1.207.34-1.355 1.018H101.5c.078-.654.338-1.13.781-1.428.451-.298 1.011-.447 1.68-.447.642 0 1.176.157 1.601.472.426.306.639.737.639 1.291v.038Zm2.046 4.805v-6.494h1.081V20l3.477-5.004h1.081v6.494h-1.081v-5.004l-3.477 5.004h-1.081Zm12.473-5.625h-2.201v5.625h-1.081v-5.625h-2.201v-.87h5.483v.87Zm4.101 5.737c-.973 0-1.767-.302-2.383-.907-.608-.604-.912-1.399-.912-2.384v-.1c0-.976.295-1.775.886-2.396.599-.62 1.367-.93 2.305-.93.868 0 1.593.268 2.174.806.591.53.886 1.337.886 2.422v.335h-5.131c.052 1.531.781 2.297 2.188 2.297 1.068 0 1.671-.377 1.81-1.13h1.081c-.122.646-.439 1.138-.951 1.478-.512.34-1.163.509-1.953.509Zm1.849-3.986c-.096-1.25-.747-1.875-1.953-1.875-.547 0-.999.165-1.355.497-.356.33-.581.79-.677 1.378h3.985Zm6.133-2.62h2.384c1.597 0 2.396.55 2.396 1.651v.038c0 .314-.092.604-.274.869-.182.256-.456.43-.82.521.946.199 1.419.687 1.419 1.466v.037c0 .629-.217 1.105-.651 1.428-.425.323-1.02.484-1.784.484h-2.67v-6.494Zm1.081.82v1.924h1.303c.451 0 .772-.079.963-.236.2-.157.3-.414.3-.77v-.037c0-.331-.104-.559-.313-.683-.2-.132-.521-.199-.963-.199h-1.29Zm0 2.744v2.11h1.485c.477 0 .829-.078 1.055-.235.234-.166.351-.43.351-.795v-.037c0-.365-.117-.63-.351-.795-.226-.166-.578-.248-1.055-.248h-1.485Z" fill="#303033"/><path d="M44.893 33.404c-.042-5.012 4.065-7.448 4.245-7.56-2.33-3.416-5.938-3.892-7.2-3.934-3.025-.322-5.967 1.834-7.507 1.834-1.567 0-3.954-1.792-6.507-1.75-3.288.056-6.382 1.974-8.06 4.97-3.483 6.09-.889 15.05 2.455 19.978 1.679 2.408 3.621 5.11 6.188 5.012 2.497-.098 3.44-1.61 6.451-1.61 2.997 0 3.872 1.61 6.48 1.554 2.691-.042 4.37-2.422 5.994-4.858 1.928-2.758 2.705-5.488 2.733-5.628-.07-.028-5.217-2.016-5.272-8.008Zm-4.926-14.728c1.346-1.694 2.262-4.004 2.012-6.356-1.943.084-4.384 1.358-5.786 3.024-1.234 1.47-2.344 3.864-2.067 6.118 2.192.168 4.44-1.12 5.841-2.786Zm41.165 32.928h-3.496l-1.914-6.076h-6.66l-1.818 6.076h-3.399l6.59-20.678h4.08l6.617 20.678Zm-5.98-8.624-1.734-5.39c-.18-.56-.527-1.848-1.026-3.892h-.07c-.208.882-.527 2.184-.97 3.892l-1.708 5.39h5.509Zm22.921.994c0 2.534-.68 4.536-2.053 6.006-1.221 1.316-2.747 1.96-4.551 1.96-1.956 0-3.358-.7-4.218-2.114v7.826h-3.288V41.594c0-1.596-.042-3.22-.125-4.9h2.886l.18 2.366h.056c1.096-1.778 2.76-2.674 4.98-2.674 1.749 0 3.192.7 4.357 2.086 1.193 1.4 1.776 3.22 1.776 5.502Zm-3.344.112c0-1.456-.319-2.646-.97-3.584-.708-.98-1.666-1.47-2.859-1.47-.805 0-1.54.28-2.206.812a3.755 3.755 0 0 0-1.29 2.128c-.097.406-.153.742-.153 1.008v2.492c0 1.078.333 2.002.985 2.744.652.742 1.513 1.12 2.567 1.12 1.235 0 2.192-.49 2.886-1.442.694-.966 1.04-2.226 1.04-3.808Zm20.327-.112c0 2.534-.68 4.536-2.054 6.006-1.221 1.316-2.747 1.96-4.55 1.96-1.957 0-3.358-.7-4.218-2.114v7.826h-3.289V41.594c0-1.596-.041-3.22-.124-4.9h2.885l.181 2.366h.055c1.096-1.778 2.761-2.674 4.981-2.674 1.748 0 3.191.7 4.357 2.086 1.193 1.4 1.776 3.22 1.776 5.502Zm-3.344.112c0-1.456-.319-2.646-.971-3.584-.708-.98-1.665-1.47-2.858-1.47-.805 0-1.54.28-2.206.812-.652.546-1.083 1.246-1.291 2.128-.097.406-.152.742-.152 1.008v2.492c0 1.078.333 2.002.985 2.744.652.742 1.512 1.12 2.567 1.12 1.234 0 2.206-.49 2.885-1.442.708-.966 1.041-2.226 1.041-3.808Zm22.351 1.722c0 1.764-.61 3.192-1.817 4.298-1.332 1.204-3.191 1.806-5.578 1.806-2.206 0-3.968-.434-5.3-1.288l.763-2.758a9.154 9.154 0 0 0 4.745 1.288c1.235 0 2.206-.28 2.886-.84.694-.56 1.041-1.316 1.041-2.254 0-.84-.291-1.54-.846-2.114-.569-.574-1.513-1.106-2.831-1.596-3.621-1.358-5.411-3.332-5.411-5.922 0-1.694.638-3.08 1.901-4.172 1.262-1.078 2.941-1.624 5.036-1.624 1.86 0 3.413.322 4.648.98l-.832 2.688c-1.166-.63-2.47-.952-3.941-.952-1.151 0-2.067.294-2.719.854-.541.518-.819 1.134-.819 1.876 0 .812.32 1.498.944 2.016.541.49 1.54 1.022 2.983 1.596 1.762.714 3.052 1.554 3.885 2.52.846.966 1.262 2.17 1.262 3.598Zm10.878-6.622h-3.621v7.238c0 1.834.638 2.758 1.914 2.758.583 0 1.069-.056 1.457-.154l.097 2.52c-.652.238-1.498.364-2.553.364-1.304 0-2.303-.406-3.038-1.204-.735-.798-1.096-2.142-1.096-4.018v-7.518h-2.151v-2.478h2.151v-2.73l3.219-.98v3.71h3.621v2.492Zm16.288 4.844c0 2.296-.652 4.172-1.942 5.642-1.36 1.512-3.164 2.268-5.411 2.268-2.165 0-3.899-.728-5.189-2.17-1.291-1.442-1.929-3.276-1.929-5.488 0-2.31.666-4.2 1.984-5.67 1.332-1.47 3.122-2.212 5.37-2.212 2.164 0 3.912.728 5.23 2.184 1.263 1.4 1.887 3.22 1.887 5.446Zm-3.399.07c0-1.372-.292-2.534-.874-3.514-.694-1.19-1.679-1.778-2.955-1.778-1.319 0-2.331.588-3.011 1.778-.597.98-.874 2.17-.874 3.584 0 1.372.291 2.548.874 3.514.707 1.19 1.706 1.778 2.983 1.778 1.248 0 2.234-.602 2.955-1.806.597-1.008.902-2.184.902-3.556Zm14.083-4.494a6.03 6.03 0 0 0-1.041-.084c-1.151 0-2.053.434-2.678 1.316-.541.77-.818 1.764-.818 2.94v7.826h-3.288v-10.22c0-1.722-.028-3.29-.098-4.69h2.859l.124 2.856h.098c.346-.98.887-1.778 1.637-2.366.735-.532 1.526-.798 2.372-.798.305 0 .583.028.819.056l.014 3.164Zm14.678 3.836c0 .588-.041 1.092-.124 1.498h-9.851c.041 1.47.513 2.604 1.429 3.374.832.686 1.901 1.036 3.219 1.036 1.457 0 2.788-.238 3.982-.7l.513 2.296c-1.401.616-3.052.924-4.953.924-2.289 0-4.093-.686-5.397-2.044-1.304-1.358-1.957-3.192-1.957-5.474 0-2.24.611-4.116 1.832-5.614 1.276-1.596 2.997-2.394 5.161-2.394 2.123 0 3.746.798 4.828 2.394.874 1.288 1.318 2.842 1.318 4.704Zm-3.135-.854c.028-.98-.194-1.834-.638-2.548-.569-.924-1.443-1.386-2.609-1.386-1.068 0-1.942.448-2.608 1.344-.541.714-.874 1.582-.971 2.576l6.826.014Z" fill="#000"/></g><defs><clipPath id="a"><path fill="#fff" d="M0 0h205v70H0z"/></clipPath></defs></svg>