<svg width="165" height="56" fill="none" xmlns="http://www.w3.org/2000/svg"><g clip-path="url(#a)"><path d="M6.73 0h151.54c3.697 0 6.701 3.013 6.701 6.72v42.56c0 3.707-3.004 6.72-6.701 6.72H6.73c-3.696 0-6.7-3.013-6.7-6.72V6.72C.03 3.013 3.034 0 6.73 0Z" fill="#E9E8E8"/><path d="M52.978 15.55c-.046.682-.167 1.167-.362 1.456h2.677v-4.67H53.14a34.3 34.3 0 0 0-.038.867c-.015.42-.033.835-.054 1.243-.02.404-.043.772-.07 1.104Zm-.992 3.116h-.554v-1.66h.346c.184-.06.318-.21.4-.45.087-.24.154-.594.2-1.063a55.04 55.04 0 0 0 .13-2.478c.021-.572.034-.992.04-1.259h3.399v5.25h.615v1.66h-.554l-.038-1.063h-3.946l-.038 1.063Zm8.847-1.578c.605 0 1.085-.221 1.439-.663.359-.441.538-1.02.538-1.733v-.066c0-.676-.18-1.24-.538-1.692-.36-.453-.844-.68-1.454-.68-.626 0-1.118.222-1.477.663-.359.436-.538 1.011-.538 1.726v.065c0 .698.192 1.27.577 1.717.39.442.874.663 1.453.663Zm0 .588c-.8 0-1.453-.283-1.961-.85-.508-.572-.762-1.276-.762-2.11v-.065c0-.845.252-1.551.754-2.118.508-.567 1.16-.85 1.954-.85.795 0 1.44.283 1.938.85.498.561.746 1.262.746 2.101v.066c0 .84-.248 1.546-.746 2.118-.497.572-1.138.858-1.923.858Zm7.004.001c-.795 0-1.423-.268-1.884-.802-.457-.534-.685-1.254-.685-2.159v-.065c0-.867.244-1.581.73-2.143a2.352 2.352 0 0 1 1.855-.842c.6 0 1.105.166 1.515.499.415.332.654.804.715 1.415h-.661c-.077-.453-.241-.79-.493-1.014-.246-.224-.602-.336-1.069-.336a1.67 1.67 0 0 0-1.377.663c-.348.436-.523 1.02-.523 1.75v.065c0 .747.167 1.333.5 1.758.339.42.803.63 1.393.63.456 0 .828-.12 1.115-.36.292-.245.474-.602.546-1.071h.623c-.092.66-.341 1.161-.746 1.505-.405.337-.923.506-1.554.506Zm5.298-5.34h-1.6v-.581h3.869v.58h-1.6v5.267h-.67v-5.266Zm4.41 5.331a.584.584 0 0 1-.23-.032l-.07-.033v-.646l.07.016c.071.011.148.017.23.017.22 0 .408-.06.562-.18.154-.12.292-.316.415-.59l-1.83-4.464h.7l1.469 3.647 1.492-3.647h.63l-1.853 4.465c-.19.469-.403.829-.639 1.08-.23.245-.546.367-.946.367Zm8.615-5.315h-2.816v5.25h-.669v-5.847h4.154v5.847h-.67v-5.25Zm3.02-.597h.67v2.65h2.892v-2.65h.669v5.847h-.67v-2.6H89.85v2.6h-.669v-5.847Zm8.996 5.332c.605 0 1.084-.221 1.438-.663.359-.441.538-1.02.538-1.733v-.066c0-.676-.179-1.24-.538-1.692-.359-.453-.844-.68-1.454-.68-.625 0-1.118.222-1.477.663-.359.436-.538 1.011-.538 1.726v.065c0 .698.192 1.27.577 1.717.39.442.874.663 1.454.663Zm0 .588c-.8 0-1.454-.283-1.962-.85-.507-.572-.761-1.276-.761-2.11v-.065c0-.845.251-1.551.754-2.118.507-.567 1.158-.85 1.953-.85.795 0 1.441.283 1.939.85.497.561.746 1.262.746 2.101v.066c0 .84-.249 1.546-.746 2.118-.498.572-1.139.858-1.923.858Zm7.662-5.92h1.654c1.179 0 1.769.504 1.769 1.513v.033c0 .621-.277 1.033-.831 1.234.395.098.677.26.847.483.169.223.253.529.253.916v.032c0 .54-.161.949-.484 1.227-.318.273-.759.409-1.323.409h-1.885v-5.847Zm1.869 5.29c.78 0 1.17-.362 1.17-1.087v-.032c0-.366-.1-.633-.3-.802-.2-.174-.521-.262-.962-.262h-1.123v2.184h1.215Zm-.215-2.739c.4 0 .685-.079.854-.237.174-.163.261-.428.261-.793v-.033c0-.327-.092-.564-.277-.711-.179-.147-.464-.221-.853-.221h-.985v1.995h1Z" fill="#303033"/><g fill-rule="evenodd" clip-rule="evenodd"><path d="M14.526 12.173c-.37.399-.582 1.013-.582 1.811v28.385c0 .798.212 1.412.596 1.797l.1.085 15.84-15.905v-.357L14.627 12.088l-.1.085Z" fill="url(#b)"/><path d="m35.75 33.67-5.283-5.308v-.37l5.285-5.307.114.07 6.251 3.567c1.79 1.014 1.79 2.682 0 3.71l-6.25 3.566c-.003 0-.117.071-.117.071Z" fill="url(#c)"/><path d="m35.864 33.598-5.397-5.421-15.941 16.005c.582.628 1.562.699 2.657.085l18.681-10.669Z" fill="url(#d)"/><path d="M35.864 22.757 17.184 12.1c-1.094-.628-2.076-.542-2.658.085l15.939 15.99 5.4-5.42Z" fill="url(#e)"/><path opacity=".2" d="M35.75 33.483 17.197 44.067c-1.037.599-1.961.557-2.557.014l-.1.1.1.086c.596.541 1.52.584 2.557-.014l18.681-10.655-.128-.115Z" fill="#000"/><path opacity=".12" d="m42.116 29.846-6.38 3.637.114.115 6.252-3.567c.895-.513 1.335-1.183 1.335-1.854-.057.614-.511 1.198-1.321 1.669Z" fill="#000"/><path opacity=".25" d="M17.183 12.288 42.116 26.51c.81.456 1.264 1.054 1.335 1.669 0-.67-.44-1.341-1.335-1.855L17.183 12.102c-1.79-1.027-3.24-.171-3.24 1.883v.185c0-2.054 1.45-2.895 3.24-1.882Z" fill="#fff"/></g><path d="M51.004 33.111c0-4.547 3.806-8.249 8.334-8.249 2.504 0 4.285.987 5.63 2.273l-1.583 1.589c-.96-.906-2.264-1.608-4.048-1.608-3.307 0-5.892 2.673-5.892 5.993 0 3.32 2.585 5.998 5.89 5.998 2.144 0 3.364-.864 4.147-1.652.64-.643 1.06-1.568 1.223-2.836h-5.367V32.37h7.554c.08.402.121.884.121 1.406 0 1.688-.461 3.782-1.945 5.272-1.445 1.51-3.286 2.315-5.731 2.315-4.53 0-8.337-3.699-8.337-8.25l.004-.003Zm22.115-2.373c-2.925 0-5.313 2.234-5.313 5.31 0 3.06 2.386 5.31 5.313 5.31 2.927 0 5.31-2.253 5.31-5.311 0-3.076-2.384-5.31-5.31-5.309Zm0 8.532c-1.601 0-2.985-1.327-2.985-3.22 0-1.912 1.382-3.22 2.985-3.22 1.602 0 2.984 1.306 2.984 3.22 0 1.89-1.38 3.22-2.984 3.22Zm11.585-8.532c-2.925 0-5.31 2.234-5.31 5.31 0 3.06 2.385 5.31 5.31 5.31s5.31-2.253 5.31-5.311c0-3.076-2.383-5.31-5.31-5.309Zm0 8.532c-1.601 0-2.985-1.327-2.985-3.22 0-1.912 1.382-3.22 2.985-3.22 1.602 0 2.986 1.306 2.986 3.22 0 1.89-1.384 3.22-2.986 3.22Zm14.219-8.21v.865h-.08c-.52-.627-1.522-1.189-2.784-1.189-2.645 0-5.072 2.335-5.072 5.335 0 2.975 2.425 5.29 5.073 5.29 1.26 0 2.263-.561 2.783-1.205h.08v.764c0 2.03-1.082 3.119-2.826 3.119-1.423 0-2.304-1.027-2.665-1.89l-2.026.845c.581 1.407 2.126 3.139 4.69 3.139 2.723 0 5.028-1.612 5.028-5.534v-9.54l-2.201.002Zm-2.665 8.21c-1.602 0-2.947-1.35-2.947-3.2 0-1.87 1.344-3.238 2.947-3.238 1.583 0 2.825 1.367 2.825 3.239.002 1.85-1.24 3.199-2.825 3.199Zm6.471-13.844h2.325V41.04h-2.325V25.426Zm8.699 13.844c-1.181 0-2.025-.545-2.562-1.608l7.074-2.94-.244-.605c-.439-1.184-1.783-3.379-4.529-3.379-2.724 0-4.989 2.153-4.989 5.312 0 2.975 2.244 5.31 5.25 5.31 2.426 0 3.829-1.487 4.41-2.354l-1.804-1.206c-.603.887-1.426 1.472-2.606 1.47Zm-.181-6.48c.921 0 1.702.464 1.963 1.126l-4.731 1.973c-.059-2.053 1.584-3.099 2.768-3.099Zm14.897-7.364h-5.56v15.613h2.32v-5.914h3.242c2.572 0 5.102-1.87 5.102-4.85 0-2.976-2.528-4.848-5.099-4.848l-.005-.001Zm.061 7.525h-3.301v-5.353h3.301c1.734 0 2.723 1.445 2.723 2.677 0 1.21-.989 2.676-2.723 2.676Zm8.642 8.088V25.426h-2.32v15.613h2.32Zm10.424-.028v-5.985c0-2.772-2.063-4.318-4.726-4.318-1.677 0-3.417.744-4.138 2.39l2.06.863c.44-.862 1.259-1.145 2.122-1.145 1.199 0 2.418.723 2.437 2.01v.162c-.419-.241-1.318-.604-2.42-.604-2.22 0-4.48 1.225-4.48 3.515 0 2.09 1.821 3.435 3.861 3.435 1.562 0 2.421-.703 2.96-1.525h.079v1.206h2.243l.002-.004Zm-5.002-1.745c-.76 0-1.821-.382-1.821-1.324 0-1.205 1.322-1.67 2.462-1.67 1.021 0 1.5.22 2.122.522a2.824 2.824 0 0 1-2.763 2.472Zm13.162-8.216-2.66 6.767h-.08l-2.761-6.767h-2.5l4.14 9.461-2.362 5.262h2.42l6.381-14.723h-2.578Z" fill-rule="evenodd" clip-rule="evenodd" fill="#808285"/></g><defs><linearGradient id="b" x1="29.058" y1="13.679" x2="3.671" y2="20.416" gradientUnits="userSpaceOnUse"><stop stop-color="#00A0FF"/><stop offset=".007" stop-color="#00A1FF"/><stop offset=".26" stop-color="#00BEFF"/><stop offset=".512" stop-color="#00D2FF"/><stop offset=".76" stop-color="#00DFFF"/><stop offset="1" stop-color="#00E3FF"/></linearGradient><linearGradient id="c" x1="44.447" y1="28.178" x2="13.509" y2="28.178" gradientUnits="userSpaceOnUse"><stop stop-color="#FFE000"/><stop offset=".409" stop-color="#FFBD00"/><stop offset=".775" stop-color="orange"/><stop offset="1" stop-color="#FF9C00"/></linearGradient><linearGradient id="d" x1="32.929" y1="31.126" x2="12.437" y2="65.476" gradientUnits="userSpaceOnUse"><stop stop-color="#FF3A44"/><stop offset="1" stop-color="#C31162"/></linearGradient><linearGradient id="e" x1="10.513" y1="2.731" x2="19.655" y2="18.072" gradientUnits="userSpaceOnUse"><stop stop-color="#32A071"/><stop offset=".069" stop-color="#2DA771"/><stop offset=".476" stop-color="#15CF74"/><stop offset=".801" stop-color="#06E775"/><stop offset="1" stop-color="#00F076"/></linearGradient><clipPath id="a"><path fill="#fff" d="M0 0h165v56H0z"/></clipPath></defs></svg>