<svg width="205" height="70" fill="none" xmlns="http://www.w3.org/2000/svg"><g clip-path="url(#a)"><path d="M8.361 0h188.276c4.592 0 8.324 3.766 8.324 8.4v53.2c0 4.634-3.732 8.4-8.324 8.4H8.361C3.77 70 .036 66.234.036 61.6V8.4C.036 3.766 3.77 0 8.361 0Z" fill="#F2F2F2"/><path d="M65.82 19.438c-.057.852-.207 1.459-.449 1.82h3.326V15.42H66.02c-.013.191-.029.552-.048 1.084-.019.524-.041 1.042-.067 1.553-.025.505-.054.965-.086 1.38Zm-1.232 3.895H63.9v-2.075h.43c.229-.075.395-.262.496-.562.109-.3.192-.743.249-1.33.076-1.014.13-2.047.162-3.096.026-.716.042-1.24.048-1.575h4.224v6.563h.765v2.075h-.688l-.048-1.329h-4.903l-.047 1.329ZM75.58 21.36c.752 0 1.348-.276 1.787-.828.446-.552.67-1.274.67-2.167v-.082c0-.845-.224-1.55-.67-2.116-.446-.565-1.048-.848-1.806-.848-.777 0-1.389.276-1.835.828-.446.545-.669 1.264-.669 2.157v.082c0 .872.24 1.587.717 2.146.484.552 1.086.828 1.806.828Zm0 .736c-.994 0-1.806-.354-2.437-1.063-.63-.716-.946-1.595-.946-2.637v-.082c0-1.056.312-1.939.937-2.648.63-.708 1.44-1.063 2.427-1.063.988 0 1.79.355 2.408 1.063.618.702.927 1.578.927 2.628v.081c0 1.05-.309 1.932-.927 2.648-.618.715-1.414 1.073-2.389 1.073Zm8.702 0c-.988 0-1.768-.334-2.341-1.002-.567-.667-.851-1.567-.851-2.698v-.082c0-1.084.303-1.976.908-2.678s1.373-1.053 2.303-1.053c.745 0 1.373.208 1.883.623.516.416.812 1.006.888 1.769h-.821c-.096-.566-.3-.988-.612-1.268-.306-.279-.749-.419-1.328-.419-.708 0-1.278.276-1.711.828-.433.546-.65 1.275-.65 2.188v.082c0 .933.207 1.666.621 2.197.42.525.997.787 1.73.787.567 0 1.029-.15 1.386-.45.363-.306.589-.752.678-1.339h.774c-.114.825-.423 1.452-.927 1.881-.503.423-1.147.634-1.93.634Zm6.582-6.675h-1.988v-.726h4.807v.726h-1.988v6.583h-.831v-6.583Zm5.48 6.665a.721.721 0 0 1-.287-.041l-.086-.04v-.808l.086.02c.09.014.185.02.287.02.274 0 .506-.074.697-.224.191-.15.363-.396.516-.736l-2.274-5.582h.87l1.825 4.56 1.854-4.56h.783l-2.303 5.582c-.236.586-.5 1.035-.793 1.349-.287.307-.678.46-1.175.46Zm10.702-6.644h-3.498v6.562h-.831v-7.309h5.16v7.31h-.831v-6.563Zm3.753-.747h.831v3.312h3.594v-3.312h.831v7.31h-.831v-3.251h-3.594v3.25h-.831v-7.309Zm11.176 6.665c.752 0 1.348-.276 1.787-.828.446-.552.669-1.274.669-2.167v-.082c0-.845-.223-1.55-.669-2.116-.446-.565-1.048-.848-1.806-.848-.777 0-1.389.276-1.835.828-.446.545-.669 1.264-.669 2.157v.082c0 .872.239 1.587.717 2.146.484.552 1.086.828 1.806.828Zm0 .736c-.994 0-1.806-.354-2.437-1.063-.63-.716-.946-1.595-.946-2.637v-.082c0-1.056.312-1.939.937-2.648.63-.708 1.44-1.063 2.427-1.063.988 0 1.79.355 2.408 1.063.618.702.927 1.578.927 2.628v.081c0 1.05-.309 1.932-.927 2.648-.618.715-1.414 1.073-2.389 1.073Zm9.52-7.401h2.055c1.465 0 2.198.63 2.198 1.892v.04c0 .777-.344 1.292-1.032 1.544.491.123.841.324 1.051.603.21.28.316.661.316 1.145v.04c0 .675-.201 1.186-.602 1.534-.395.34-.943.511-1.644.511h-2.342v-7.309Zm2.323 6.614c.968 0 1.452-.453 1.452-1.36v-.04c0-.457-.124-.79-.372-1.002-.249-.218-.647-.327-1.195-.327h-1.395v2.73h1.51Zm-.268-3.424c.497 0 .851-.1 1.061-.297.216-.204.325-.535.325-.991v-.041c0-.409-.115-.706-.344-.89-.223-.184-.577-.276-1.061-.276h-1.223v2.495h1.242Z" fill="#303033"/><path fill-rule="evenodd" clip-rule="evenodd" d="M18.047 15.216c-.46.498-.724 1.266-.724 2.264v35.48c0 .998.264 1.765.74 2.247l.125.106 19.681-19.88v-.447L18.171 15.109l-.124.107Z" fill="url(#b)"/><path fill-rule="evenodd" clip-rule="evenodd" d="m44.416 42.087-6.564-6.634v-.464l6.566-6.633.142.089 7.767 4.458c2.224 1.267 2.224 3.353 0 4.636l-7.767 4.459c-.002 0-.144.089-.144.089Z" fill="url(#c)"/><path fill-rule="evenodd" clip-rule="evenodd" d="m44.558 41.998-6.706-6.777-19.805 20.007c.723.785 1.94.873 3.301.106l23.21-13.336Z" fill="url(#d)"/><path fill-rule="evenodd" clip-rule="evenodd" d="m44.558 28.445-23.21-13.318c-1.359-.785-2.578-.68-3.301.106L37.85 35.22l6.708-6.774Z" fill="url(#e)"/><path opacity=".2" fill-rule="evenodd" clip-rule="evenodd" d="m44.416 41.853-23.05 13.23c-1.289.749-2.437.697-3.178.018l-.124.126.124.106c.74.676 1.89.73 3.177-.017l23.21-13.32-.159-.143Z" fill="#000"/><path opacity=".12" fill-rule="evenodd" clip-rule="evenodd" d="m52.325 37.307-7.926 4.548.142.143 7.767-4.459c1.112-.642 1.659-1.479 1.659-2.318-.07.768-.635 1.499-1.642 2.086Z" fill="#000"/><path opacity=".25" fill-rule="evenodd" clip-rule="evenodd" d="m21.348 15.36 30.977 17.777c1.006.57 1.571 1.318 1.66 2.086 0-.837-.548-1.676-1.66-2.318L21.348 15.128c-2.224-1.284-4.025-.215-4.025 2.352v.232c0-2.567 1.801-3.619 4.025-2.352Z" fill="#fff"/><path fill-rule="evenodd" clip-rule="evenodd" d="M63.367 41.39c0-5.684 4.729-10.312 10.355-10.312 3.11 0 5.324 1.234 6.994 2.84l-1.966 1.987c-1.194-1.132-2.812-2.01-5.03-2.01-4.109 0-7.32 3.342-7.32 7.492s3.211 7.497 7.318 7.497c2.664 0 4.18-1.08 5.152-2.065.796-.804 1.318-1.96 1.52-3.545h-6.668v-2.81h9.385c.1.502.15 1.105.15 1.758 0 2.11-.573 4.727-2.416 6.59-1.795 1.887-4.083 2.893-7.121 2.893-5.629 0-10.358-4.623-10.358-10.311l.005-.005Zm27.477-2.967c-3.634 0-6.601 2.793-6.601 6.637 0 3.826 2.965 6.638 6.601 6.638 3.637 0 6.597-2.817 6.597-6.64 0-3.844-2.963-6.637-6.597-6.635Zm0 10.664c-1.99 0-3.71-1.659-3.71-4.024 0-2.39 1.718-4.025 3.71-4.025 1.99 0 3.707 1.633 3.707 4.025 0 2.363-1.715 4.024-3.707 4.024Zm14.393-10.664c-3.634 0-6.596 2.793-6.596 6.637 0 3.826 2.962 6.638 6.596 6.638 3.635 0 6.597-2.817 6.597-6.64 0-3.844-2.96-6.637-6.597-6.635Zm0 10.664c-1.99 0-3.709-1.659-3.709-4.024 0-2.39 1.717-4.025 3.709-4.025 1.99 0 3.71 1.633 3.71 4.025 0 2.363-1.72 4.024-3.71 4.024Zm17.665-10.26v1.079h-.098c-.646-.783-1.892-1.485-3.459-1.485-3.286 0-6.302 2.918-6.302 6.668 0 3.719 3.014 6.614 6.302 6.614 1.567 0 2.813-.703 3.459-1.508h.098v.955c0 2.539-1.343 3.899-3.509 3.899-1.769 0-2.864-1.284-3.313-2.362l-2.516 1.056c.722 1.759 2.641 3.923 5.826 3.923 3.384 0 6.247-2.015 6.247-6.917V38.823l-2.735.002Zm-3.31 10.26c-1.99 0-3.662-1.687-3.662-3.998 0-2.338 1.67-4.049 3.662-4.049 1.967 0 3.51 1.709 3.51 4.049.002 2.311-1.541 3.998-3.51 3.998Zm8.04-17.304h2.889v19.516h-2.889V31.783Zm10.808 17.304c-1.468 0-2.516-.68-3.184-2.01l8.789-3.675-.303-.755c-.545-1.481-2.215-4.224-5.626-4.224-3.385 0-6.2 2.69-6.2 6.64 0 3.719 2.789 6.637 6.524 6.637 3.014 0 4.757-1.858 5.478-2.942l-2.241-1.507c-.749 1.108-1.771 1.839-3.237 1.836Zm-.225-8.099c1.144 0 2.114.58 2.438 1.407l-5.877 2.466c-.073-2.565 1.968-3.873 3.439-3.873Zm18.508-9.206h-6.908V51.3h2.883v-7.393h4.028c3.196 0 6.339-2.337 6.339-6.063 0-3.719-3.141-6.059-6.335-6.059l-.007-.002Zm.076 9.407h-4.101v-6.692h4.101c2.155 0 3.383 1.806 3.383 3.346 0 1.514-1.228 3.346-3.383 3.346Zm10.737 10.11V31.782h-2.883V51.3h2.883Zm12.951-.035v-7.481c0-3.466-2.563-5.398-5.871-5.398-2.084 0-4.246.93-5.141 2.988l2.559 1.078c.547-1.078 1.564-1.431 2.636-1.431 1.489 0 3.005.904 3.029 2.513v.202c-.522-.301-1.638-.755-3.008-.755-2.758 0-5.566 1.531-5.566 4.394 0 2.613 2.262 4.293 4.798 4.293 1.94 0 3.007-.878 3.677-1.906h.099v1.507h2.786l.002-.004Zm-6.215-2.182c-.944 0-2.262-.477-2.262-1.654 0-1.507 1.642-2.088 3.059-2.088 1.269 0 1.863.275 2.636.652a3.516 3.516 0 0 1-3.433 3.09Zm16.354-10.27-3.306 8.46h-.099l-3.43-8.46h-3.106l5.143 11.827-2.934 6.577h3.007l7.928-18.404h-3.203Z" fill="#808285"/></g><defs><linearGradient id="b" x1="36.102" y1="17.098" x2="4.535" y2="25.425" gradientUnits="userSpaceOnUse"><stop stop-color="#00A0FF"/><stop offset=".007" stop-color="#00A1FF"/><stop offset=".26" stop-color="#00BEFF"/><stop offset=".512" stop-color="#00D2FF"/><stop offset=".76" stop-color="#00DFFF"/><stop offset="1" stop-color="#00E3FF"/></linearGradient><linearGradient id="c" x1="55.221" y1="35.222" x2="16.782" y2="35.222" gradientUnits="userSpaceOnUse"><stop stop-color="#FFE000"/><stop offset=".409" stop-color="#FFBD00"/><stop offset=".775" stop-color="orange"/><stop offset="1" stop-color="#FF9C00"/></linearGradient><linearGradient id="d" x1="40.911" y1="38.908" x2="15.223" y2="81.708" gradientUnits="userSpaceOnUse"><stop stop-color="#FF3A44"/><stop offset="1" stop-color="#C31162"/></linearGradient><linearGradient id="e" x1="13.061" y1="3.413" x2="24.522" y2="22.529" gradientUnits="userSpaceOnUse"><stop stop-color="#32A071"/><stop offset=".069" stop-color="#2DA771"/><stop offset=".476" stop-color="#15CF74"/><stop offset=".801" stop-color="#06E775"/><stop offset="1" stop-color="#00F076"/></linearGradient><clipPath id="a"><path fill="#fff" d="M0 0h205v70H0z"/></clipPath></defs></svg>