<svg width="102" height="620" fill="none" xmlns="http://www.w3.org/2000/svg"><path d="M51.185-9.514c-3.776 0-7.27.603-10.48 1.808-3.212 1.241-5.664 2.996-7.358 5.265-1.694 2.305-2.54 4.68-2.54 7.126 0 2.482.846 4.857 2.54 7.127 1.694 2.304 4.146 4.059 7.358 5.264 3.21 1.241 6.705 1.862 10.48 1.862 3.811 0 7.305-.62 10.48-1.862 3.212-1.205 5.664-2.942 7.358-5.211a15.94 15.94 0 0 0 1.165-1.862c3.564 0 5.346 5.637 5.346 16.912h-3.97v-9.68c-1.976 2.873-4.605 5.142-7.887 6.808-3.846 1.915-8.01 2.872-12.492 2.872-4.481 0-8.645-.957-12.492-2.872-3.81-1.914-6.74-4.662-8.786-8.243-2.047-3.545-3.07-7.25-3.07-11.115 0-3.829 1.023-7.534 3.07-11.114 2.046-3.546 4.975-6.276 8.786-8.19 3.847-1.915 8.01-2.872 12.492-2.872H86.12c3.53 0 5.911-.177 7.146-.532 1.235-.354 1.853-1.24 1.853-2.659 0-1.418-.318-2.96-.953-4.627L96.177-26 102-12.173v2.659H51.185Zm23.82 63.628c0 3.829-1.024 7.516-3.07 11.061-2.047 3.581-4.994 6.329-8.84 8.243-3.811 1.915-7.781 2.872-11.91 2.872-4.481 0-8.645-.957-12.492-2.872-3.81-1.914-6.74-4.662-8.786-8.243-2.047-3.545-3.07-7.232-3.07-11.061 0-3.865.935-7.499 2.805-10.902 1.87-3.369 4.71-5.833 8.522-7.393a6.704 6.704 0 0 1 1.8-.266c1.976 0 3.123 1.064 3.44 3.191.106.497.16.94.16 1.33 0 1.418-.46 2.375-1.377 2.872-.847.496-1.712.744-2.594.744-.282 0-.582-.035-.9-.106a7.22 7.22 0 0 0-.9-.053c-.882 0-1.782.212-2.699.638-1.235.638-2.258 1.826-3.07 3.563-.812 1.773-1.218 3.9-1.218 6.382 0 2.446.847 4.804 2.541 7.073 1.694 2.304 4.129 4.06 7.305 5.264 3.211 1.241 6.722 1.862 10.533 1.862 3.423 0 6.74-.62 9.951-1.862 3.212-1.205 5.664-2.96 7.358-5.264 1.694-2.27 2.54-4.627 2.54-7.073 0-4.22 1.324-8.03 3.97-11.434 2.683-3.404 6.053-5.69 10.11-6.86l1.165 1.648a68.33 68.33 0 0 1-1.376.479c-2.858 1.24-5.223 3.35-7.093 6.328-1.87 3.014-2.805 6.293-2.805 9.839Zm-56.902 75.167c-3.247 0-6.264-.957-9.052-2.871-2.787-1.915-4.922-4.663-6.404-8.243A27.967 27.967 0 0 1 .37 107.052c0-3.829.758-7.534 2.276-11.115 1.482-3.545 3.617-6.275 6.404-8.19 2.788-1.914 5.805-2.872 9.052-2.872 3.282 0 6.316.958 9.104 2.872 2.788 1.915 4.923 4.662 6.405 8.243.282.71.547 1.418.794 2.127H29.06a11.543 11.543 0 0 0-3.864-3.403c-2.153-1.241-4.517-1.861-7.093-1.861-2.541 0-4.888.602-7.04 1.808-2.188 1.24-3.847 2.995-4.976 5.265-1.164 2.304-1.747 4.679-1.747 7.126 0 2.482.583 4.857 1.747 7.126 1.13 2.305 2.788 4.059 4.976 5.265 2.152 1.241 4.499 1.861 7.04 1.861h43.669c1.976 0 3.705-.62 5.187-1.861 1.482-1.206 2.611-2.783 3.388-4.733.811-1.915 1.217-4.095 1.217-6.541 0-2.482-.406-4.787-1.217-6.914-.812-2.092-1.835-3.439-3.07-4.042-.918-.46-1.818-.691-2.7-.691-.317 0-.617.035-.9.106a8.142 8.142 0 0 1-.9.054c-.882 0-1.746-.23-2.593-.692-.918-.532-1.377-1.507-1.377-2.925 0-.39.053-.815.16-1.276.317-2.163 1.464-3.244 3.44-3.244a6.72 6.72 0 0 1 1.8.266c3.81 1.56 6.651 4.201 8.522 7.924 1.87 3.758 2.805 7.569 2.805 11.434 0 3.829-.565 7.356-1.694 10.583-.317.886-.67 1.737-1.059 2.552h13.34c3.528 0 5.91-.177 7.145-.532 1.235-.354 1.853-1.24 1.853-2.659 0-1.418-.318-2.96-.953-4.626l2.011-.692L102 126.622v2.659H18.103Zm56.902 27.199c0 3.829-1.024 7.516-3.07 11.062-2.047 3.581-4.994 6.328-8.84 8.243-3.811 1.914-7.781 2.871-11.91 2.871-4.481 0-8.645-.957-12.492-2.871-3.81-1.915-6.74-4.662-8.786-8.243-2.047-3.546-3.07-7.233-3.07-11.062 0-3.864.935-7.498 2.805-10.902 1.87-3.368 4.71-5.832 8.522-7.392a6.716 6.716 0 0 1 1.8-.266c1.976 0 3.123 1.064 3.44 3.191.106.496.16.939.16 1.329 0 1.419-.46 2.376-1.377 2.872-.847.496-1.712.745-2.594.745a4.14 4.14 0 0 1-.9-.107 7.318 7.318 0 0 0-.9-.053c-.882 0-1.782.213-2.7.638-1.234.638-2.258 1.826-3.07 3.563-.81 1.773-1.217 3.9-1.217 6.382 0 2.446.847 4.804 2.541 7.073 1.694 2.305 4.129 4.06 7.305 5.265 3.211 1.241 6.722 1.861 10.533 1.861 3.423 0 6.74-.62 9.951-1.861 3.212-1.205 5.664-2.96 7.358-5.265 1.694-2.269 2.54-4.627 2.54-7.073 0-4.219 1.324-8.03 3.97-11.434 2.683-3.403 6.053-5.69 10.11-6.86l1.165 1.649a71.36 71.36 0 0 1-1.376.478c-2.858 1.241-5.223 3.351-7.093 6.329-1.87 3.013-2.805 6.293-2.805 9.838Zm-10.11 34.963c3.034 1.773 5.452 4.077 7.251 6.914 2.259 3.545 3.388 7.232 3.388 11.061 0 3.865-1.13 7.587-3.388 11.168-1.87 2.908-4.393 5.265-7.569 7.073 3.176 1.808 5.7 4.184 7.57 7.127 2.258 3.545 3.387 7.232 3.387 11.061 0 3.865-1.147 7.57-3.44 11.115-2.259 3.581-5.505 6.328-9.74 8.243-4.235 1.914-8.84 2.872-13.815 2.872-4.976 0-9.581-.958-13.816-2.872-2.928-1.312-5.381-3.014-7.357-5.105v-8.456c.282.461.617.922 1.006 1.383 1.905 2.269 4.675 4.006 8.31 5.211 3.635 1.241 7.587 1.862 11.857 1.862 4.305 0 8.257-.621 11.856-1.862 3.635-1.205 6.405-2.96 8.31-5.265 1.906-2.269 2.86-4.644 2.86-7.126 0-2.446-.954-4.822-2.86-7.126-1.905-2.269-4.675-4.024-8.31-5.265-3.599-1.205-7.551-1.808-11.856-1.808v-7.977c4.305 0 8.257-.621 11.856-1.862 3.635-1.205 6.405-2.96 8.31-5.264 1.906-2.269 2.86-4.645 2.86-7.127 0-2.446-.954-4.821-2.86-7.126-1.905-2.269-4.675-4.024-8.31-5.265-3.599-1.205-7.551-1.808-11.856-1.808-3.67 0-7.11.443-10.322 1.33a5.87 5.87 0 0 1 .265 1.755 6.098 6.098 0 0 1-.742 2.924 4.969 4.969 0 0 1-2.17 2.181 6.033 6.033 0 0 1-2.91.744 6.34 6.34 0 0 1-2.965-.744c-.918-.496-1.623-1.223-2.117-2.181a6.099 6.099 0 0 1-.741-2.924 6.1 6.1 0 0 1 .74-2.925 5.235 5.235 0 0 1 1.218-1.543c1.235-1.276 3.211-2.517 5.928-3.722 4.235-1.915 8.84-2.872 13.816-2.872 1.094 0 4.605.018 10.533.053 5.964.036 11.963 1.081 17.997 3.138 6.07 2.056 10.604 4.219 13.603 6.488 3 2.269 5.188 4.892 6.564 7.871 1.376 2.978 2.1 8.243 2.17 15.794.07 5.425.23 8.704.477 9.839.247 1.134.952 2.216 2.117 3.244v2.074c-3.458-1.17-5.928-2.588-7.41-4.255-1.483-1.666-2.312-3.456-2.488-5.371-.141-1.914-.283-5.336-.424-10.264-.14-5.318-.723-9.005-1.746-11.061-.989-2.021-2.753-4.131-5.294-6.329-2.505-2.198-5.805-3.9-9.898-5.105-3.07-.922-6.352-1.56-9.845-1.915Zm6.669 107.396c0-2.447-.847-4.822-2.54-7.127-1.695-2.269-4.147-4.024-7.358-5.265-3.176-1.205-6.67-1.808-10.48-1.808-3.777 0-7.27.603-10.481 1.808-3.212 1.241-5.664 2.996-7.358 5.265-1.694 2.305-2.54 4.68-2.54 7.127 0 2.481.846 4.857 2.54 7.126 1.694 2.304 4.146 4.059 7.358 5.265 3.21 1.241 6.704 1.861 10.48 1.861 3.811 0 7.305-.62 10.48-1.861 3.212-1.206 5.664-2.961 7.358-5.265 1.694-2.269 2.541-4.645 2.541-7.126ZM48.54 320.962c-3.494-.319-6.758-1.241-9.793-2.766-3.846-1.914-6.793-4.662-8.84-8.243-2.046-3.545-3.07-7.25-3.07-11.114 0-3.829 1.024-7.534 3.07-11.115 2.047-3.546 4.976-6.276 8.787-8.19 3.847-1.915 8.01-2.872 12.492-2.872 4.482 0 8.628.957 12.44 2.872 3.846 1.914 6.792 4.644 8.839 8.19 2.047 3.581 3.07 7.286 3.07 11.115 0 3.864-1.023 7.587-3.07 11.168-1.764 3.084-4.217 5.548-7.358 7.392 2.93 1.772 5.276 4.041 7.04 6.807 2.259 3.545 3.388 7.232 3.388 11.061 0 3.865-1.147 7.57-3.44 11.115-2.259 3.581-5.505 6.329-9.74 8.243-4.235 1.915-8.84 2.872-13.815 2.872-4.976 0-9.581-.957-13.816-2.872-2.928-1.312-5.381-3.013-7.357-5.105v-8.456c.282.461.617.922 1.006 1.383 1.905 2.269 4.675 4.006 8.31 5.211 3.635 1.241 7.587 1.862 11.857 1.862 4.305 0 8.257-.621 11.856-1.862 3.635-1.205 6.405-2.96 8.31-5.264 1.906-2.269 2.86-4.645 2.86-7.127 0-2.446-.954-4.821-2.86-7.126-1.905-2.269-4.675-4.024-8.31-5.265-3.599-1.205-7.551-1.808-11.856-1.808v-.106Zm-30.437 89.526c-3.247 0-6.264-.957-9.052-2.871-2.787-1.915-4.922-4.663-6.404-8.243A27.967 27.967 0 0 1 .37 388.259c0-3.829.758-7.534 2.276-11.115 1.482-3.545 3.617-6.275 6.404-8.19 2.788-1.914 5.805-2.872 9.052-2.872 3.282 0 6.316.958 9.104 2.872 2.788 1.915 4.923 4.662 6.405 8.243.282.709.547 1.418.794 2.127H29.06a11.544 11.544 0 0 0-3.864-3.403c-2.153-1.241-4.517-1.862-7.093-1.862-2.541 0-4.888.603-7.04 1.809-2.188 1.241-3.847 2.995-4.976 5.265-1.164 2.304-1.747 4.679-1.747 7.126 0 2.482.583 4.857 1.747 7.126 1.13 2.304 2.788 4.059 4.976 5.265 2.152 1.241 4.499 1.861 7.04 1.861h8.469a23.94 23.94 0 0 0 7.94-1.329c2.576-.851 4.534-2.252 5.875-4.202 1.376-1.914 2.065-6.133 2.065-12.657h2.752c0 4.255.882 7.818 2.646 10.69 1.8 2.907 3.917 4.875 6.352 5.903a18.73 18.73 0 0 0 7.57 1.595c1.976 0 3.705-.62 5.187-1.861 1.482-1.206 2.611-2.783 3.388-4.733.811-1.915 1.217-4.095 1.217-6.541 0-2.482-.406-4.787-1.217-6.914-.812-2.092-1.835-3.439-3.07-4.042-.918-.461-1.818-.691-2.7-.691-.317 0-.617.035-.9.106a8.007 8.007 0 0 1-.9.054c-.882 0-1.746-.231-2.593-.692-.918-.532-1.377-1.507-1.377-2.925 0-.39.053-.815.16-1.276.317-2.163 1.464-3.244 3.44-3.244a6.68 6.68 0 0 1 1.8.266c3.81 1.56 6.651 4.201 8.522 7.924 1.87 3.758 2.805 7.569 2.805 11.434 0 3.829-.565 7.339-1.694 10.529-1.13 3.227-2.77 5.797-4.922 7.712-2.118 1.914-4.5 2.871-7.146 2.871-3.317 0-6.511-.868-9.581-2.606-3.035-1.737-5.364-4.201-6.987-7.392a12.057 12.057 0 0 1-.476-.957c-.248.674-.53 1.347-.847 2.021-1.73 2.836-4.182 5.034-7.358 6.594-3.176 1.56-6.493 2.34-9.951 2.34h-8.47Zm0 53.045c-3.247 0-6.264-.957-9.052-2.872-2.787-1.914-4.922-4.662-6.404-8.243A27.96 27.96 0 0 1 .37 441.303c0-3.829.758-7.534 2.276-11.114 1.482-3.546 3.617-6.276 6.404-8.19 2.788-1.915 5.805-2.872 9.052-2.872 3.281 0 6.316.957 9.104 2.872 2.788 1.914 4.923 4.662 6.405 8.243.282.709.547 1.418.794 2.127H29.06a11.547 11.547 0 0 0-3.864-3.404c-2.153-1.24-4.517-1.861-7.093-1.861-2.541 0-4.888.603-7.04 1.808-2.188 1.241-3.847 2.996-4.976 5.265-1.164 2.305-1.747 4.68-1.747 7.126 0 2.482.583 4.858 1.747 7.127 1.13 2.304 2.788 4.059 4.976 5.264 2.152 1.241 4.499 1.862 7.04 1.862h43.669c1.976 0 3.705-.621 5.187-1.862 1.482-1.205 2.611-2.783 3.388-4.733.811-1.914 1.217-4.095 1.217-6.541 0-2.482-.406-4.786-1.217-6.913-.812-2.092-1.835-3.439-3.07-4.042-.918-.461-1.818-.691-2.7-.691-.317 0-.617.035-.9.106a8.239 8.239 0 0 1-.9.053c-.882 0-1.746-.23-2.593-.691-.918-.532-1.377-1.507-1.377-2.925 0-.39.053-.816.16-1.277.317-2.162 1.464-3.244 3.44-3.244a6.72 6.72 0 0 1 1.8.266c3.81 1.56 6.651 4.202 8.522 7.924 1.87 3.758 2.805 7.57 2.805 11.434 0 3.829-.565 7.339-1.694 10.53-1.13 3.226-2.77 5.797-4.922 7.711-2.118 1.915-4.5 2.872-7.146 2.872h-43.67Zm48.432 64.212c2.259 1.206 4.13 2.695 5.611 4.468 2.259 2.694 3.388 5.495 3.388 8.402 0 2.943-1.147 5.761-3.44 8.456-2.259 2.73-5.505 4.822-9.74 6.275-4.235 1.454-8.84 2.181-13.815 2.181-4.976 0-9.581-.727-13.816-2.181-2.928-.992-5.381-2.287-7.357-3.882v-7.179c.282.283.617.567 1.006.851 1.905 1.418 4.675 2.499 8.31 3.244 3.635.78 7.587 1.17 11.857 1.17 4.305 0 8.257-.39 11.856-1.17 3.635-.745 6.405-1.844 8.31-3.298 1.906-1.418 2.86-2.907 2.86-4.467 0-1.524-.954-3.013-2.86-4.467-1.905-1.418-4.675-2.517-8.31-3.297-3.599-.745-7.551-1.117-11.856-1.117v-7.977c4.305 0 8.257-.39 11.856-1.17 3.635-.745 6.405-1.844 8.31-3.297 1.906-1.418 2.86-2.907 2.86-4.467 0-1.525-.954-3.014-2.86-4.468-1.905-1.418-4.675-2.517-8.31-3.297-3.599-.744-7.551-1.117-11.856-1.117v-7.977c4.305 0 8.257-.39 11.856-1.17 3.635-.744 6.405-1.843 8.31-3.297 1.906-1.418 2.86-2.907 2.86-4.467 0-1.525-.954-3.014-2.86-4.467-1.905-1.418-4.675-2.518-8.31-3.298-3.599-.744-7.551-1.116-11.856-1.116-5.54 0-9.916.815-13.128 2.446-3.21 1.666-6.228 4.538-9.05 8.615-2.86 4.113-4.288 7.516-4.288 10.211 0 11.842-1.394 23.24-4.182 34.195-2.329 9.005-5.487 16.309-9.475 21.911H0a30.172 30.172 0 0 0 3.811-3.617c4.623-5.176 8.17-12.603 10.64-22.282 2.434-9.679 3.652-19.748 3.652-30.207 0-10.14-1.147-19.89-3.44-29.249h4.392a128.178 128.178 0 0 1 2.541 17.39c.424-.745.865-1.507 1.324-2.287 3.175-5.389 6.669-9.254 10.48-11.593 3.846-2.34 8.893-3.51 15.139-3.51 4.975 0 9.58.726 13.815 2.18 4.234 1.454 7.481 3.528 9.74 6.222 2.293 2.73 3.44 5.549 3.44 8.456 0 2.943-1.13 5.779-3.388 8.509-1.482 1.737-3.352 3.208-5.61 4.414 2.258 1.205 4.128 2.694 5.61 4.467 2.259 2.694 3.388 5.495 3.388 8.403 0 2.942-1.13 5.779-3.388 8.508-1.482 1.738-3.352 3.209-5.61 4.414Zm-17.996 74.849c4.305 0 8.257-.62 11.856-1.861 3.635-1.206 6.405-2.961 8.31-5.265 1.906-2.269 2.86-4.645 2.86-7.126 0-2.447-.954-4.822-2.86-7.126-1.905-2.27-4.675-4.025-8.31-5.265-3.599-1.206-7.551-1.809-11.856-1.809-3.67 0-7.11.444-10.322 1.33a5.87 5.87 0 0 1 .265 1.755 6.104 6.104 0 0 1-.742 2.925 4.971 4.971 0 0 1-2.17 2.18 6.024 6.024 0 0 1-2.91.745 6.33 6.33 0 0 1-2.965-.745c-.918-.496-1.623-1.223-2.117-2.18a6.106 6.106 0 0 1-.741-2.925c0-1.028.247-2.003.74-2.925a5.218 5.218 0 0 1 1.218-1.542c1.235-1.277 3.211-2.518 5.928-3.723 4.235-1.914 8.84-2.872 13.816-2.872 4.975 0 9.58.958 13.815 2.872 4.234 1.915 7.481 4.645 9.74 8.19 2.293 3.581 3.44 7.286 3.44 11.115 0 3.864-1.13 7.587-3.388 11.168-1.87 2.907-4.393 5.265-7.569 7.073 3.176 1.808 5.7 4.183 7.57 7.126 2.258 3.545 3.387 7.232 3.387 11.062 0 3.864-1.147 7.569-3.44 11.114-2.259 3.581-5.505 6.329-9.74 8.243-4.235 1.915-8.84 2.872-13.815 2.872-4.976 0-9.581-.957-13.816-2.872-2.928-1.312-5.381-3.013-7.357-5.105v-8.456c.282.461.617.922 1.006 1.383 1.905 2.269 4.675 4.006 8.31 5.212 3.635 1.24 7.587 1.861 11.857 1.861 4.305 0 8.257-.621 11.856-1.861 3.635-1.206 6.405-2.961 8.31-5.265 1.906-2.269 2.86-4.645 2.86-7.126 0-2.447-.954-4.822-2.86-7.127-1.905-2.269-4.675-4.024-8.31-5.265-3.599-1.205-7.551-1.808-11.856-1.808v-7.977Z" opacity=".4" fill="#fff"/></svg>