<svg width="56" height="220" fill="none" xmlns="http://www.w3.org/2000/svg"><path d="m18.309 28.316-.127 28.359-1.142 2.438c-1.226 2.695-1.268 2.738-7.146 10.608C4.778 76.565 2.114 81.14.93 84.905L0 87.9v123.615l.973 2.139c1.183 2.609 2.41 3.977 4.186 4.747 1.987.856 43.086.856 45.073 0 1.776-.77 3.002-2.138 4.186-4.747l.973-2.139V87.9l-.93-2.995c-1.227-3.935-3.89-8.34-9.81-16.253-2.664-3.55-5.412-7.657-6.131-9.197l-1.31-2.78-.128-28.359L36.987 7h1.708V0h-22v7h1.71l-.096 21.316Zm3.89 42.346c-3.848 5.518-8.034 13.474-9.091 17.195-.804 2.866-.804 2.31-.254 27.204.592 26.348-.17 58.514-1.903 80.842-.93 12.233-1.141 13.045-1.776 6.202-1.69-18.65-2.24-31.952-2.494-59.883-.212-24.98.296-47.778 1.184-52.055.592-2.738 2.579-6.93 4.947-10.437C15.39 75.838 24.44 65.87 25.37 65.87c.084 0-1.353 2.182-3.171 4.79Z" fill="#EB5749"/></svg>