<svg width="186" height="48" fill="none" xmlns="http://www.w3.org/2000/svg"><path d="M3.56 30.107C13.263 19.732 29.143 8.143 41.718 2.993c7.454-3.053 16.58-3 21.258 2.656.46.557.924.335.95-.525.179-6.235 6.263-6.44 9.438-2.445 5.324 6.7 9.969 15.243 12.235 25.214.98 4.317-.432 7.272-2.952 8.324-2.038.85-4.823.5-7.48-1.722-1.041-.872-2.712-1.935-2.82-.112-.42 6.996-5.973 10.817-13.904 12.38-9.91 1.953-34.253 1.653-50.305-1.327-9.08-1.683-10.495-9-4.578-15.329Z" fill="#303033"/><path fill-rule="evenodd" clip-rule="evenodd" d="M10.074 31.389v8.328a5.958 5.958 0 0 1-1.693-4.164c0-1.617.645-3.085 1.693-4.164Z" fill="#F7A709"/><path fill-rule="evenodd" clip-rule="evenodd" d="M11.768 30.163v10.78a5.997 5.997 0 0 1-3.387-5.39c0-2.366 1.38-4.412 3.387-5.39Z" fill="#F7A709"/><path fill-rule="evenodd" clip-rule="evenodd" d="M10.076 39.717V31.39a6.056 6.056 0 0 1 3.386-1.762V41.48a6.056 6.056 0 0 1-3.386-1.762Z" fill="#F6A40C"/><path fill-rule="evenodd" clip-rule="evenodd" d="M11.769 40.944V30.163a6.07 6.07 0 0 1 3.386-.571v11.923a6.072 6.072 0 0 1-3.387-.571Z" fill="#F6A10E"/><path fill-rule="evenodd" clip-rule="evenodd" d="M13.461 41.48V29.626a6.13 6.13 0 0 1 3.387.418V41.06a6.076 6.076 0 0 1-3.386.418Z" fill="#F59D10"/><path fill-rule="evenodd" clip-rule="evenodd" d="M15.155 41.515V29.59a6.05 6.05 0 0 1 3.386 1.55v8.825a6.057 6.057 0 0 1-3.386 1.549ZM18.54 21.41v6.608a6.065 6.065 0 0 1-.973-3.304c0-1.217.357-2.35.973-3.304Z" fill="#F49A12"/><path fill-rule="evenodd" clip-rule="evenodd" d="M16.85 41.062V30.045a6.037 6.037 0 0 1 3.386 3.775v3.467a6.037 6.037 0 0 1-3.387 3.775Zm3.386-21.39V29.76a6.11 6.11 0 0 1-2.667-5.044 6.109 6.109 0 0 1 2.667-5.043Z" fill="#F49614"/><path fill-rule="evenodd" clip-rule="evenodd" d="M18.541 39.966V31.14a5.965 5.965 0 0 1 0 8.826Zm0-11.947V21.41a6.19 6.19 0 0 1 3.387-2.556v11.72a6.191 6.191 0 0 1-3.387-2.556Z" fill="#F39315"/><path fill-rule="evenodd" clip-rule="evenodd" d="M20.235 37.286V33.82a5.956 5.956 0 0 1 0 3.466Zm0-7.528V19.672a6.188 6.188 0 0 1 3.387-1.086v12.258a6.188 6.188 0 0 1-3.387-1.086Zm3.387 6.447v4.385a5.384 5.384 0 0 1-.464-2.192c0-.78.166-1.522.464-2.193Z" fill="#F28F17"/><path fill-rule="evenodd" clip-rule="evenodd" d="M21.928 30.575v-11.72a6.242 6.242 0 0 1 3.387-.073v11.866a6.242 6.242 0 0 1-3.387-.073Zm3.387 3.498v8.65a5.418 5.418 0 0 1-2.158-4.325c0-1.764.846-3.33 2.158-4.325Z" fill="#F28E17"/><path fill-rule="evenodd" clip-rule="evenodd" d="M23.621 40.59v-4.384a5.488 5.488 0 0 1 3.387-3.004v10.392a5.489 5.489 0 0 1-3.387-3.003Zm0-9.746V18.586l.13-.002c1.195 0 2.31.337 3.257.92v10.423a6.192 6.192 0 0 1-3.387.917Z" fill="#F18A19"/><path fill-rule="evenodd" clip-rule="evenodd" d="M25.314 42.723v-8.65a5.495 5.495 0 0 1 3.332-1.118h.055V43.84h-.055a5.495 5.495 0 0 1-3.332-1.117Zm0-12.075V18.782a6.194 6.194 0 0 1 3.387 2.259v7.347a6.193 6.193 0 0 1-3.387 2.26Z" fill="#F18719"/><path fill-rule="evenodd" clip-rule="evenodd" d="M29.435 33.01c.33.048.651.124.96.227v10.322c-.309.102-.63.178-.96.226V33.01Zm0-5.877v-4.836c.321.742.5 1.559.5 2.418 0 .858-.179 1.676-.5 2.418Zm0-8.902V13.68a5.47 5.47 0 0 1 .96-1.428v7.408a5.47 5.47 0 0 1-.96-1.428Zm-2.426 25.363V33.202a5.528 5.528 0 0 1 2.426-.192v10.775a5.559 5.559 0 0 1-2.426-.191Zm2.426-29.915v4.552a5.403 5.403 0 0 1-.5-2.276c0-.812.18-1.583.5-2.276Zm0 8.618v4.835a6.17 6.17 0 0 1-2.426 2.794V19.504a6.171 6.171 0 0 1 2.426 2.794Z" fill="#F0831A"/><path fill-rule="evenodd" clip-rule="evenodd" d="M28.701 43.84V32.956a5.496 5.496 0 0 1 3.387 1.202v8.48a5.493 5.493 0 0 1-3.387 1.202Zm0-15.451V21.04a6.07 6.07 0 0 1 1.233 3.674 6.07 6.07 0 0 1-1.233 3.674Zm3.387-17.373v9.88a5.462 5.462 0 0 1-3.153-4.94 5.461 5.461 0 0 1 3.153-4.94Zm0 15.951v2.536a4.626 4.626 0 0 1 0-2.536Z" fill="#F0821B"/><path fill-rule="evenodd" clip-rule="evenodd" d="M30.395 43.559V33.237a5.484 5.484 0 0 1 3.387 3.233v3.855a5.484 5.484 0 0 1-3.386 3.234Zm0-23.9v-7.408a5.515 5.515 0 0 1 3.387-1.72V21.38a5.514 5.514 0 0 1-3.386-1.72Zm3.387 4.856v7.44a4.64 4.64 0 0 1-1.87-3.72c0-1.52.735-2.87 1.87-3.72Z" fill="#EF7D1C"/><path fill-rule="evenodd" clip-rule="evenodd" d="M32.088 42.638v-8.48a5.415 5.415 0 0 1 0 8.48Zm0-13.134v-2.536a4.69 4.69 0 0 1 3.387-3.255v9.045a4.69 4.69 0 0 1-3.387-3.255Zm0-8.608v-9.88a5.528 5.528 0 0 1 3.387-.429v10.737a5.576 5.576 0 0 1-3.387-.428Z" fill="#EF7B1D"/><path fill-rule="evenodd" clip-rule="evenodd" d="M33.782 40.326V36.47c.229.599.355 1.248.355 1.927a5.39 5.39 0 0 1-.355 1.928Zm0-8.37v-7.44a4.704 4.704 0 0 1 3.387-.908v9.255a4.73 4.73 0 0 1-3.387-.907Zm0-10.576V10.531a5.52 5.52 0 0 1 3.387.673v9.503a5.522 5.522 0 0 1-3.387.673Zm3.387 16.552v2.516a5.645 5.645 0 0 1 0-2.517Z" fill="#EE771D"/><path fill-rule="evenodd" clip-rule="evenodd" d="M35.475 32.758v-9.045a4.758 4.758 0 0 1 3.387.43v8.185a4.743 4.743 0 0 1-3.387.43Zm0-11.434V10.587a5.517 5.517 0 0 1 3.387 2.1v6.537a5.516 5.516 0 0 1-3.387 2.1Zm3.387 13.705v8.322a5.632 5.632 0 0 1 0-8.322Z" fill="#EE751E"/><path fill-rule="evenodd" clip-rule="evenodd" d="M37.168 40.447v-2.516a5.694 5.694 0 0 1 3.387-3.98v10.477a5.694 5.694 0 0 1-3.387-3.98Zm0-7.584v-9.255a4.703 4.703 0 0 1 3.387 2.09v5.074a4.704 4.704 0 0 1-3.387 2.09Zm0-12.156v-9.503a5.454 5.454 0 0 1 2.788 4.751 5.455 5.455 0 0 1-2.788 4.752Z" fill="#EE731E"/><path fill-rule="evenodd" clip-rule="evenodd" d="M38.86 43.35v-8.322a5.72 5.72 0 0 1 3.388-1.487v11.297a5.72 5.72 0 0 1-3.387-1.487Zm0-11.022v-8.185a4.653 4.653 0 0 1 2.451 4.092c0 1.766-.99 3.302-2.45 4.093Zm0-13.104v-6.537a5.408 5.408 0 0 1 1.095 3.268 5.41 5.41 0 0 1-1.094 3.27Zm3.388-11.866v6.861a5.29 5.29 0 0 1-1.26-3.43c0-1.307.474-2.503 1.26-3.431Z" fill="#ED701F"/><path fill-rule="evenodd" clip-rule="evenodd" d="M40.554 44.428V33.951a5.786 5.786 0 0 1 3.387-.306v11.09a5.786 5.786 0 0 1-3.387-.307Zm0-13.656v-5.073c.479.73.757 1.6.757 2.536a4.61 4.61 0 0 1-.757 2.537Zm3.387-24.748v9.53a5.335 5.335 0 0 1-2.952-4.765c0-2.081 1.2-3.884 2.952-4.765Zm0 14.75v7.067a6.86 6.86 0 0 1-.975-3.533c0-1.29.356-2.498.975-3.533Z" fill="#ED6C20"/><path fill-rule="evenodd" clip-rule="evenodd" d="M42.248 44.838V33.54a5.726 5.726 0 0 1 3.387.755v9.787a5.728 5.728 0 0 1-3.387.755Zm0-30.619V7.358a5.39 5.39 0 0 1 3.387-1.859v10.579a5.39 5.39 0 0 1-3.387-1.859Zm3.387 4.639v10.9a6.902 6.902 0 0 1-2.668-5.45c0-2.21 1.043-4.18 2.668-5.45Z" fill="#EC6820"/><path fill-rule="evenodd" clip-rule="evenodd" d="M43.941 44.735v-11.09a5.725 5.725 0 0 1 3.387 2.154v6.782a5.725 5.725 0 0 1-3.387 2.154Zm0-16.893v-7.067a7.004 7.004 0 0 1 3.387-2.894v12.854a7.005 7.005 0 0 1-3.387-2.893Zm0-12.288v-9.53a5.445 5.445 0 0 1 3.387-.492v10.513a5.46 5.46 0 0 1-3.387-.491Z" fill="#EB6321"/><path fill-rule="evenodd" clip-rule="evenodd" d="M45.634 44.083v-9.786a5.658 5.658 0 0 1 2.829 4.893 5.658 5.658 0 0 1-2.829 4.893Zm0-14.325v-10.9a6.994 6.994 0 0 1 3.387-1.423v13.746a6.993 6.993 0 0 1-3.387-1.423Zm0-13.68V5.499a5.397 5.397 0 0 1 3.387.638v9.303a5.394 5.394 0 0 1-3.387.638Z" fill="#EB5F22"/><path fill-rule="evenodd" clip-rule="evenodd" d="M47.329 42.58V35.8a5.614 5.614 0 0 1 1.135 3.39 5.613 5.613 0 0 1-1.135 3.392Zm0-11.845V17.881a7.025 7.025 0 0 1 3.387-.468v13.79a7.025 7.025 0 0 1-3.387-.469Zm0-14.69V5.532a5.39 5.39 0 0 1 3.387 2.095v6.324a5.39 5.39 0 0 1-3.387 2.094Z" fill="#EA5C22"/><path fill-rule="evenodd" clip-rule="evenodd" d="M49.022 31.181V17.435a7.085 7.085 0 0 1 3.387.374v12.998a7.027 7.027 0 0 1-3.387.374Zm0-15.741V6.137a5.33 5.33 0 0 1 2.739 4.652 5.33 5.33 0 0 1-2.739 4.65Zm3.387 18.558v7.275a5.582 5.582 0 0 1-1.344-3.638c0-1.386.506-2.656 1.344-3.637Z" fill="#EA5822"/><path fill-rule="evenodd" clip-rule="evenodd" d="M50.715 31.204v-13.79a6.99 6.99 0 0 1 3.386 1.304v11.18a6.992 6.992 0 0 1-3.386 1.306Zm0-17.253V7.627a5.286 5.286 0 0 1 1.046 3.162 5.285 5.285 0 0 1-1.046 3.162Zm3.386-2.777v3.469a4.78 4.78 0 0 1-.324-1.735c0-.611.115-1.196.325-1.734Zm0 21.475v9.974a5.627 5.627 0 0 1-3.036-4.987 5.627 5.627 0 0 1 3.037-4.987Z" fill="#E95323"/><path fill-rule="evenodd" clip-rule="evenodd" d="M52.408 41.273v-7.275a5.686 5.686 0 0 1 3.386-1.917V43.19a5.686 5.686 0 0 1-3.386-1.917Zm0-10.466V17.81a7.007 7.007 0 0 1 3.386 2.671v7.654a7.007 7.007 0 0 1-3.386 2.672Zm3.386-21.811v7.825a4.807 4.807 0 0 1-2.017-3.913c0-1.61.795-3.035 2.017-3.912Z" fill="#E84E23"/><path fill-rule="evenodd" clip-rule="evenodd" d="M54.1 42.622V32.65a5.695 5.695 0 0 1 3.387-.599v11.17a5.697 5.697 0 0 1-3.387-.598Zm0-12.724v-11.18a6.907 6.907 0 0 1 2.855 5.59 6.907 6.907 0 0 1-2.854 5.59Zm0-15.255v-3.47a4.865 4.865 0 0 1 3.387-2.954v9.378a4.865 4.865 0 0 1-3.386-2.955Z" fill="#E84C24"/><path fill-rule="evenodd" clip-rule="evenodd" d="M55.795 43.19V32.08a5.697 5.697 0 0 1 3.387.464v10.18a5.699 5.699 0 0 1-3.387.465Zm0-15.055v-7.654a6.861 6.861 0 0 1 1.161 3.827c0 1.415-.427 2.73-1.16 3.827Zm0-11.315V8.996a4.872 4.872 0 0 1 3.387-.885v9.594a4.872 4.872 0 0 1-3.387-.884Z" fill="#E84A24"/><path fill-rule="evenodd" clip-rule="evenodd" d="M57.488 43.22V32.05a5.685 5.685 0 0 1 3.387 1.717v7.737a5.684 5.684 0 0 1-3.387 1.717Zm0-25.623V8.22a4.926 4.926 0 0 1 3.387.398v8.58a4.923 4.923 0 0 1-3.387.398Zm3.387 2.2v1.766a10.06 10.06 0 0 0-.9.677l-.24-1.368c.36-.376.74-.733 1.14-1.075Zm0 4.76v6.06a4.78 4.78 0 0 1-1.079-3.03 4.78 4.78 0 0 1 1.08-3.03Z" fill="#E74724"/><path fill-rule="evenodd" clip-rule="evenodd" d="M59.181 42.726v-10.18a5.628 5.628 0 0 1 3.245 5.09 5.63 5.63 0 0 1-3.245 5.09Zm0-25.021V8.11c1.388.151 2.6.881 3.387 1.941v5.712a4.872 4.872 0 0 1-3.387 1.94Zm3.387.818v2.036c-1.171.614-2.051 1.215-2.593 1.68l-.24-1.367a16.621 16.621 0 0 1 2.833-2.35Zm0 4.707v8.714a4.824 4.824 0 0 1-2.772-4.357 4.824 4.824 0 0 1 2.772-4.357Z" fill="#E74524"/><path fill-rule="evenodd" clip-rule="evenodd" d="M60.874 41.504v-7.737a5.589 5.589 0 0 1 1.552 3.868c0 1.499-.59 2.86-1.552 3.869Zm0-10.887v-6.06a4.871 4.871 0 0 1 3.387-1.78v9.62a4.87 4.87 0 0 1-3.387-1.78Zm0-9.055v-1.765a18.602 18.602 0 0 1 3.387-2.28v2.243c-1.416.601-2.56 1.243-3.387 1.802Zm0-4.363V8.617a4.821 4.821 0 0 1 2.637 4.291 4.821 4.821 0 0 1-2.637 4.29Z" fill="#E74224"/><path fill-rule="evenodd" clip-rule="evenodd" d="M62.569 31.944V23.23a4.907 4.907 0 0 1 3.387-.297v9.308a4.907 4.907 0 0 1-3.387-.297Zm0-11.385v-2.036a21.216 21.216 0 0 1 3.386-1.813v2.403c-1.304.447-2.44.95-3.386 1.446Zm0-4.795v-5.712c.593.8.944 1.787.944 2.856s-.351 2.056-.944 2.856Z" fill="#E74224"/><path fill-rule="evenodd" clip-rule="evenodd" d="M64.262 32.397v-9.62a4.872 4.872 0 0 1 3.387.998V31.4a4.871 4.871 0 0 1-3.387.998Zm0-12.636v-2.244c1.064-.564 2.2-1.05 3.386-1.46v2.538a26.17 26.17 0 0 0-3.386 1.166Z" fill="#E64024"/><path fill-rule="evenodd" clip-rule="evenodd" d="M65.955 32.24v-9.307a4.857 4.857 0 0 1 3.386 3.319v2.67a4.857 4.857 0 0 1-3.386 3.319Zm0-13.127V16.71a26.672 26.672 0 0 1 3.386-1.18v2.666a27.193 27.193 0 0 0-3.386.917Z" fill="#E63E24"/><path fill-rule="evenodd" clip-rule="evenodd" d="M67.648 31.399v-7.624a4.803 4.803 0 0 1 1.882 3.812c0 1.55-.737 2.929-1.882 3.812Zm0-12.804v-2.538a29.32 29.32 0 0 1 3.386-.942v2.79a27.659 27.659 0 0 0-3.386.69Z" fill="#E63E24"/><path fill-rule="evenodd" clip-rule="evenodd" d="M69.342 28.922v-2.67a4.786 4.786 0 0 1 0 2.67Zm0-10.726v-2.665a31.737 31.737 0 0 1 3.387-.735v2.926a28.007 28.007 0 0 0-3.387.474Z" fill="#E63E24"/><path fill-rule="evenodd" clip-rule="evenodd" d="M71.035 17.905v-2.79a33.884 33.884 0 0 1 3.387-.55v3.075a28.263 28.263 0 0 0-3.387.265Z" fill="#E63C24"/><path fill-rule="evenodd" clip-rule="evenodd" d="M72.728 17.722v-2.926a35.87 35.87 0 0 1 3.387-.38v3.244a28.476 28.476 0 0 0-3.387.062Z" fill="#E63C24"/><path fill-rule="evenodd" clip-rule="evenodd" d="M74.421 17.64v-3.075a37.196 37.196 0 0 1 3.387-.222v3.435c-1.17-.116-2.3-.157-3.387-.138Z" fill="#E63925"/><path fill-rule="evenodd" clip-rule="evenodd" d="M76.114 17.66v-3.245a38.168 38.168 0 0 1 3.387-.068v3.648a29.32 29.32 0 0 0-3.387-.335Z" fill="#E63925"/><path fill-rule="evenodd" clip-rule="evenodd" d="M77.808 17.778v-3.435a38.673 38.673 0 0 1 3.386.082v3.888a30.1 30.1 0 0 0-3.386-.535Z" fill="#E43924"/><path fill-rule="evenodd" clip-rule="evenodd" d="M79.502 17.995v-3.648c1.137.027 2.27.105 3.386.23v4.153a30.853 30.853 0 0 0-3.386-.735Z" fill="#E23924"/><path fill-rule="evenodd" clip-rule="evenodd" d="M81.195 18.313v-3.888a37.76 37.76 0 0 1 3.386.383v4.438a31.994 31.994 0 0 0-3.386-.933Z" fill="#E03624"/><path fill-rule="evenodd" clip-rule="evenodd" d="M82.889 18.73v-4.152c1.15.13 2.283.311 3.386.542v4.745a33.184 33.184 0 0 0-3.386-1.135Z" fill="#DD3625"/><path fill-rule="evenodd" clip-rule="evenodd" d="M84.58 19.246v-4.438c1.159.185 2.292.423 3.387.712v5.065a34.842 34.842 0 0 0-3.386-1.34Z" fill="#D93424"/><path fill-rule="evenodd" clip-rule="evenodd" d="M86.275 19.865V15.12c1.167.244 2.301.544 3.387.899v5.392a36.63 36.63 0 0 0-3.387-1.546Z" fill="#D53424"/><path fill-rule="evenodd" clip-rule="evenodd" d="M87.968 20.586V15.52a29.38 29.38 0 0 1 3.387 1.113v3.357l-1.119 1.724a37.658 37.658 0 0 0-2.268-1.128Z" fill="#D13324"/><path fill-rule="evenodd" clip-rule="evenodd" d="M89.661 21.411V16.02c1.194.39 2.33.845 3.386 1.363l-2.811 4.332a38.518 38.518 0 0 0-.575-.303Z" fill="#CD3324"/><path fill-rule="evenodd" clip-rule="evenodd" d="M91.354 19.99v-3.357a24.38 24.38 0 0 1 1.693.749l-1.693 2.608Z" fill="#C53024"/><path d="M172.4 37.73v-2.86h.415c2.242 0 3.318-1.309 3.336-2.605.019-1.274-.981-2.536-2.894-2.536h-.857v-2.97h.493c3.429 0 6.47 1.76 6.468 5.46-.002 2.262-1.347 4.008-3.403 4.919l4.961 7.674h-3.844l-4.442-7.082h-.233Zm0-22.653V9.578l2.74-4.51h3.792l-6.532 10.01Zm10.483 29.735H186V26.76h-3.117v18.053ZM172.4 9.578v5.499l-.074.113v7.932h-3.273V15.19l-6.117-9.262v-.86h3.198l4.582 7.282 1.684-2.772Zm0 17.18v2.97h-3.752v5.142h3.752v2.86h-3.752v7.082h-3.272V26.76h7.024Zm-9.464 1.172v-1.17h.429l-.429 1.171Zm0-4.808h.567l-.567-.877v.877Zm0-18.053v.859l-.568-.86h.568Zm0 17.176-4.394-6.797c2.056-.911 3.401-2.657 3.403-4.92.002-3.7-3.039-5.46-6.468-5.46h-.493v2.97h.857c1.913 0 2.913 1.263 2.894 2.537-.018 1.296-1.093 2.604-3.336 2.604h-.415v2.861h.233l4.442 7.082h3.277v-.877Zm0 4.514v1.171l-6.195 16.882h-1.757v-4.949l4.602-13.104h3.35Zm-43.998-3.637h4.544l6.625-18.053h-3.78l-5.085 14.48h-.092l-5.003-14.48h-3.809l6.6 18.053ZM154.984 5.07v2.97h-3.751v5.14h3.751v2.861h-3.751v7.082h-3.273V5.07h7.024Zm0 34.794v4.95h-2.787l-6.6-18.054h3.808l5.004 14.48h.092l.483-1.376Zm-53.156 5.092v-2.88c.308-.005.623-.037.877-.101l-.877-1.22v-1.738h2.255l1.298 1.804c1.356-1.146 2.025-2.986 2.025-5.021 0-3.377-1.981-6.338-5.578-6.36v-2.796c5.702.038 8.821 4.548 8.825 9.156.002 2.87-1.241 5.701-3.533 7.438l2.505 3.482h-3.506l-1.562-2.172a9.435 9.435 0 0 1-2.729.408Zm0-21.833v-2.97h9.025v2.97h-9.025Zm0-7.684v-2.86h7.771v2.86h-7.771Zm0-7.4v-2.97h9.025v2.97h-9.025Zm15.93 36.774h4.544l6.624-18.053h-3.78l-5.084 14.48h-.092l-5.004-14.48h-3.808l6.6 18.053Zm22.516-21.574c1.512.025 3.147-.16 4.597-.593l-.883-2.833a13.127 13.127 0 0 1-3.662.515c-3.524-.027-5.931-1.96-6.359-5.172h8.555l.49-2.775h-8.926c.651-2.82 2.962-4.493 6.24-4.518 1.23-.01 2.595.179 3.778.515l.767-2.833c-1.46-.461-3.069-.605-4.597-.592-5.551.047-9.648 3.567-9.648 9.143 0 5.575 4.089 9.124 9.648 9.143Zm-.96 21.69c1.512.026 3.147-.16 4.597-.593l-.883-2.833a13.143 13.143 0 0 1-3.662.515c-3.524-.027-5.931-1.96-6.359-5.172h8.555l.49-2.775h-8.926c.651-2.819 2.963-4.493 6.24-4.518a13.95 13.95 0 0 1 3.778.515l.767-2.832c-1.46-.462-3.069-.606-4.597-.593-5.551.047-9.648 3.567-9.648 9.143 0 5.575 4.089 9.125 9.648 9.143Zm-37.486-39.86v2.97h-.54v4.54h.54v2.86h-.54v4.714h.54v2.97h-3.813V5.07h3.813Zm0 21.575v2.796h-.041c-3.622 0-5.538 2.97-5.538 6.36 0 3.389 1.71 6.276 5.506 6.276h.073v2.88h-.073c-5.691 0-8.753-4.53-8.753-9.156 0-4.627 3.004-9.157 8.753-9.157l.073.001Zm0 12.373h-1.251l1.251 1.738v-1.738Z" fill="#303033"/></svg>