<svg width="23" height="27" fill="none" xmlns="http://www.w3.org/2000/svg"><path d="M15.578 1.074c-1.533.209-2.686.856-3.41 1.902-.555.807-.871 2.019-.871 3.337v.623h.647c1.659 0 2.923-.433 3.843-1.304.958-.915 1.445-2.291 1.445-4.082V1l-.594.006c-.33.005-.807.034-1.06.068Zm.535 1.211c0 .277-.146.949-.297 1.357-.37 1.022-1.095 1.679-2.199 2-.374.111-1.192.248-1.235.209-.034-.04.136-.973.243-1.309.321-1.002 1.012-1.751 1.956-2.111.384-.146 1.075-.302 1.352-.307.175-.004.18 0 .18.161ZM6.414 7.597C4.23 7.99 2.299 9.679 1.472 11.92c-.244.657-.394 1.387-.463 2.238-.038.457.05 2.097.151 2.894.394 3.123 1.48 5.726 3.036 7.297.554.564.958.856 1.561 1.138.706.331 1.017.395 1.844.39.807-.01 1.357-.122 2.058-.438.822-.365 1.065-.457 1.42-.53.87-.18 1.766-.03 2.724.447.71.355 1.445.52 2.31.52.531 0 .73-.019 1.032-.106 1.6-.458 2.958-1.79 3.98-3.911.291-.613.875-2.175.875-2.35 0-.044-.122-.083-.35-.122-.827-.131-1.411-.355-2.043-.783-.818-.56-1.47-1.518-1.727-2.559-.127-.496-.112-1.522.029-2.033.219-.817.735-1.659 1.309-2.155.603-.516 1.036-.744 1.882-.988.365-.102.545-.175.516-.209a23.59 23.59 0 0 0-.346-.462c-1.084-1.44-2.485-2.33-4.105-2.612-.604-.107-1.84-.068-2.389.073-.214.053-.89.272-1.508.491-.613.22-1.216.409-1.338.423-.184.02-.36-.024-1.094-.277-1.435-.496-1.878-.632-2.306-.705-.51-.093-1.6-.088-2.116.005Zm1.921 1.065c.224.039 1.022.282 1.771.535l1.362.467.438-.02c.394-.024.56-.067 1.581-.423 1.464-.51 1.756-.588 2.413-.617 1.148-.059 2.184.243 3.157.914.19.127.433.331.55.448l.214.214-.365.2c-1.897 1.04-3.006 3.273-2.705 5.438.204 1.488 1.07 2.894 2.287 3.716.33.229 1.07.589 1.39.681l.2.064-.117.32c-.194.521-.67 1.455-.982 1.927-.603.91-1.236 1.527-1.956 1.912-.56.301-.856.374-1.508.365-.705-.01-1.109-.112-1.965-.497-.735-.335-1.27-.486-1.868-.53-.944-.073-1.722.083-2.729.545-.652.302-.939.39-1.513.467-1.416.195-2.71-.555-3.8-2.184-1.21-1.81-1.97-4.451-2.081-7.243-.04-1.07.005-1.742.17-2.389.579-2.325 2.335-4.004 4.544-4.349.301-.049 1.143-.03 1.512.039Z" fill="#303033" stroke="#303033" stroke-width=".7"/></svg>