<svg width="60" height="60" viewBox="0 0 60 60" fill="none" xmlns="http://www.w3.org/2000/svg">
<circle cx="30" cy="30" r="30" fill="#E9E8E8"/>
<path d="M30.1528 27.3636C30.0586 27.3542 29.9456 27.3542 29.842 27.3636C27.6004 27.2882 25.8203 25.4495 25.8203 23.1865C25.8203 20.8764 27.6852 19 30.0021 19C32.3097 19 34.1839 20.8764 34.1839 23.1865C34.1745 25.4495 32.3944 27.2882 30.1528 27.3636Z" fill="#B3B3B3"/>
<path d="M23.8625 33.21C20.8948 35.1742 20.8948 38.3751 23.8625 40.3272C27.235 42.5582 32.7658 42.5582 36.1382 40.3272C39.1059 38.363 39.1059 35.1621 36.1382 33.21C32.778 30.9912 27.2472 30.9912 23.8625 33.21Z" fill="#B3B3B3"/>
</svg>
