<svg width="120" height="120" viewBox="0 0 120 120" fill="none" xmlns="http://www.w3.org/2000/svg">
<g id="Photo">
<circle id="Ellipse 65" cx="60" cy="60" r="60" fill="#E9E8E8"/>
<g id="Icons 32 px">
<g id="Group 469">
<path id="Vector" d="M60.3057 54.7273C60.1173 54.7084 59.8912 54.7084 59.684 54.7273C55.2008 54.5764 51.6406 50.899 51.6406 46.3731C51.6406 41.7528 55.3704 38 60.0043 38C64.6193 38 68.3679 41.7528 68.3679 46.3731C68.3491 50.899 64.7889 54.5764 60.3057 54.7273Z" fill="#B3B3B3"/>
<path id="Vector_2" d="M47.7251 66.4191C41.7896 70.3475 41.7896 76.7493 47.7251 80.6535C54.4699 85.1154 65.5315 85.1154 72.2764 80.6535C78.2119 76.7251 78.2119 70.3232 72.2764 66.4191C65.556 61.9814 54.4944 61.9814 47.7251 66.4191Z" fill="#B3B3B3"/>
</g>
</g>
</g>
</svg>
