<svg width="24" height="24" fill="none" xmlns="http://www.w3.org/2000/svg"><path d="M8 8.59v-.923c0-2.142 1.609-4.246 3.609-4.446C13.99 2.973 16 4.982 16 7.486V8.8" stroke="#EB5749" stroke-width="2" stroke-miterlimit="10" stroke-linecap="round" stroke-linejoin="round"/><path fill-rule="evenodd" clip-rule="evenodd" d="M9.257 21.334h5.486c3.675 0 4.333-1.457 4.525-3.23l.686-5.429c.246-2.208-.394-4.008-4.297-4.008H8.343c-3.903 0-4.543 1.8-4.297 4.008l.686 5.429c.192 1.773.85 3.23 4.525 3.23ZM13.913 12a1 1 0 0 1 1-1h.007a1 1 0 1 1 0 2h-.007a1 1 0 0 1-1-1Zm-4.834-1a1 1 0 1 0 0 2h.007a1 1 0 1 0 0-2H9.08Z" fill="#EB5749"/></svg>