<svg width="19" height="19" fill="none" xmlns="http://www.w3.org/2000/svg"><path d="M14.269 18.906c-.989 0-2.03-.236-3.107-.691-1.05-.446-2.108-1.059-3.14-1.802a27.318 27.318 0 0 1-2.95-2.512 26.146 26.146 0 0 1-2.51-2.94c-.753-1.05-1.357-2.1-1.786-3.115C.321 6.761.094 5.711.094 4.723c0-.683.122-1.33.359-1.934A4.673 4.673 0 0 1 1.624 1.09C2.299.426 3.069.094 3.891.094c.341 0 .691.078.989.218.341.158.63.394.84.71l2.03 2.86c.184.254.324.5.42.744.114.263.175.525.175.779 0 .332-.096.656-.28.962a3.5 3.5 0 0 1-.586.744l-.595.622a.427.427 0 0 0 .026.06c.105.184.315.5.718.972.428.49.83.936 1.233 1.348.516.507.945.91 1.348 1.242.498.42.822.63 1.015.726l-.018.044.639-.63c.271-.271.534-.472.787-.604.482-.297 1.094-.35 1.707-.096.227.096.472.228.735.411l2.905 2.065c.323.219.56.499.7.831.131.333.192.64.192.945 0 .42-.096.84-.28 1.234a4.077 4.077 0 0 1-.7 1.05c-.498.552-1.041.945-1.671 1.199a5.166 5.166 0 0 1-1.951.376ZM3.89 1.406c-.481 0-.927.21-1.356.63a3.357 3.357 0 0 0-.858 1.234 3.828 3.828 0 0 0-.27 1.453c0 .813.192 1.697.577 2.607.393.928.945 1.89 1.645 2.852.7.963 1.496 1.9 2.371 2.783.875.866 1.82 1.671 2.791 2.38a14.214 14.214 0 0 0 2.879 1.654c1.496.639 2.896.787 4.051.306a3.23 3.23 0 0 0 1.199-.866c.201-.219.359-.455.49-.735a1.55 1.55 0 0 0 .157-.674c0-.14-.026-.28-.096-.438a.663.663 0 0 0-.245-.262l-2.905-2.065a2.504 2.504 0 0 0-.481-.271c-.192-.079-.271-.158-.569.026a1.994 1.994 0 0 0-.507.394l-.665.656a1.247 1.247 0 0 1-1.269.262l-.236-.105c-.359-.192-.779-.49-1.243-.883-.42-.359-.875-.779-1.426-1.321A30.59 30.59 0 0 1 6.62 9.605c-.411-.481-.709-.893-.892-1.234l-.105-.262a1.633 1.633 0 0 1-.07-.438c0-.315.114-.595.332-.814l.657-.682a2.5 2.5 0 0 0 .393-.49.561.561 0 0 0 .096-.297.813.813 0 0 0-.07-.28 2.51 2.51 0 0 0-.28-.464l-2.03-2.87a.806.806 0 0 0-.323-.272 1.096 1.096 0 0 0-.438-.096Zm7.315 10.728-.14.595.236-.613c-.043-.008-.078 0-.096.018Z" fill="#292D32" stroke="#000" stroke-width=".2"/></svg>