<svg width="21" height="21" fill="none" xmlns="http://www.w3.org/2000/svg"><path d="M12.123 19.307c1.087.46 2.141.7 3.146.7.704 0 1.373-.134 1.988-.384.646-.26 1.2-.664 1.708-1.225.296-.322.529-.672.717-1.075.19-.406.29-.84.29-1.276 0-.32-.065-.639-.2-.981l-.001-.002a1.98 1.98 0 0 0-.735-.875h-.001l-2.903-2.064a4.086 4.086 0 0 0-.754-.422h-.001c-.639-.265-1.284-.213-1.794.101a3.374 3.374 0 0 0-.809.62l-.551.544c-.188-.1-.493-.305-.95-.69-.4-.33-.826-.73-1.341-1.236-.4-.41-.801-.853-1.229-1.342-.392-.461-.598-.768-.7-.947l.547-.572a3.6 3.6 0 0 0 .602-.763c.191-.32.293-.661.293-1.013 0-.27-.065-.545-.183-.817a3.49 3.49 0 0 0-.43-.764H8.83l-2.029-2.86a2.102 2.102 0 0 0-.88-.742 2.466 2.466 0 0 0-1.03-.228c-.852 0-1.647.345-2.336 1.025a4.773 4.773 0 0 0-1.197 1.733 5.373 5.373 0 0 0-.365 1.97c0 1.005.23 2.068.69 3.163.432 1.023 1.04 2.08 1.796 3.135A26.246 26.246 0 0 0 6 14.972h.001c.94.923 1.932 1.766 2.96 2.521 1.038.748 2.104 1.364 3.161 1.814Z" fill="#EB5749" stroke="#EB5749" stroke-width=".2"/></svg>