<svg width="25" height="25" fill="none" xmlns="http://www.w3.org/2000/svg"><path d="M11.638 1.012c-1.718.175-3.022.553-4.408 1.273-1.115.575-1.911 1.169-2.856 2.113-.958.963-1.583 1.826-2.176 3.023a11.347 11.347 0 0 0 .04 10.227 10.944 10.944 0 0 0 2.285 3.108 10.96 10.96 0 0 0 2.932 2.065 9.967 9.967 0 0 0 2.245.832c2.658.67 5.388.391 7.843-.81 1.192-.58 2.11-1.241 3.095-2.222.99-.994 1.61-1.857 2.2-3.063.417-.854.62-1.398.831-2.248.274-1.089.333-1.597.333-2.811 0-1.044-.063-1.674-.243-2.51l-.054-.234h-11.73v5.487h2.946c1.62 0 2.946.018 2.946.036 0 .023-.144.261-.324.53-2.095 3.19-6.58 3.644-9.283.945a6.014 6.014 0 0 1-.148-8.365 5.96 5.96 0 0 1 4.673-1.903c1.525.068 2.824.63 3.935 1.705l.455.436 1.92-1.92c1.057-1.057 1.92-1.943 1.92-1.975 0-.058-.926-.922-1.376-1.282-1.542-1.227-3.476-2.055-5.514-2.356-.445-.063-2.114-.117-2.487-.081Zm1.547 1.097a10.37 10.37 0 0 1 5.937 2.339l.36.292-1.165 1.165-1.16 1.165-.333-.243C15.11 5.55 13.032 5.091 10.99 5.532a7.157 7.157 0 0 0-5.217 4.66c-.288.836-.337 1.191-.342 2.284 0 .873.014 1.044.104 1.453.144.643.292 1.08.553 1.628.958 2.01 2.78 3.44 5.006 3.922.62.135 2.127.148 2.748.022 1.462-.297 2.635-.93 3.692-1.983.855-.86 1.291-1.552 1.732-2.748l.216-.585-3.202-.022-3.203-.023v-3.283l4.83-.013c2.659-.005 4.85.004 4.867.022.13.13.189 2.073.09 2.847-.315 2.384-1.336 4.48-2.995 6.14A10.375 10.375 0 0 1 8.022 21.89a10.529 10.529 0 0 1-4.988-5.092 10.154 10.154 0 0 1-.922-4.3c0-1.533.297-2.914.922-4.3 1.493-3.305 4.669-5.626 8.267-6.04.386-.044.58-.062 1.08-.085.085-.004.449.014.804.036Z" fill="#303033" stroke="#303033" stroke-width=".6"/></svg>