<svg width="36" height="36" fill="none" xmlns="http://www.w3.org/2000/svg"><g fill="#51C878" clip-path="url(#a)"><path d="M10.763 8.606a5.545 5.545 0 0 0-4.405 2.75 5.55 5.55 0 0 0 2.018 7.551 5.45 5.45 0 0 0 2.869.714 6.961 6.961 0 0 1 .76-4.926c.907-1.582 2.37-2.654 4.002-3.164a5.471 5.471 0 0 0-2.098-2.21 5.47 5.47 0 0 0-3.146-.715Zm14.071 8.079c.374 1.65.182 3.44-.725 5.006a6.86 6.86 0 0 1-3.856 3.084 5.476 5.476 0 0 0 2.098 2.21 5.55 5.55 0 0 0 7.563-2.017 5.567 5.567 0 0 0-2.03-7.563 5.476 5.476 0 0 0-3.05-.72ZM6.375 19.4l-.034.057a5.556 5.556 0 0 0 2.03 7.551 5.544 5.544 0 0 0 7.557-2.012l.085-.17a6.9 6.9 0 0 1-4.161-3.64A6.997 6.997 0 0 1 6.375 19.4Zm12.467 5.658c-.397.012-.834-.028-1.23.023-1.644 2.608-2.824 3.277-4.519 3.747a5.487 5.487 0 0 0 2.177 2.336 5.555 5.555 0 0 0 7.557-2.03c.046-.079.08-.158.114-.243-.482-.148-.936-.397-1.423-.607-1.22-.51-2.16-1.661-2.676-3.226ZM6.545 27.071c-.159.204-.317.397-.453.63a5.567 5.567 0 0 0 2.03 7.568 5.556 5.556 0 0 0 7.556-2.03c.057-.096.091-.193.142-.29a6.872 6.872 0 0 1-4.24-4.16 6.854 6.854 0 0 1-5.035-1.718Z"/><path d="M20.869 13.42a5.556 5.556 0 0 0-7.563 2.029A5.556 5.556 0 0 0 15.34 23a5.545 5.545 0 0 0 7.551-2.012 5.567 5.567 0 0 0-2.03-7.569h.007Z"/><path d="M28.018 7.342c-2.426.028-4.405.788-5.924 1.95-1.52 1.162-2.608 2.665-3.52 4.184a1.503 1.503 0 0 0 .51 2.058 1.503 1.503 0 0 0 2.058-.51c.833-1.378 1.706-2.551 2.766-3.35 1.055-.811 2.285-1.31 4.139-1.333a1.502 1.502 0 0 0 1.485-1.514 1.502 1.502 0 0 0-1.514-1.485Z"/><path d="M17.963.08c-.59-.063-.992-.239-1.86.26-.867.505-.906.93-1.15 1.474a8.338 8.338 0 0 0-.59 1.928c-.26 1.474-.249 3.316.72 5.006.976 1.69 2.574 2.625 3.98 3.135.698.25 1.36.391 1.956.453.596.063.981.233 1.848-.266.873-.505.919-.93 1.163-1.474a8.33 8.33 0 0 0 .578-1.928c.266-1.468.255-3.316-.72-5.006-.975-1.683-2.563-2.625-3.969-3.13-.64-.254-1.36-.34-1.956-.453Z"/></g><defs><clipPath id="a"><path fill="#fff" d="M0 0h36v36H0z"/></clipPath></defs></svg>