<svg width="64" height="74" fill="none" xmlns="http://www.w3.org/2000/svg"><path d="M1.873 24.37c7.082-31.184 53.208-31.148 60.254.036 4.135 18.292-7.226 33.776-17.184 43.355-7.227 6.985-18.66 6.985-25.921 0C9.099 58.182-2.262 42.662 1.872 24.37Z" fill="#fff" stroke="#303033" stroke-width="1.5"/><path d="M29.97 52.326c-3.315-5.13-6.486-12.951-7.313-18.715-.49-3.418.496-7.198 3.356-8.536.282-.131.238-.347-.12-.45-2.589-.738-2.032-3.283-.025-4.175 3.365-1.495 7.43-2.512 11.84-2.39 1.91.053 2.996.954 3.17 2.111.14.936-.3 2.054-1.51 2.92-.475.339-1.096.918-.345 1.158 2.883.92 3.895 3.629 3.711 7.086-.23 4.318-2.925 14.384-5.867 20.725-1.663 3.587-4.874 3.395-6.896.266Z" fill="#303033"/><path fill-rule="evenodd" clip-rule="evenodd" d="m31.195 49.76 3.484.887a2.583 2.583 0 0 1-1.921.26 2.583 2.583 0 0 1-1.563-1.147Z" fill="#F7A709"/><path fill-rule="evenodd" clip-rule="evenodd" d="m30.861 48.928 4.51 1.148a2.592 2.592 0 0 1-4.51-1.148Z" fill="#F7A709"/><path fill-rule="evenodd" clip-rule="evenodd" d="m34.679 50.647-3.484-.887a2.585 2.585 0 0 1-.38-1.593l4.959 1.263a2.586 2.586 0 0 1-1.095 1.217Z" fill="#F6A40C"/><path fill-rule="evenodd" clip-rule="evenodd" d="m35.37 50.075-4.51-1.148a2.58 2.58 0 0 1 .119-1.465l4.988 1.27a2.604 2.604 0 0 1-.597 1.343Z" fill="#F6A10E"/><path fill-rule="evenodd" clip-rule="evenodd" d="m35.773 49.43-4.958-1.262a2.59 2.59 0 0 1 .532-1.36l4.609 1.173a2.582 2.582 0 0 1-.183 1.45Z" fill="#F59D10"/><path fill-rule="evenodd" clip-rule="evenodd" d="m35.967 48.731-4.988-1.27c.2-.522.56-.95 1.005-1.24l3.692.94c.254.469.364 1.015.29 1.57Zm-8.053-3.546 2.764.704a2.635 2.635 0 0 1-1.485.052 2.635 2.635 0 0 1-1.279-.756Z" fill="#F49A12"/><path fill-rule="evenodd" clip-rule="evenodd" d="m35.956 47.98-4.609-1.173a2.599 2.599 0 0 1 1.937-1.003l1.45.37a2.595 2.595 0 0 1 1.222 1.806Zm-8.59-3.683 4.22 1.074a2.644 2.644 0 0 1-2.392.57 2.643 2.643 0 0 1-1.828-1.644Z" fill="#F49614"/><path fill-rule="evenodd" clip-rule="evenodd" d="m35.677 47.162-3.692-.94a2.585 2.585 0 0 1 2.052-.339c.73.186 1.307.665 1.64 1.279Zm-4.998-1.273-2.764-.703a2.652 2.652 0 0 1-.712-1.677l4.903 1.248c-.33.54-.84.937-1.427 1.132Z" fill="#F39315"/><path fill-rule="evenodd" clip-rule="evenodd" d="m34.735 46.174-1.45-.369a2.595 2.595 0 0 1 1.45.37Zm-3.15-.801-4.219-1.075a2.632 2.632 0 0 1-.097-1.52l5.129 1.305c-.144.519-.433.96-.813 1.29Zm3.055-.719 1.835.467a2.342 2.342 0 0 1-1.835-.467Z" fill="#F28F17"/><path fill-rule="evenodd" clip-rule="evenodd" d="m32.106 44.757-4.903-1.249a2.646 2.646 0 0 1 .328-1.412l4.963 1.263a2.65 2.65 0 0 1-.388 1.398Zm1.821-1.033 3.62.922a2.35 2.35 0 0 1-2.038.434 2.345 2.345 0 0 1-1.582-1.356Z" fill="#F28E17"/><path fill-rule="evenodd" clip-rule="evenodd" d="m36.475 45.121-1.835-.467a2.356 2.356 0 0 1-.898-1.724l4.347 1.106c-.357.58-.95.974-1.614 1.085Zm-4.078-1.038-5.128-1.305.013-.054c.127-.496.385-.923.729-1.253l4.36 1.11a2.634 2.634 0 0 1 .026 1.502Z" fill="#F18A19"/><path fill-rule="evenodd" clip-rule="evenodd" d="m37.546 44.646-3.619-.922a2.34 2.34 0 0 1-.115-1.5l.006-.023 4.553 1.159-.006.023a2.34 2.34 0 0 1-.819 1.263Zm-5.051-1.286-4.964-1.264a2.65 2.65 0 0 1 1.302-1.164l3.074.782c.37.46.584 1.038.588 1.646Z" fill="#F18719"/><path fill-rule="evenodd" clip-rule="evenodd" d="M33.918 41.902a2.34 2.34 0 0 1 .196-.374l4.318 1.1c.01.139.008.28-.007.422l-4.507-1.148Zm-2.46-.626-2.022-.515a2.637 2.637 0 0 1 1.064.05c.36.092.682.253.959.465Zm-3.723-.948-1.904-.484a2.362 2.362 0 0 1-.496-.55l3.099.788a2.366 2.366 0 0 1-.699.246Zm10.354 3.708-4.347-1.107a2.348 2.348 0 0 1 .176-1.027l4.507 1.148a2.355 2.355 0 0 1-.336.986Zm-12.258-4.192 1.904.484a2.35 2.35 0 0 1-1.904-.485Zm3.605.917 2.023.515c.432.332.75.79.912 1.304l-4.36-1.11a2.656 2.656 0 0 1 1.425-.709Z" fill="#F0831A"/><path fill-rule="evenodd" clip-rule="evenodd" d="m38.371 43.36-4.553-1.16c.14-.53.452-.97.86-1.277l3.548.904c.212.464.275 1 .145 1.532Zm-6.464-1.646-3.074-.783a2.634 2.634 0 0 1 1.667-.12c.577.147 1.06.473 1.407.903Zm-6.91-3.255 4.133 1.052a2.36 2.36 0 0 1-4.133-1.052Zm6.673 1.699 1.061.27a2.015 2.015 0 0 1-1.06-.27Z" fill="#F0821B"/><path fill-rule="evenodd" clip-rule="evenodd" d="m38.432 42.627-4.318-1.1a2.356 2.356 0 0 1 1.71-1.06l1.613.41c.574.404.942 1.048.995 1.75Zm-9.999-2.545-3.099-.79a2.354 2.354 0 0 1-.362-1.587l4.539 1.155a2.354 2.354 0 0 1-1.078 1.222Zm2.39-.888 3.112.792a2.008 2.008 0 0 1-1.754.38 2.008 2.008 0 0 1-1.358-1.172Z" fill="#EF7D1C"/><path fill-rule="evenodd" clip-rule="evenodd" d="m38.226 41.827-3.548-.903a2.345 2.345 0 0 1 1.99-.398 2.345 2.345 0 0 1 1.558 1.301Zm-5.495-1.399-1.061-.27a2.015 2.015 0 0 1-1.004-1.751l3.784.963a2.015 2.015 0 0 1-1.72 1.058Zm-3.601-.916-4.133-1.053a2.35 2.35 0 0 1 .178-1.45l4.492 1.143a2.369 2.369 0 0 1-.537 1.36Z" fill="#EF7B1D"/><path fill-rule="evenodd" clip-rule="evenodd" d="m37.437 40.878-1.613-.41a2.342 2.342 0 0 1 1.613.41Zm-3.501-.891-3.113-.793a2.003 2.003 0 0 1-.022-1.501l3.872.986a2.013 2.013 0 0 1-.737 1.308ZM29.51 38.86l-4.538-1.155a2.348 2.348 0 0 1 .64-1.333l3.974 1.012a2.348 2.348 0 0 1-.076 1.476Zm7.282.358 1.053.268a2.45 2.45 0 0 1-1.053-.268Z" fill="#EE771D"/><path fill-rule="evenodd" clip-rule="evenodd" d="m34.45 39.37-3.784-.963a2.02 2.02 0 0 1 .538-1.36l3.424.872a2.003 2.003 0 0 1-.178 1.45Zm-4.783-1.218-4.492-1.143a2.36 2.36 0 0 1 1.236-1.182l2.735.697c.364.45.559 1.028.521 1.628Zm6.09.055 3.483.886a2.44 2.44 0 0 1-1.935.318 2.44 2.44 0 0 1-1.547-1.204Z" fill="#EE751E"/><path fill-rule="evenodd" clip-rule="evenodd" d="m37.845 39.487-1.052-.268a2.452 2.452 0 0 1-1.308-1.829l4.383 1.116a2.452 2.452 0 0 1-2.023.98Zm-3.173-.808-3.871-.986c.219-.57.68-.994 1.232-1.182l2.122.54a2.01 2.01 0 0 1 .517 1.628Zm-5.085-1.294-3.975-1.013a2.358 2.358 0 0 1 3.975 1.013Z" fill="#EE731E"/><path fill-rule="evenodd" clip-rule="evenodd" d="m39.24 39.094-3.482-.887a2.439 2.439 0 0 1-.265-1.563l4.726 1.203c-.184.529-.536.96-.98 1.247Zm-4.612-1.174-3.424-.872a2.011 2.011 0 0 1 3.424.872Zm-5.482-1.396-2.735-.696c.454-.188.97-.237 1.483-.106.513.13.943.42 1.252.802Zm-4.607-2.669 2.87.731a2.295 2.295 0 0 1-1.567.157 2.295 2.295 0 0 1-1.302-.888Z" fill="#ED701F"/><path fill-rule="evenodd" clip-rule="evenodd" d="m39.868 38.506-4.383-1.116a2.439 2.439 0 0 1 .23-1.438l4.64 1.182a2.462 2.462 0 0 1-.486 1.372Zm-5.713-1.455-2.122-.54a2.015 2.015 0 0 1 2.122.54Zm-9.995-4.04 3.986 1.015a2.305 2.305 0 0 1-3.986-1.015Zm6.17 1.57 2.957.753a2.98 2.98 0 0 1-1.581.029 2.98 2.98 0 0 1-1.375-.781Z" fill="#ED6C20"/><path fill-rule="evenodd" clip-rule="evenodd" d="m40.219 37.846-4.726-1.203a2.448 2.448 0 0 1 .673-1.324l4.094 1.042a2.434 2.434 0 0 1-.041 1.485Zm-12.81-3.26-2.87-.731a2.302 2.302 0 0 1-.42-1.603l4.426 1.127a2.3 2.3 0 0 1-1.136 1.206Zm2.299-.911 4.56 1.16a2.989 2.989 0 0 1-2.562.527 2.989 2.989 0 0 1-1.998-1.687Z" fill="#EC6820"/><path fill-rule="evenodd" clip-rule="evenodd" d="m40.355 37.133-4.64-1.18c.267-.541.72-.953 1.259-1.176l2.837.722c.366.453.567 1.032.544 1.634Zm-7.068-1.799-2.956-.753a3.005 3.005 0 0 1-.853-1.713l5.377 1.37c-.39.528-.944.913-1.568 1.096Zm-5.14-1.309-3.987-1.014a2.295 2.295 0 0 1 .152-1.458l4.398 1.12a2.319 2.319 0 0 1-.563 1.352Z" fill="#EB6321"/><path fill-rule="evenodd" clip-rule="evenodd" d="m40.26 36.362-4.093-1.042a2.446 2.446 0 0 1 4.094 1.042Zm-5.992-1.526-4.56-1.16a2.98 2.98 0 0 1-.237-1.557l5.75 1.464a2.98 2.98 0 0 1-.953 1.253Zm-5.723-1.457-4.425-1.126a2.295 2.295 0 0 1 .625-1.337l3.89.99a2.294 2.294 0 0 1-.09 1.473Z" fill="#EB5F22"/><path fill-rule="evenodd" clip-rule="evenodd" d="m39.81 35.499-2.837-.722a2.437 2.437 0 0 1 1.539-.11c.532.136.978.436 1.298.832Zm-4.955-1.262-5.377-1.369a2.986 2.986 0 0 1 .161-1.454l5.77 1.469a3.011 3.011 0 0 1-.554 1.354Zm-6.145-1.564-4.398-1.12a2.305 2.305 0 0 1 1.233-1.181l2.646.673c.367.447.562 1.027.519 1.628Z" fill="#EA5C22"/><path fill-rule="evenodd" clip-rule="evenodd" d="m35.22 33.583-5.75-1.464a3.008 3.008 0 0 1 .514-1.365l5.438 1.384a2.987 2.987 0 0 1-.201 1.445Zm-6.585-1.677-3.892-.99a2.305 2.305 0 0 1 3.892.99Zm8.122.572 3.043.775c-.5.243-1.083.318-1.664.17a2.423 2.423 0 0 1-1.38-.945Z" fill="#EA5822"/><path fill-rule="evenodd" clip-rule="evenodd" d="m35.409 32.883-5.77-1.47c.19-.507.506-.938.904-1.265l4.677 1.19c.194.478.266 1.008.189 1.544Zm-7.218-1.838-2.646-.674c.44-.178.938-.223 1.434-.096.495.126.911.403 1.212.77Zm-.804-1.7 1.451.369a2.077 2.077 0 0 1-1.451-.37Zm8.984 2.287 4.172 1.062a2.431 2.431 0 0 1-4.172-1.062Z" fill="#E95323"/><path fill-rule="evenodd" clip-rule="evenodd" d="m39.8 33.253-3.044-.775a2.43 2.43 0 0 1-.444-1.609l4.647 1.183a2.43 2.43 0 0 1-1.16 1.2Zm-4.379-1.115-5.437-1.384a3.004 3.004 0 0 1 1.475-1.12l3.202.815c.421.465.691 1.056.76 1.69Zm-8.767-3.727 3.274.833a2.08 2.08 0 0 1-3.274-.834Z" fill="#E84E23"/><path fill-rule="evenodd" clip-rule="evenodd" d="m40.544 32.694-4.172-1.062a2.42 2.42 0 0 1 .107-1.469l4.673 1.19a2.451 2.451 0 0 1-.608 1.34Zm-5.323-1.355-4.677-1.191a2.99 2.99 0 0 1 2.64-.589 2.99 2.99 0 0 1 2.037 1.78Zm-6.382-1.625-1.451-.37a2.088 2.088 0 0 1-.879-1.719l3.924.999a2.088 2.088 0 0 1-1.594 1.09Z" fill="#E84C24"/><path fill-rule="evenodd" clip-rule="evenodd" d="m40.96 32.052-4.647-1.183a2.434 2.434 0 0 1 .552-1.356l4.259 1.084a2.423 2.423 0 0 1-.164 1.455Zm-6.298-1.604-3.202-.815a2.98 2.98 0 0 1 1.724-.074c.592.15 1.097.468 1.478.89Zm-4.733-1.205-3.274-.833a2.073 2.073 0 0 1-.012-1.5l4.013 1.023a2.073 2.073 0 0 1-.728 1.31Z" fill="#E84A24"/><path fill-rule="evenodd" clip-rule="evenodd" d="m41.151 31.353-4.673-1.19c.212-.532.6-.956 1.076-1.222l3.237.824c.292.461.429 1.019.36 1.588Zm-10.72-2.729-3.922-.999a2.09 2.09 0 0 1 .524-1.362l3.59.914a2.074 2.074 0 0 1-.191 1.447Zm1.279-1.17.739.188c.064.175.128.325.188.445l-.598-.046a6.69 6.69 0 0 1-.33-.588Zm1.991.506 2.535.646a2.074 2.074 0 0 1-1.381.125 2.074 2.074 0 0 1-1.154-.77Z" fill="#E74724"/><path fill-rule="evenodd" clip-rule="evenodd" d="m41.123 30.598-4.259-1.085a2.432 2.432 0 0 1 4.259 1.085Zm-10.467-2.665-4.014-1.022a2.08 2.08 0 0 1 1.17-1.198l2.39.608c.36.44.537 1.02.454 1.612Zm.7-1.318.851.217c.133.551.292.98.43 1.255l-.598-.047a7.131 7.131 0 0 1-.683-1.425Zm1.969.502 3.645.928a2.084 2.084 0 0 1-3.645-.929Z" fill="#E74524"/><path fill-rule="evenodd" clip-rule="evenodd" d="m40.79 29.766-3.236-.824a2.424 2.424 0 0 1 1.782-.232c.627.16 1.134.55 1.455 1.056Zm-4.554-1.16-2.535-.645a2.08 2.08 0 0 1-.386-1.595l4.024 1.025a2.08 2.08 0 0 1-1.103 1.215Zm-3.787-.964-.74-.188a7.963 7.963 0 0 1-.595-1.648l.938.24c.102.65.25 1.193.397 1.596Zm-1.826-.465-3.59-.914a2.083 2.083 0 0 1 3.59.914Z" fill="#E74224"/><path fill-rule="evenodd" clip-rule="evenodd" d="m36.97 28.044-3.645-.928a2.075 2.075 0 0 1 .233-1.436l3.894.991a2.083 2.083 0 0 1-.481 1.373Zm-4.762-1.212-.852-.217a9.052 9.052 0 0 1-.4-1.598l1.004.256c.05.589.14 1.114.248 1.559Zm-2.006-.51-2.39-.609a2.08 2.08 0 0 1 2.39.608Z" fill="#E74224"/><path fill-rule="evenodd" clip-rule="evenodd" d="m37.339 27.391-4.024-1.024c.01-.056.02-.113.035-.169.119-.466.387-.856.74-1.13l3.189.812a2.074 2.074 0 0 1 .06 1.511Zm-5.286-1.346-.94-.239a10.189 10.189 0 0 1-.252-1.56l1.062.27c.009.557.058 1.07.13 1.53Z" fill="#E64024"/><path fill-rule="evenodd" clip-rule="evenodd" d="m37.452 26.671-3.893-.99a2.087 2.087 0 0 1 1.745-1.052l1.118.284a2.087 2.087 0 0 1 1.03 1.758Zm-5.492-1.398-1.005-.256a11.348 11.348 0 0 1-.136-1.53l1.115.284c-.025.534-.012 1.038.026 1.502Z" fill="#E63E24"/><path fill-rule="evenodd" clip-rule="evenodd" d="m37.278 25.88-3.189-.812a2.08 2.08 0 0 1 1.793-.375 2.08 2.08 0 0 1 1.396 1.187Zm-5.356-1.364-1.062-.27a12.48 12.48 0 0 1-.036-1.505l1.167.297a11.734 11.734 0 0 0-.069 1.478Z" fill="#E63E24"/><path fill-rule="evenodd" clip-rule="evenodd" d="m36.422 24.913-1.117-.284a2.082 2.082 0 0 1 1.117.284Zm-4.487-1.142-1.115-.284c-.011-.488.006-.984.05-1.483l1.224.312c-.087.505-.138.992-.16 1.455Z" fill="#E63E24"/><path fill-rule="evenodd" clip-rule="evenodd" d="m31.991 23.038-1.167-.297c.017-.485.06-.974.127-1.464l1.287.328c-.116.493-.196.972-.247 1.433Z" fill="#E63C24"/><path fill-rule="evenodd" clip-rule="evenodd" d="m32.094 22.315-1.224-.311c.042-.481.109-.965.198-1.446l1.357.346c-.144.483-.253.954-.331 1.411Z" fill="#E63C24"/><path fill-rule="evenodd" clip-rule="evenodd" d="m32.238 21.605-1.286-.328c.065-.478.154-.955.264-1.428l1.437.366c-.172.473-.308.937-.415 1.39Z" fill="#E63925"/><path fill-rule="evenodd" clip-rule="evenodd" d="m32.425 20.904-1.357-.345c.088-.475.199-.947.33-1.412l1.525.388c-.2.464-.364.921-.498 1.37Z" fill="#E63925"/><path fill-rule="evenodd" clip-rule="evenodd" d="m32.653 20.215-1.436-.366c.11-.472.24-.939.391-1.396l1.627.414c-.228.455-.42.905-.582 1.348Z" fill="#E43924"/><path fill-rule="evenodd" clip-rule="evenodd" d="m32.923 19.535-1.526-.389c.132-.468.284-.93.454-1.38l1.737.443c-.255.445-.476.889-.665 1.326Z" fill="#E23924"/><path fill-rule="evenodd" clip-rule="evenodd" d="m33.235 18.866-1.627-.414c.153-.466.327-.922.518-1.364l1.857.473a13.59 13.59 0 0 0-.748 1.305Z" fill="#E03624"/><path fill-rule="evenodd" clip-rule="evenodd" d="m33.589 18.209-1.737-.442c.175-.464.37-.914.584-1.348l1.985.506a14.08 14.08 0 0 0-.832 1.284Z" fill="#DD3625"/><path fill-rule="evenodd" clip-rule="evenodd" d="m33.983 17.562-1.857-.473c.2-.46.419-.905.656-1.329l2.119.54c-.341.42-.646.842-.919 1.262Z" fill="#D93424"/><path fill-rule="evenodd" clip-rule="evenodd" d="m34.42 16.925-1.985-.506c.226-.458.471-.896.734-1.309l2.256.575c-.37.412-.704.826-1.004 1.24Z" fill="#D53424"/><path fill-rule="evenodd" clip-rule="evenodd" d="m34.901 16.299-2.12-.54c.256-.455.531-.886.824-1.286l1.405.358.602.648c-.253.272-.49.546-.711.82Z" fill="#D13324"/><path fill-rule="evenodd" clip-rule="evenodd" d="m35.425 15.685-2.256-.574c.29-.454.6-.877.928-1.26l1.515 1.628-.187.206Z" fill="#CD3324"/><path fill-rule="evenodd" clip-rule="evenodd" d="m35.01 14.832-1.405-.358c.16-.217.323-.425.492-.623l.913.98Z" fill="#C53024"/></svg>