<svg width="48" height="48" fill="none" xmlns="http://www.w3.org/2000/svg"><path d="M16.18 23.26H6.8c.16-9.34 2-10.88 7.74-14.28.66-.4.88-1.24.48-1.92-.38-.66-1.24-.88-1.9-.48C6.36 10.58 4 13.02 4 24.64v10.78c0 3.42 2.78 6.18 6.18 6.18h6c3.52 0 6.18-2.66 6.18-6.18v-6c0-3.5-2.66-6.16-6.18-6.16Zm21.64 0h-9.38c.16-9.34 2-10.88 7.74-14.28.66-.4.88-1.24.48-1.92-.4-.66-1.24-.88-1.92-.48-6.76 4-9.12 6.44-9.12 18.08v10.78c0 3.42 2.78 6.18 6.18 6.18h6c3.52 0 6.18-2.66 6.18-6.18v-6c.02-3.52-2.64-6.18-6.16-6.18Z" fill="#EB5749"/></svg>