<svg width="32" height="32" fill="none" xmlns="http://www.w3.org/2000/svg"><path d="M29.452 4.444a1.692 1.692 0 0 0-1.671-.36L3.16 12.2A1.678 1.678 0 0 0 2 13.726a1.678 1.678 0 0 0 1.012 1.628L9.1 18.018l1.837 8.52c.077.354.256.67.637.766.385.098.657-.112.944-.327l4.518-3.383 5.283 4.322a1.68 1.68 0 0 0 1.613.293 1.68 1.68 0 0 0 1.102-1.214l4.92-20.918a1.692 1.692 0 0 0-.503-1.633Zm-16.54 15.1a.224.224 0 0 0-.008.025l-1.019 3.559-1.136-5.272 7.815-4.342-5.464 5.713a.822.822 0 0 0-.187.318Zm.324 4.842.462-1.616.443-1.546 1.585 1.297-2.49 1.865ZM28.355 5.7l-4.92 20.919c-.003.01-.006.024-.03.032-.024.009-.036 0-.044-.008l-5.78-4.73-2.678-2.191 8.603-8.996a.822.822 0 0 0-.993-1.287l-12.74 7.078-6.101-2.67c-.019-.008-.029-.012-.027-.044.001-.03.012-.035.03-.04l24.62-8.116c.013-.004.026-.009.046.01.02.017.016.031.014.043Z" fill="#303033"/></svg>