<svg width="32" height="20" fill="none" xmlns="http://www.w3.org/2000/svg"><path d="M16.193 20c4.63 0 2.979-2.93 3.336-3.773-.005-.63-.01-1.235.011-1.603.293.083.985.433 2.415 1.823C24.16 18.673 24.725 20 26.508 20h3.281c1.04 0 1.582-.43 1.852-.792.262-.35.518-.963.238-1.917-.732-2.299-5.002-6.268-5.267-6.687a3.81 3.81 0 0 1 .137-.233h-.002c.842-1.114 4.058-5.932 4.532-7.86a.026.026 0 0 0 .002-.011c.256-.88.022-1.45-.221-1.773C30.695.244 30.113 0 29.328 0h-3.281c-1.099 0-1.932.553-2.354 1.563-.705 1.793-2.686 5.481-4.172 6.786a85.447 85.447 0 0 1 .01-4.31C19.579 1.992 19.733 0 17.609 0h-5.157c-1.33 0-2.604 1.453-1.225 3.179 1.205 1.512.433 2.354.693 6.549-1.013-1.087-2.816-4.021-4.09-7.772C7.471.941 6.93.001 5.406.001H2.125C.795.001 0 .727 0 1.941 0 4.67 6.039 20 16.193 20ZM5.407 2.001c.289 0 .318 0 .533.61 1.305 3.844 4.233 9.532 6.372 9.532 1.607 0 1.607-1.647 1.607-2.267l-.002-4.936c-.088-1.633-.682-2.447-1.073-2.94l4.677.005c.003.023-.026 5.46.014 6.778 0 1.87 1.485 2.942 3.804.596 2.446-2.762 4.138-6.89 4.206-7.058.1-.24.187-.321.502-.321h3.294l-.002.012c-.3 1.4-3.262 5.861-4.252 7.247l-.046.066c-.436.712-.79 1.499.06 2.606.078.093.28.312.574.616.912.941 4.04 4.16 4.317 5.44-.184.029-.384.008-3.484.014-.66 0-1.176-.986-3.145-2.973-1.771-1.723-2.92-2.427-3.967-2.427-2.032 0-1.884 1.65-1.865 3.644.006 2.163-.007 1.479.008 1.615-.119.047-.459.14-1.346.14C7.733 18 2.224 4.572 2.012 2.005c.073-.006 1.083-.002 3.395-.004Z" fill="#303033"/></svg>