<svg width="23" height="27" viewBox="0 0 23 27" fill="none" xmlns="http://www.w3.org/2000/svg">
<g id="Group">
<path id="Vector" d="M15.5777 1.07376C14.0453 1.28293 12.8924 1.92992 12.1676 2.9758C11.6131 3.78331 11.2969 4.99459 11.2969 6.31288V6.93555H11.9439C13.6027 6.93555 14.8675 6.5026 15.7869 5.63185C16.7452 4.71731 17.2316 3.34064 17.2316 1.55048V1.00079L16.6382 1.00565C16.3074 1.01052 15.8306 1.0397 15.5777 1.07376ZM16.1128 2.28503C16.1128 2.56231 15.9668 3.23362 15.816 3.64224C15.4463 4.6638 14.7215 5.32051 13.6173 5.64157C13.2427 5.75346 12.4255 5.88967 12.3817 5.85075C12.3476 5.81183 12.5179 4.87784 12.6249 4.54218C12.946 3.54009 13.6367 2.79094 14.5805 2.43097C14.9648 2.28503 15.6555 2.12936 15.9328 2.1245C16.1079 2.11964 16.1128 2.1245 16.1128 2.28503Z" fill="#303033" stroke="#303033" stroke-width="0.7"/>
<path id="Vector_2" d="M6.41396 7.59667C4.22977 7.9907 2.29854 9.6787 1.47157 11.9213C1.22834 12.578 1.07754 13.3077 1.00944 14.159C0.97052 14.6162 1.05808 16.2556 1.16024 17.0534C1.55427 20.1764 2.63906 22.779 4.19572 24.3502C4.75028 24.9145 5.15404 25.2064 5.75724 25.4885C6.4626 25.8193 6.77394 25.8825 7.60091 25.8777C8.40843 25.8679 8.95812 25.7561 9.65862 25.4399C10.4807 25.075 10.724 24.9826 11.0791 24.9096C11.9498 24.7296 12.8449 24.8804 13.8032 25.3572C14.5134 25.7123 15.248 25.8777 16.1139 25.8777C16.6441 25.8777 16.8436 25.8582 17.1452 25.7707C18.7456 25.3134 20.1028 23.9805 21.1244 21.8596C21.4163 21.2466 22 19.6851 22 19.51C22 19.4662 21.8784 19.4273 21.6498 19.3884C20.8228 19.257 20.239 19.0332 19.6066 18.6052C18.7894 18.0457 18.1375 17.0874 17.8797 16.0464C17.7532 15.5502 17.7678 14.5238 17.9089 14.013C18.1278 13.1958 18.6435 12.3542 19.2175 11.858C19.8207 11.3424 20.2536 11.1137 21.1001 10.8705C21.4649 10.7684 21.6449 10.6954 21.6157 10.6613C21.5962 10.6322 21.4406 10.423 21.2703 10.1992C20.1855 8.7593 18.7845 7.86909 17.1646 7.58694C16.5614 7.47993 15.3258 7.51884 14.7761 7.65991C14.5621 7.71342 13.8859 7.93233 13.2681 8.15123C12.6552 8.37014 12.052 8.55986 11.9304 8.57445C11.7455 8.59391 11.5704 8.55013 10.8358 8.29717C9.4008 7.80099 8.95812 7.66478 8.53004 7.59181C8.01926 7.49938 6.9296 7.50425 6.41396 7.59667ZM8.33546 8.66201C8.55923 8.70093 9.35702 8.94416 10.1062 9.19711L11.4682 9.66411L11.906 9.64465C12.3001 9.62033 12.4655 9.57655 13.487 9.22144C14.9513 8.71066 15.2431 8.63282 15.8998 8.60364C17.0479 8.54526 18.084 8.84686 19.0569 9.51817C19.2467 9.64465 19.4899 9.84896 19.6066 9.96571L19.8207 10.1798L19.4558 10.3792C17.5587 11.4202 16.4495 13.653 16.7511 15.8178C16.9555 17.3063 17.8213 18.7122 19.0375 19.5343C19.3683 19.7629 20.1077 20.1229 20.4287 20.2153L20.6282 20.2786L20.5114 20.5996C20.3169 21.1201 19.8401 22.0541 19.5288 22.526C18.9256 23.4357 18.2932 24.0535 17.5733 24.4378C17.0138 24.7394 16.7171 24.8123 16.0652 24.8026C15.3599 24.7929 14.9561 24.6907 14.1 24.3064C13.3654 23.9708 12.8303 23.82 12.232 23.7762C11.2882 23.7032 10.5099 23.8589 9.50295 24.321C8.8511 24.6226 8.56409 24.7102 7.99008 24.788C6.57449 24.9826 5.28052 24.2335 4.19086 22.6038C2.97958 20.7942 2.22071 18.1528 2.10883 15.3605C2.06991 14.2903 2.11369 13.619 2.27909 12.972C2.85797 10.6468 4.61407 8.96848 6.82258 8.62309C7.12418 8.57445 7.96575 8.59391 8.33546 8.66201Z" fill="#303033" stroke="#303033" stroke-width="0.7"/>
</g>
</svg>
