<svg width="120" height="120" viewBox="0 0 120 120" fill="none" xmlns="http://www.w3.org/2000/svg">
<circle cx="60" cy="60" r="60" fill="#E9E8E8"/>
<path d="M60.3017 54.7273C60.1134 54.7084 59.8873 54.7084 59.6801 54.7273C55.1969 54.5764 51.6367 50.899 51.6367 46.3731C51.6367 41.7528 55.3664 38 60.0004 38C64.6154 38 68.364 41.7528 68.364 46.3731C68.3452 50.899 64.785 54.5764 60.3017 54.7273Z" fill="#B3B3B3"/>
<path d="M47.7251 66.4191C41.7896 70.3475 41.7896 76.7493 47.7251 80.6535C54.4699 85.1154 65.5315 85.1154 72.2764 80.6535C78.2119 76.7251 78.2119 70.3232 72.2764 66.4191C65.556 61.9814 54.4944 61.9814 47.7251 66.4191Z" fill="#B3B3B3"/>
</svg>
