<svg width="24" height="24" viewBox="0 0 24 24" fill="none" xmlns="http://www.w3.org/2000/svg">
<g id="vuesax/linear/bag-2">
<g id="bag-2">
<g id="Group 489">
<path id="Vector" d="M8 8.59073L8 7.66719C8 5.52496 9.60889 3.42081 11.6089 3.22086C13.9911 2.97332 16 4.98226 16 7.48629L16 8.8002" stroke="#EB5749" stroke-width="2" stroke-miterlimit="10" stroke-linecap="round" stroke-linejoin="round"/>
<path id="Subtract" fill-rule="evenodd" clip-rule="evenodd" d="M9.25739 21.3337H14.7426C18.4177 21.3337 19.0759 19.877 19.2679 18.1037L19.9536 12.6751C20.2004 10.4675 19.5604 8.66699 15.6568 8.66699L8.34319 8.66699C4.43955 8.66699 3.79961 10.4675 4.04644 12.6751L4.7321 18.1037C4.92408 19.877 5.5823 21.3337 9.25739 21.3337ZM13.9129 12.0003C13.9129 11.448 14.3606 11.0003 14.9129 11.0003H14.9204C15.4727 11.0003 15.9204 11.448 15.9204 12.0003C15.9204 12.5526 15.4727 13.0003 14.9204 13.0003H14.9129C14.3606 13.0003 13.9129 12.5526 13.9129 12.0003ZM9.07876 11.0003C8.52647 11.0003 8.07876 11.448 8.07876 12.0003C8.07876 12.5526 8.52647 13.0003 9.07876 13.0003H9.08624C9.63853 13.0003 10.0862 12.5526 10.0862 12.0003C10.0862 11.448 9.63853 11.0003 9.08624 11.0003H9.07876Z" fill="#EB5749"/>
</g>
</g>
</g>
</svg>
