<svg width="21" height="21" viewBox="0 0 21 21" fill="none" xmlns="http://www.w3.org/2000/svg">
<g id="vuesax/outline/call">
<g id="call">
<path id="Vector" d="M12.1234 19.307L12.1236 19.3071C13.2095 19.7662 14.264 20.0063 15.2688 20.0063C15.9728 20.0063 16.6417 19.8726 17.2574 19.6227C17.9032 19.3626 18.4578 18.9594 18.9653 18.3985C19.2609 18.0759 19.4939 17.7262 19.6819 17.3235C19.8715 16.9172 19.9713 16.4828 19.9713 16.0475C19.9713 15.7271 19.907 15.4084 19.7718 15.0658L19.7718 15.0658L19.7709 15.0637C19.6229 14.7121 19.3736 14.4176 19.0357 14.189C19.0354 14.1888 19.0351 14.1886 19.0347 14.1884L16.1317 12.1247L16.1311 12.1243C15.8629 11.9366 15.6117 11.8019 15.3777 11.7029L15.377 11.7026C14.7385 11.4381 14.0933 11.4903 13.5832 11.8042C13.3189 11.9415 13.0494 12.1492 12.7744 12.4241C12.7744 12.4242 12.7743 12.4242 12.7743 12.4243L12.2229 12.9681C12.0351 12.8671 11.7301 12.6633 11.2732 12.2785L11.2724 12.2779C10.8735 11.9483 10.4474 11.5485 9.93202 11.0418C9.53178 10.6329 9.13103 10.1886 8.7032 9.69966C8.31077 9.23893 8.10512 8.93184 8.00216 8.75344L8.55023 8.18119C8.80743 7.92389 9.01466 7.6636 9.15162 7.4175C9.34308 7.09788 9.445 6.75703 9.445 6.405C9.445 6.13566 9.38014 5.86016 9.26243 5.58806C9.16249 5.33415 9.0182 5.08242 8.83128 4.82424C8.83118 4.82411 8.83109 4.82398 8.83099 4.82385L6.80239 1.96456C6.58149 1.63372 6.27832 1.38627 5.92224 1.22186C5.61134 1.07562 5.24692 0.99375 4.89125 0.99375C4.03958 0.99375 3.24549 1.33872 2.55573 2.01912C2.01219 2.52728 1.61004 3.1167 1.35947 3.75206L1.35938 3.75231C1.11848 4.36794 0.99375 5.02783 0.99375 5.7225C0.99375 6.72663 1.22478 7.78978 1.68403 8.88492L1.68413 8.88516C2.11626 9.90817 2.72397 10.9646 3.47996 12.0195L3.48059 12.0204C4.22724 13.0393 5.07045 14.0318 6.00146 14.9716L6.00246 14.9726C6.94207 15.8947 7.93443 16.7378 8.96202 17.4931L8.9628 17.4936C10.0003 18.241 11.0655 18.8574 12.1234 19.307Z" fill="#EB5749" stroke="#EB5749" stroke-width="0.2"/>
</g>
</g>
</svg>
