<svg width="19" height="19" viewBox="0 0 19 19" fill="none" xmlns="http://www.w3.org/2000/svg">
<path d="M14.2688 18.9062C13.28 18.9062 12.2388 18.67 11.1625 18.215C10.1125 17.7688 9.05375 17.1563 8.02125 16.4125C6.9975 15.66 6.00875 14.82 5.0725 13.9013C4.145 12.965 3.305 11.9763 2.56125 10.9613C1.80875 9.91125 1.205 8.86125 0.77625 7.84625C0.32125 6.76125 0.09375 5.71125 0.09375 4.7225C0.09375 4.04 0.21625 3.3925 0.4525 2.78875C0.6975 2.1675 1.09125 1.59 1.625 1.09125C2.29875 0.42625 3.06875 0.09375 3.89125 0.09375C4.2325 0.09375 4.5825 0.1725 4.88 0.3125C5.22125 0.47 5.51 0.70625 5.72 1.02125L7.75 3.8825C7.93375 4.13625 8.07375 4.38125 8.17 4.62625C8.28375 4.88875 8.345 5.15125 8.345 5.405C8.345 5.7375 8.24875 6.06125 8.065 6.3675C7.93375 6.60375 7.7325 6.8575 7.47875 7.11125L6.88375 7.7325C6.8925 7.75875 6.90125 7.77625 6.91 7.79375C7.015 7.9775 7.225 8.2925 7.6275 8.765C8.05625 9.255 8.45875 9.70125 8.86125 10.1125C9.3775 10.62 9.80625 11.0225 10.2088 11.355C10.7075 11.775 11.0313 11.985 11.2238 12.0813L11.2063 12.125L11.845 11.495C12.1163 11.2237 12.3788 11.0225 12.6325 10.8913C13.1138 10.5938 13.7263 10.5413 14.3388 10.795C14.5663 10.8913 14.8113 11.0225 15.0738 11.2063L17.9788 13.2712C18.3025 13.49 18.5388 13.77 18.6788 14.1025C18.81 14.435 18.8713 14.7413 18.8713 15.0475C18.8713 15.4675 18.775 15.8875 18.5913 16.2812C18.4075 16.675 18.18 17.0163 17.8913 17.3313C17.3925 17.8825 16.85 18.2762 16.22 18.53C15.6163 18.775 14.96 18.9062 14.2688 18.9062ZM3.89125 1.40625C3.41 1.40625 2.96375 1.61625 2.535 2.03625C2.1325 2.4125 1.8525 2.82375 1.6775 3.27C1.49375 3.725 1.40625 4.20625 1.40625 4.7225C1.40625 5.53625 1.59875 6.42 1.98375 7.33C2.3775 8.2575 2.92875 9.22 3.62875 10.1825C4.32875 11.145 5.125 12.0813 6 12.965C6.875 13.8313 7.82 14.6363 8.79125 15.345C9.73625 16.0363 10.7075 16.5962 11.67 16.9987C13.1663 17.6375 14.5663 17.7863 15.7213 17.305C16.1675 17.1213 16.5613 16.8413 16.92 16.4388C17.1213 16.22 17.2788 15.9838 17.41 15.7038C17.515 15.485 17.5675 15.2575 17.5675 15.03C17.5675 14.89 17.5413 14.75 17.4713 14.5925C17.445 14.54 17.3925 14.4437 17.2263 14.33L14.3213 12.265C14.1463 12.1425 13.9888 12.055 13.84 11.9938C13.6475 11.915 13.5688 11.8363 13.2713 12.02C13.0963 12.1075 12.9388 12.2387 12.7638 12.4137L12.0988 13.07C11.7575 13.4025 11.2325 13.4812 10.83 13.3325L10.5938 13.2275C10.235 13.035 9.815 12.7375 9.35125 12.3438C8.93125 11.985 8.47625 11.565 7.925 11.0225C7.49625 10.585 7.0675 10.1212 6.62125 9.605C6.21 9.12375 5.9125 8.7125 5.72875 8.37125L5.62375 8.10875C5.57125 7.9075 5.55375 7.79375 5.55375 7.67125C5.55375 7.35625 5.6675 7.07625 5.88625 6.8575L6.5425 6.175C6.7175 6 6.84875 5.83375 6.93625 5.685C7.00625 5.57125 7.0325 5.475 7.0325 5.3875C7.0325 5.3175 7.00625 5.2125 6.9625 5.1075C6.90125 4.9675 6.805 4.81 6.6825 4.64375L4.6525 1.77375C4.565 1.65125 4.46 1.56375 4.32875 1.5025C4.18875 1.44125 4.04 1.40625 3.89125 1.40625ZM11.2063 12.1337L11.0663 12.7287L11.3025 12.1163C11.2588 12.1075 11.2238 12.1162 11.2063 12.1337Z" fill="#292D32" stroke="black" stroke-width="0.2"/>
</svg>
