<svg width="20" height="20" viewBox="0 0 20 20" fill="none" xmlns="http://www.w3.org/2000/svg">
<g id="vuesax/linear/trash">
<g id="trash">
<path id="Vector" d="M17.5 4.98356C14.725 4.70856 11.9333 4.56689 9.15 4.56689C7.5 4.56689 5.85 4.65023 4.2 4.81689L2.5 4.98356" stroke="white" stroke-width="1.5" stroke-linecap="round" stroke-linejoin="round"/>
<path id="Vector_2" d="M7.08203 4.1415L7.26536 3.04984C7.3987 2.25817 7.4987 1.6665 8.90703 1.6665H11.0904C12.4987 1.6665 12.607 2.2915 12.732 3.05817L12.9154 4.1415" stroke="white" stroke-width="1.5" stroke-linecap="round" stroke-linejoin="round"/>
<path id="Vector_3" d="M15.7096 7.6167L15.168 16.0084C15.0763 17.3167 15.0013 18.3334 12.6763 18.3334H7.3263C5.0013 18.3334 4.9263 17.3167 4.83464 16.0084L4.29297 7.6167" stroke="white" stroke-width="1.5" stroke-linecap="round" stroke-linejoin="round"/>
<path id="Vector_4" d="M8.60938 13.75H11.3844" stroke="white" stroke-width="1.5" stroke-linecap="round" stroke-linejoin="round"/>
<path id="Vector_5" d="M7.91797 10.4165H12.0846" stroke="white" stroke-width="1.5" stroke-linecap="round" stroke-linejoin="round"/>
</g>
</g>
</svg>
