<svg width="25" height="25" viewBox="0 0 25 25" fill="none" xmlns="http://www.w3.org/2000/svg">
<g id="Group">
<path id="Vector" d="M11.638 1.01173C9.91996 1.18714 8.61565 1.56493 7.23039 2.28455C6.11498 2.86024 5.31891 3.45393 4.37441 4.39843C3.41642 5.36091 2.79125 6.22445 2.19757 7.42082C0.587429 10.6546 0.600922 14.4191 2.23805 17.6484C2.85422 18.8717 3.55135 19.8207 4.52283 20.7562C5.44034 21.6422 6.32637 22.2674 7.45527 22.8206C8.29182 23.2344 8.83154 23.4323 9.69957 23.6527C12.3577 24.3228 15.0877 24.044 17.5434 22.8431C18.7353 22.2629 19.6528 21.6018 20.6377 20.6213C21.6272 19.6273 22.2479 18.7638 22.8371 17.5584C23.2554 16.7039 23.4577 16.1597 23.6691 15.3096C23.9435 14.2212 24.002 13.713 24.002 12.4986C24.002 11.4552 23.939 10.8255 23.7591 9.98895L23.7051 9.75507H17.8402H11.9754V12.4986V15.2422H14.9213C16.5404 15.2422 17.8672 15.2601 17.8672 15.2781C17.8672 15.3006 17.7233 15.539 17.5434 15.8088C15.4475 18.9977 10.9634 19.4519 8.26034 16.7533C5.96207 14.4506 5.8946 10.7625 8.11192 8.3878C9.33077 7.0835 10.9949 6.40886 12.7849 6.48531C14.3096 6.55278 15.6094 7.11498 16.7203 8.18991L17.1746 8.62617L19.0951 6.7057C20.152 5.64876 21.0155 4.76273 21.0155 4.73125C21.0155 4.67278 20.089 3.80924 19.6393 3.44943C18.0966 2.22158 16.1626 1.39403 14.1252 1.09269C13.68 1.02972 12.0113 0.975748 11.638 1.01173ZM13.1852 2.10914C15.4025 2.26206 17.413 3.05364 19.1221 4.4479L19.4819 4.74024L18.317 5.90512L17.1566 7.07L16.8238 6.82713C15.1102 5.54981 13.0323 5.09106 10.9904 5.53182C8.57967 6.05354 6.56924 7.84809 5.77317 10.1913C5.48532 11.0279 5.43585 11.3832 5.43135 12.4761C5.43135 13.3487 5.44484 13.5196 5.53479 13.9288C5.67872 14.572 5.82714 15.0083 6.088 15.557C7.04599 17.5674 8.86752 18.9976 11.0938 19.4789C11.7145 19.6138 13.2212 19.6273 13.8419 19.5014C15.3036 19.2045 16.4775 18.5704 17.5344 17.5179C18.3889 16.6589 18.8252 15.9663 19.266 14.7699L19.4819 14.1852L16.2796 14.1627L13.0773 14.1402V12.4986V10.857L17.9077 10.8435C20.5658 10.839 22.7561 10.848 22.7741 10.866C22.9045 10.9964 22.963 12.9394 22.8641 13.713C22.5492 16.0967 21.5283 18.1926 19.8687 19.8522C16.7338 22.987 12.0203 23.7966 8.02197 21.8896C5.84063 20.8462 4.0281 18.9977 3.03413 16.7983C2.40896 15.4131 2.11212 14.0323 2.11212 12.4986C2.11212 10.9649 2.40896 9.58416 3.03413 8.1989C4.52733 4.89316 7.70264 2.5724 11.3007 2.15862C11.6875 2.11364 11.8809 2.09565 12.3801 2.07316C12.4656 2.06867 12.8299 2.08666 13.1852 2.10914Z" fill="#303033" stroke="#303033" stroke-width="0.6"/>
</g>
</svg>
