<svg width="36" height="36" viewBox="0 0 36 36" fill="none" xmlns="http://www.w3.org/2000/svg">
<g id="Frame" clip-path="url(#clip0_2130_20971)">
<g id="Group">
<path id="Vector" d="M10.7631 8.60592C9.86016 8.66985 8.98663 8.95386 8.21877 9.43316C7.45091 9.91246 6.81207 10.5725 6.35804 11.3555C5.63049 12.626 5.43436 14.1324 5.81238 15.5468C6.1904 16.9612 7.11194 18.1689 8.3763 18.907C9.28339 19.4286 10.2698 19.644 11.245 19.6214C10.8814 17.9417 11.152 16.1869 12.0047 14.6947C12.9117 13.113 14.3744 12.0415 16.0072 11.5313C15.5315 10.6105 14.8041 9.84369 13.9095 9.32025C12.9564 8.77124 11.8599 8.52231 10.7631 8.60592ZM24.8343 16.6847C25.2084 18.3344 25.0157 20.1259 24.1086 21.6906C23.2508 23.1615 21.8767 24.2608 20.2535 24.7747C20.7294 25.6954 21.4568 26.4621 22.3511 26.9858C23.6226 27.7169 25.1318 27.915 26.5489 27.5368C27.966 27.1586 29.1758 26.2349 29.9139 24.9675C30.6396 23.6936 30.8334 22.1849 30.4534 20.769C30.0735 19.353 29.1503 18.1441 27.8843 17.4047C26.9595 16.8727 25.8994 16.6224 24.8343 16.6847ZM6.37504 19.4003L6.34103 19.4569C5.61594 20.7291 5.42239 22.2361 5.80246 23.6502C6.18252 25.0643 7.10548 26.2712 8.37063 27.0084C9.64057 27.7398 11.1484 27.9386 12.5645 27.5615C13.9806 27.1843 15.1898 26.2619 15.9278 24.9958L16.0128 24.8258C15.1058 24.5388 14.2678 24.0673 13.5517 23.4409C12.8356 22.8146 12.2568 22.0469 11.8516 21.1861C10.8643 21.2942 9.86526 21.1909 8.92098 20.883C7.9767 20.5751 7.10882 20.0696 6.37504 19.4003ZM18.8418 25.0582C18.445 25.0695 18.0084 25.0299 17.6116 25.0809C15.9675 27.6888 14.7883 28.3577 13.0932 28.8283C13.5713 29.8054 14.329 30.6184 15.2702 31.164C16.5428 31.8909 18.0512 32.0855 19.4667 31.7053C20.8821 31.3252 22.09 30.4011 22.8273 29.1344C22.8727 29.0551 22.9067 28.9757 22.9407 28.8906C22.4588 28.7432 22.0053 28.4938 21.5177 28.284C20.2988 27.7738 19.3577 26.6229 18.8418 25.0582ZM6.54512 27.0708C6.38638 27.2749 6.22764 27.4677 6.09158 27.7001C5.36416 28.9745 5.1693 30.4846 5.54938 31.9019C5.92945 33.3192 6.85372 34.5291 8.12119 35.2686C9.39387 35.9955 10.9022 36.19 12.3177 35.8099C13.7331 35.4297 14.9411 34.5057 15.6784 33.239C15.735 33.1426 15.7691 33.0462 15.8201 32.9499C14.8469 32.6177 13.9607 32.0715 13.2268 31.3513C12.4928 30.6311 11.9299 29.7553 11.5795 28.7886C10.6682 28.8522 9.75339 28.733 8.88885 28.438C8.02431 28.143 7.22746 27.6782 6.54512 27.0708Z" fill="#51C878"/>
<path id="Vector_2" d="M20.8685 13.4192C19.5953 12.6905 18.0856 12.495 16.6688 12.8752C15.252 13.2554 14.043 14.1806 13.3057 15.4488C12.5811 16.7216 12.3884 18.2291 12.7696 19.6433C13.1507 21.0575 14.0749 22.264 15.341 23.0003C16.6104 23.7298 18.1169 23.9276 19.5316 23.5506C20.9463 23.1735 22.1545 22.2522 22.8925 20.9877C23.6199 19.7133 23.8148 18.2032 23.4347 16.7859C23.0546 15.3686 22.1303 14.1586 20.8629 13.4192H20.8685Z" fill="#51C878"/>
<path id="Vector_3" d="M28.0184 7.34184C25.592 7.37019 23.6134 8.12987 22.094 9.29208C20.5746 10.4543 19.4861 11.9566 18.5734 13.476C18.369 13.8168 18.3079 14.2247 18.4035 14.6104C18.4992 14.9961 18.7437 15.3282 19.0836 15.534C19.4244 15.7384 19.8323 15.7994 20.218 15.7038C20.6037 15.6082 20.9358 15.3637 21.1416 15.0237C21.975 13.6461 22.848 12.4725 23.9082 11.6732C24.9627 10.8625 26.1929 10.3636 28.0468 10.3409C28.4442 10.3364 28.8237 10.1746 29.1021 9.89087C29.3805 9.60716 29.5351 9.22468 29.5321 8.8272C29.5276 8.42973 29.3658 8.05024 29.0821 7.77184C28.7984 7.49343 28.4159 7.33882 28.0184 7.34184Z" fill="#51C878"/>
<path id="Vector_4" d="M17.9634 0.0793802C17.3738 0.017018 16.9713 -0.15873 16.1039 0.340168C15.2365 0.844735 15.1968 1.26993 14.953 1.81418C14.6792 2.43048 14.4813 3.07773 14.3634 3.74174C14.1026 5.21576 14.114 7.05828 15.0834 8.74773C16.0586 10.4372 17.6573 11.3726 19.0633 11.8828C19.7606 12.1323 20.4239 12.274 21.0192 12.3364C21.6145 12.3988 22 12.5688 22.8674 12.0699C23.7404 11.5654 23.7858 11.1402 24.0296 10.5959C24.2995 9.97911 24.4937 9.33188 24.6078 8.66836C24.8743 7.20001 24.863 5.35182 23.8878 3.66237C22.9127 1.97859 21.3253 1.03749 19.9193 0.532924C19.2787 0.277805 18.5587 0.192766 17.9634 0.0793802Z" fill="#51C878"/>
</g>
</g>
<defs>
<clipPath id="clip0_2130_20971">
<rect width="36" height="36" fill="white"/>
</clipPath>
</defs>
</svg>
