<svg width="64" height="74" viewBox="0 0 64 74" fill="none" xmlns="http://www.w3.org/2000/svg">
<g id="pin">
<path id="Vector" d="M1.87274 24.3698C8.95518 -6.81394 55.0809 -6.77793 62.1274 24.4059C66.2618 42.6984 54.9011 58.1823 44.9426 67.7607C37.7163 74.7464 26.2838 74.7464 19.0216 67.7607C9.09898 58.1823 -2.26167 42.6624 1.87274 24.3698Z" fill="white" stroke="#303033" stroke-width="1.5"/>
<g id="Group 1177">
<path id="path120" d="M29.9707 52.3261C26.655 47.1965 23.4839 39.375 22.6572 33.6105C22.1674 30.1933 23.1529 26.4133 26.0133 25.0753C26.2951 24.9435 26.2509 24.7276 25.8936 24.6257C23.3043 23.887 23.8609 21.3416 25.8676 20.4501C29.2325 18.9552 33.2971 17.9382 37.708 18.0604C39.6176 18.1133 40.7043 19.0139 40.8783 20.1711C41.0189 21.1071 40.5785 22.2253 39.368 23.0903C38.8931 23.4296 38.2721 24.0093 39.0235 24.2488C41.9059 25.1681 42.9181 27.878 42.7342 31.3346C42.5046 35.6534 39.8088 45.7187 36.8668 52.0599C35.2039 55.6472 31.9931 55.4546 29.9707 52.3261Z" fill="#303033"/>
<path id="path122" fill-rule="evenodd" clip-rule="evenodd" d="M31.1947 49.7602L34.6788 50.6472C34.1164 50.9671 33.4344 51.0783 32.758 50.9061C32.0815 50.7339 31.5356 50.3101 31.1947 49.7602Z" fill="#F7A709"/>
<path id="path124" fill-rule="evenodd" clip-rule="evenodd" d="M30.8612 48.9275L35.3713 50.0757C34.7503 50.8036 33.7485 51.1584 32.7586 50.9064C31.7687 50.6544 31.0585 49.8637 30.8612 48.9275Z" fill="#F7A709"/>
<path id="path126" fill-rule="evenodd" clip-rule="evenodd" d="M34.679 50.6468L31.195 49.7599C30.9062 49.2941 30.7647 48.7379 30.8156 48.1674L35.7737 49.4297C35.5455 49.955 35.1553 50.3758 34.679 50.6468Z" fill="#F6A40C"/>
<path id="path128" fill-rule="evenodd" clip-rule="evenodd" d="M35.3704 50.0753L30.8602 48.9271C30.781 48.5514 30.7842 48.1522 30.8854 47.755C30.911 47.6541 30.9425 47.5563 30.9789 47.4615L35.9669 48.7313C35.9536 48.832 35.9344 48.933 35.9087 49.0338C35.8076 49.4311 35.6196 49.7832 35.3704 50.0753Z" fill="#F6A10E"/>
<path id="path130" fill-rule="evenodd" clip-rule="evenodd" d="M35.773 49.4302L30.815 48.1679C30.8271 48.0308 30.8502 47.8929 30.8853 47.7553C30.9758 47.3996 31.136 47.0802 31.3474 46.8076L35.9559 47.9809C36.0112 48.3214 35.9991 48.6785 35.9086 49.0341C35.8736 49.1718 35.8279 49.3039 35.773 49.4302Z" fill="#F59D10"/>
<path id="path132" fill-rule="evenodd" clip-rule="evenodd" d="M35.9668 48.7314L30.9788 47.4616C31.1798 46.9387 31.5382 46.5116 31.9843 46.2217L35.6765 47.1617C35.9297 47.6296 36.0402 48.1761 35.9668 48.7314ZM27.9142 45.1855L30.6785 45.8893C30.2146 46.0434 29.7025 46.0708 29.1935 45.9413C28.6846 45.8117 28.248 45.5427 27.9142 45.1855Z" fill="#F49A12"/>
<path id="path134" fill-rule="evenodd" clip-rule="evenodd" d="M35.9561 47.98L31.3475 46.8067C31.8107 46.2092 32.5202 45.837 33.2844 45.804L34.7346 46.1732C35.3899 46.5676 35.835 47.2337 35.9561 47.98ZM27.3656 44.2972L31.5852 45.3714C30.952 45.9219 30.0683 46.1632 29.1937 45.9405C28.3191 45.7179 27.6584 45.0834 27.3656 44.2972Z" fill="#F49614"/>
<path id="path136" fill-rule="evenodd" clip-rule="evenodd" d="M35.6769 47.1619L31.9847 46.2219C32.5703 45.8414 33.3068 45.6972 34.0368 45.883C34.7668 46.0689 35.3445 46.5477 35.6769 47.1619ZM30.6788 45.8894L27.9146 45.1857C27.492 44.7335 27.2342 44.1398 27.203 43.5087L32.1059 44.7569C31.7766 45.2962 31.2663 45.6944 30.6788 45.8894Z" fill="#F39315"/>
<path id="path138" fill-rule="evenodd" clip-rule="evenodd" d="M34.735 46.1742L33.2847 45.805C33.5319 45.7944 33.7847 45.819 34.037 45.8832C34.2891 45.9474 34.5229 46.0467 34.735 46.1742ZM31.5855 45.3725L27.366 44.2982C27.1905 43.8272 27.1473 43.3019 27.2693 42.7778L32.3975 44.0833C32.254 44.6019 31.9648 45.0427 31.5855 45.3725ZM34.6403 44.6543L36.4748 45.1213C36.1626 45.1735 35.8349 45.1634 35.5085 45.0803C35.1822 44.9972 34.8894 44.8494 34.6403 44.6543Z" fill="#F28F17"/>
<path id="path140" fill-rule="evenodd" clip-rule="evenodd" d="M32.1063 44.7565L27.2034 43.5083C27.1906 43.2505 27.2156 42.9865 27.2826 42.7233C27.3396 42.4992 27.4238 42.2891 27.5305 42.0957L32.4944 43.3594C32.4957 43.5804 32.4692 43.8051 32.4122 44.0292C32.3452 44.2924 32.2409 44.5362 32.1063 44.7565ZM33.9272 43.7242L37.5461 44.6455C36.9916 45.0835 36.2465 45.2675 35.5088 45.0797C34.7711 44.8919 34.2048 44.3741 33.9272 43.7242Z" fill="#F28E17"/>
<path id="path142" fill-rule="evenodd" clip-rule="evenodd" d="M36.4748 45.1213L34.6404 44.6543C34.1102 44.2391 33.7778 43.6092 33.7415 42.9296L38.089 44.0364C37.732 44.6159 37.1389 45.0102 36.4748 45.1213ZM32.3975 44.0833L27.2693 42.7777C27.2736 42.7598 27.2777 42.7417 27.2822 42.7238C27.4085 42.2279 27.6672 41.8009 28.0107 41.4706L32.3713 42.5807C32.5151 43.0351 32.5381 43.5338 32.4119 44.0297C32.4073 44.0477 32.4026 44.0655 32.3975 44.0833Z" fill="#F18A19"/>
<path id="path144" fill-rule="evenodd" clip-rule="evenodd" d="M37.5462 44.6456L33.9273 43.7243C33.7317 43.2664 33.6793 42.743 33.8116 42.2231L33.8177 42.2006L38.371 43.3598L38.3655 43.3825C38.2332 43.9023 37.9369 44.337 37.5462 44.6456ZM32.4945 43.3596L27.5306 42.0959C27.824 41.5643 28.2885 41.1582 28.8333 40.9317L31.9071 41.7142C32.2773 42.1737 32.4911 42.7524 32.4945 43.3596Z" fill="#F18719"/>
<path id="path146" fill-rule="evenodd" clip-rule="evenodd" d="M33.9178 41.9024C33.9725 41.7703 34.0383 41.6453 34.1139 41.5282L38.4319 42.6275C38.4422 42.7665 38.4403 42.9077 38.4252 43.0499L33.9178 41.9024ZM31.4588 41.2764L29.4358 40.7614C29.7802 40.707 30.1408 40.7202 30.5 40.8116C30.8593 40.9031 31.1824 41.064 31.4588 41.2764ZM27.735 40.3284L25.8307 39.8436C25.6362 39.6864 25.4692 39.5002 25.3347 39.2931L28.4338 40.0821C28.2166 40.1996 27.9809 40.2833 27.735 40.3284ZM38.089 44.036L33.7415 42.9292C33.7291 42.6974 33.751 42.4599 33.8113 42.2232C33.8396 42.1122 33.8753 42.0052 33.9178 41.9024L38.4252 43.0499C38.4134 43.1605 38.3935 43.2716 38.3652 43.3825C38.305 43.6192 38.2107 43.8384 38.089 44.036ZM25.8307 39.8436L27.735 40.3284C27.4112 40.3876 27.0699 40.3798 26.73 40.2932C26.3903 40.2067 26.0867 40.0504 25.8307 39.8436ZM29.4358 40.7614L31.4588 41.2764C31.8909 41.6083 32.2086 42.0659 32.3714 42.5804L28.0109 41.4703C28.3998 41.0963 28.8977 40.8463 29.4358 40.7614Z" fill="#F0831A"/>
<path id="path148" fill-rule="evenodd" clip-rule="evenodd" d="M38.3711 43.3594L33.8178 42.2002C33.9584 41.6698 34.2701 41.2295 34.6782 40.9234L38.2259 41.8266C38.4381 42.2906 38.5013 42.8264 38.3711 43.3594ZM31.9072 41.7138L28.8334 40.9313C29.3435 40.7192 29.9239 40.6644 30.5004 40.8112C31.077 40.958 31.5606 41.2836 31.9072 41.7138ZM24.9969 38.4587L29.1301 39.5109C28.5667 40.1908 27.6429 40.5251 26.7304 40.2928C25.8179 40.0605 25.1665 39.3252 24.9969 38.4587ZM31.6703 40.1576L32.7311 40.4277C32.5503 40.4323 32.366 40.4125 32.1821 40.3657C31.9982 40.3189 31.8268 40.2481 31.6703 40.1576Z" fill="#F0821B"/>
<path id="path150" fill-rule="evenodd" clip-rule="evenodd" d="M38.4316 42.627L34.1136 41.5277C34.4955 40.936 35.1269 40.5462 35.8239 40.4672L37.4367 40.8778C38.011 41.2805 38.3791 41.9247 38.4316 42.627ZM28.4335 40.0816L25.3344 39.2926C25.0367 38.8345 24.8981 38.2748 24.9724 37.7046L29.5109 38.86C29.3035 39.3964 28.914 39.8216 28.4335 40.0816ZM30.8225 39.1939L33.9352 39.9864C33.4595 40.3668 32.8172 40.5275 32.1814 40.3656C31.5457 40.2038 31.0585 39.7556 30.8225 39.1939Z" fill="#EF7D1C"/>
<path id="path152" fill-rule="evenodd" clip-rule="evenodd" d="M38.2256 41.8271L34.6779 40.924C35.2272 40.5123 35.9511 40.3435 36.668 40.526C37.3851 40.7086 37.9401 41.2029 38.2256 41.8271ZM32.7308 40.4283L31.6699 40.1582C31.0484 39.7988 30.662 39.1277 30.6661 38.4068L34.4499 39.3701C34.1089 40.0052 33.4486 40.4098 32.7308 40.4283ZM29.1297 39.5115L24.9966 38.4593C24.9315 38.127 24.9372 37.7755 25.0262 37.4256C25.0634 37.2797 25.1136 37.1405 25.1749 37.0089L29.6666 38.1523C29.6576 38.2973 29.635 38.4436 29.5979 38.5895C29.5088 38.9394 29.3457 39.2508 29.1297 39.5115Z" fill="#EF7B1D"/>
<path id="path154" fill-rule="evenodd" clip-rule="evenodd" d="M37.4371 40.8781L35.8243 40.4675C36.0991 40.4363 36.3841 40.4534 36.6681 40.5257C36.9521 40.598 37.2105 40.7193 37.4371 40.8781ZM33.9356 39.9867L30.8229 39.1943C30.6593 38.8049 30.6165 38.361 30.7287 37.9202C30.7486 37.8421 30.7728 37.7663 30.8011 37.6929L34.6727 38.6785C34.6624 38.7565 34.6475 38.8347 34.6276 38.9127C34.5154 39.3536 34.2654 39.723 33.9356 39.9867ZM29.5113 38.8604L24.9728 37.7049C24.985 37.6119 25.0026 37.5185 25.0263 37.4253C25.1309 37.0145 25.3375 36.6567 25.612 36.3718L29.5873 37.3839C29.6922 37.7653 29.7025 38.1784 29.5979 38.5892C29.5742 38.6824 29.5451 38.7728 29.5113 38.8604ZM36.7931 39.2183L37.8458 39.4863C37.6667 39.4816 37.4854 39.4571 37.3045 39.411C37.1236 39.365 36.9527 39.2998 36.7931 39.2183Z" fill="#EE771D"/>
<path id="path156" fill-rule="evenodd" clip-rule="evenodd" d="M34.4503 39.3699L30.6665 38.4066C30.6675 38.246 30.6877 38.0829 30.7291 37.9203C30.8151 37.5822 30.982 37.2862 31.204 37.0476L34.6281 37.9193C34.7089 38.235 34.714 38.5748 34.6279 38.9129C34.5865 39.0755 34.5264 39.2284 34.4503 39.3699ZM29.667 38.1521L25.1753 37.0086C25.4292 36.4639 25.877 36.0489 26.4114 35.8274L29.1463 36.5237C29.5097 36.9737 29.7046 37.5524 29.667 38.1521ZM35.7578 38.2069L39.2395 39.0932C38.687 39.4509 37.993 39.5863 37.3049 39.4111C36.6168 39.236 36.0719 38.7852 35.7578 38.2069Z" fill="#EE751E"/>
<path id="path158" fill-rule="evenodd" clip-rule="evenodd" d="M37.8454 39.4869L36.7928 39.2189C36.0808 38.8554 35.5978 38.1662 35.4852 37.3902L39.8684 38.5061C39.3984 39.1338 38.6445 39.5081 37.8454 39.4869ZM34.6723 38.6791L30.8008 37.6935C31.02 37.1226 31.4809 36.6988 32.0331 36.5114L34.1554 37.0517C34.5506 37.4803 34.7528 38.0729 34.6723 38.6791ZM29.587 37.3845L25.6117 36.3724C26.1808 35.7819 27.0422 35.5052 27.8937 35.722C28.7453 35.9388 29.3695 36.5937 29.587 37.3845Z" fill="#EE731E"/>
<path id="path160" fill-rule="evenodd" clip-rule="evenodd" d="M39.2392 39.0936L35.7576 38.2072C35.5054 37.7429 35.4021 37.1963 35.4931 36.644L40.219 37.8471C40.0349 38.3757 39.6828 38.8064 39.2392 39.0936ZM34.6279 37.9196L31.2038 37.0479C31.6887 36.5266 32.436 36.2794 33.1746 36.4674C33.9132 36.6554 34.4512 37.2299 34.6279 37.9196ZM29.146 36.524L26.4111 35.8278C26.8651 35.6397 27.3814 35.5913 27.8941 35.7219C28.4069 35.8524 28.8372 36.1418 29.146 36.524ZM24.5395 33.8554L27.4098 34.5862C26.9387 34.8132 26.3882 34.8821 25.8418 34.7429C25.2953 34.6038 24.8448 34.2801 24.5395 33.8554Z" fill="#ED701F"/>
<path id="path162" fill-rule="evenodd" clip-rule="evenodd" d="M39.8685 38.5059L35.4853 37.39C35.4404 37.0806 35.4542 36.7574 35.5362 36.4356C35.5795 36.2654 35.6398 36.1039 35.7147 35.9525L40.3542 37.1337C40.3475 37.3024 40.3234 37.4731 40.2801 37.6433C40.1981 37.9651 40.0557 38.2556 39.8685 38.5059ZM34.1554 37.0514L32.0332 36.5111C32.389 36.3903 32.7828 36.3677 33.1742 36.4673C33.5656 36.567 33.9006 36.7751 34.1554 37.0514ZM24.1599 33.0109L28.1464 34.0258C27.5927 34.6585 26.7119 34.9645 25.8414 34.7429C24.9709 34.5213 24.3435 33.8313 24.1599 33.0109ZM30.3308 34.5819L33.287 35.3345C32.7887 35.4811 32.2458 35.5 31.7059 35.3626C31.1661 35.2252 30.6983 34.9489 30.3308 34.5819Z" fill="#ED6C20"/>
<path id="path164" fill-rule="evenodd" clip-rule="evenodd" d="M40.2186 37.8463L35.4928 36.6432C35.5042 36.5738 35.5185 36.5043 35.5362 36.4349C35.6475 35.9975 35.8703 35.6181 36.1663 35.3189L40.2602 36.3611C40.3772 36.7655 40.3914 37.2052 40.28 37.6426C40.2624 37.712 40.2417 37.7799 40.2186 37.8463ZM27.4094 34.5854L24.5391 33.8546C24.2134 33.4015 24.0533 32.8334 24.1191 32.2519L28.5447 33.3785C28.3244 33.9208 27.9122 34.3431 27.4094 34.5854ZM29.7077 33.6746L34.2676 34.8355C33.5648 35.3743 32.6308 35.5973 31.7059 35.3619C30.781 35.1264 30.0674 34.4839 29.7077 33.6746Z" fill="#EC6820"/>
<path id="path166" fill-rule="evenodd" clip-rule="evenodd" d="M40.3545 37.1333L35.715 35.9522C35.9822 35.4116 36.4357 34.9996 36.9738 34.7768L39.811 35.4991C40.177 35.952 40.3783 36.5308 40.3545 37.1333ZM33.2873 35.3341L30.3311 34.5815C29.8707 34.1218 29.568 33.5196 29.4782 32.8685L34.8555 34.2375C34.4653 34.7664 33.9114 35.1505 33.2873 35.3341ZM28.1467 34.0254L24.1602 33.0105C24.0835 32.6681 24.084 32.3031 24.1765 31.9398C24.2109 31.8049 24.2564 31.6758 24.3121 31.5533L28.7101 32.673C28.7003 32.8071 28.6787 32.9423 28.6443 33.0772C28.5518 33.4405 28.3777 33.7614 28.1467 34.0254Z" fill="#EB6321"/>
<path id="path168" fill-rule="evenodd" clip-rule="evenodd" d="M40.2607 36.3618L36.1668 35.3196C36.7574 34.7226 37.6398 34.4454 38.5125 34.6676C39.3851 34.8897 40.0276 35.5551 40.2607 36.3618ZM34.2681 34.8362L29.7082 33.6753C29.4962 33.1981 29.4073 32.663 29.4706 32.119L35.2211 33.583C35.0166 34.091 34.6825 34.5185 34.2681 34.8362ZM28.5452 33.3793L24.1196 32.2526C24.1314 32.1487 24.1502 32.0443 24.1767 31.9401C24.2783 31.5411 24.4784 31.1933 24.7442 30.9157L28.6359 31.9065C28.7367 32.2774 28.7461 32.6785 28.6445 33.0776C28.618 33.1818 28.5846 33.2824 28.5452 33.3793Z" fill="#EB5F22"/>
<path id="path170" fill-rule="evenodd" clip-rule="evenodd" d="M39.8105 35.499L36.9734 34.7767C37.4443 34.5818 37.9799 34.5317 38.5118 34.6671C39.0437 34.8025 39.4902 35.1026 39.8105 35.499ZM34.8551 34.2375L29.4777 32.8685C29.4265 32.4965 29.4446 32.1085 29.543 31.7221C29.5699 31.6165 29.6023 31.5137 29.6394 31.4138L35.4087 32.8826C35.3936 32.9881 35.3728 33.0938 35.3459 33.1994C35.2475 33.5858 35.078 33.9352 34.8551 34.2375ZM28.7096 32.6729L24.3116 31.5533C24.5604 31.0051 25.0092 30.589 25.5454 30.3715L28.191 31.0451C28.558 31.4924 28.7533 32.0725 28.7096 32.6729Z" fill="#EA5C22"/>
<path id="path172" fill-rule="evenodd" clip-rule="evenodd" d="M35.2205 33.5829L29.47 32.1189C29.4853 31.9871 29.5093 31.8547 29.543 31.7225C29.6339 31.3654 29.7856 31.0399 29.9841 30.754L35.4216 32.1383C35.4592 32.4843 35.4368 32.8427 35.3459 33.1998C35.3122 33.332 35.2701 33.4598 35.2205 33.5829ZM28.6353 31.9064L24.7435 30.9157C25.2997 30.3351 26.1439 30.0624 26.9787 30.2749C27.8134 30.4874 28.4245 31.1306 28.6353 31.9064ZM36.7565 32.4781L39.8 33.2529C39.3009 33.496 38.7165 33.5706 38.1363 33.4229C37.5563 33.2752 37.0787 32.9302 36.7565 32.4781Z" fill="#EA5822"/>
<path id="path174" fill-rule="evenodd" clip-rule="evenodd" d="M35.4086 32.8825L29.6393 31.4138C29.8282 30.9057 30.1451 30.4746 30.5431 30.148L35.2201 31.3387C35.4135 31.8158 35.4856 32.346 35.4086 32.8825ZM28.1909 31.045L25.5453 30.3715C25.9851 30.1932 26.4835 30.1484 26.9786 30.2745C27.4737 30.4005 27.8901 30.6782 28.1909 31.045ZM27.3869 29.3445L28.8381 29.7139C28.5909 29.7434 28.3341 29.7288 28.0783 29.6637C27.8225 29.5985 27.59 29.4886 27.3869 29.3445ZM36.3709 31.6316L40.5432 32.6938C39.9579 33.3424 39.0418 33.653 38.1363 33.4225C37.2309 33.192 36.5749 32.4811 36.3709 31.6316Z" fill="#E95323"/>
<path id="path176" fill-rule="evenodd" clip-rule="evenodd" d="M39.7997 33.2529L36.7562 32.4781C36.4303 32.0206 36.2638 31.4532 36.312 30.8691L40.9592 32.0522C40.7221 32.5882 40.3047 33.0069 39.7997 33.2529ZM35.4213 32.1382L29.9838 30.754C30.3469 30.2308 30.867 29.8407 31.4591 29.6337L34.6613 30.4489C35.0824 30.9138 35.3525 31.5051 35.4213 32.1382ZM26.6544 28.4105L29.9278 29.2438C29.432 29.6574 28.7516 29.8355 28.078 29.664C27.4045 29.4926 26.8922 29.0108 26.6544 28.4105Z" fill="#E84E23"/>
<path id="path178" fill-rule="evenodd" clip-rule="evenodd" d="M40.544 32.6938L36.3717 31.6317C36.2825 31.2601 36.2796 30.862 36.3805 30.466C36.407 30.3616 36.4401 30.2606 36.4789 30.1631L41.152 31.3528C41.1395 31.4569 41.1203 31.5615 41.0937 31.6659C40.9929 32.0619 40.8 32.4101 40.544 32.6938ZM35.221 31.3387L30.5439 30.148C31.2548 29.5645 32.2242 29.315 33.1838 29.5593C34.1435 29.8037 34.8756 30.4863 35.221 31.3387ZM28.8389 29.7139L27.3877 29.3445C26.8367 28.9535 26.5025 28.3106 26.5095 27.6251L30.4325 28.6238C30.1108 29.2292 29.5098 29.6341 28.8389 29.7139Z" fill="#E84C24"/>
<path id="path180" fill-rule="evenodd" clip-rule="evenodd" d="M40.9601 32.0517L36.313 30.8686C36.324 30.7348 36.3461 30.6002 36.3804 30.4658C36.4724 30.1041 36.6412 29.7824 36.8648 29.5132L41.1236 30.5974C41.1912 30.9407 41.1856 31.304 41.0936 31.6657C41.0593 31.8001 41.0144 31.9289 40.9601 32.0517ZM34.6622 30.4483L31.4601 29.6331C31.9964 29.4457 32.5919 29.4084 33.1837 29.5591C33.7755 29.7098 34.2807 30.0273 34.6622 30.4483ZM29.9287 29.2433L26.6554 28.4099C26.4995 28.0164 26.4616 27.572 26.574 27.1305C26.5932 27.0552 26.6164 26.9821 26.6431 26.9109L30.6564 27.9327C30.6458 28.0079 30.6311 28.0832 30.612 28.1585C30.4996 28.6 30.2538 28.9722 29.9287 29.2433Z" fill="#E84A24"/>
<path id="path182" fill-rule="evenodd" clip-rule="evenodd" d="M41.1514 31.353L36.4782 30.1633C36.6904 29.6309 37.0774 29.2067 37.5541 28.9414L40.7908 29.7654C41.0825 30.2263 41.2196 30.784 41.1514 31.353ZM30.4318 28.624L26.5089 27.6253C26.5106 27.462 26.5314 27.2963 26.5735 27.1309C26.6584 26.7975 26.8193 26.5036 27.033 26.2629L30.6229 27.1768C30.6955 27.4904 30.6963 27.8255 30.6114 28.1589C30.5693 28.3243 30.5084 28.4798 30.4318 28.624ZM31.7098 27.4535L32.4485 27.6416C32.5127 27.8175 32.5767 27.9672 32.6366 28.087L32.0392 28.0406C31.92 27.8517 31.8105 27.6556 31.7098 27.4535ZM33.7013 27.9605L36.2362 28.6059C35.8185 28.7975 35.3349 28.853 34.8547 28.7307C34.3747 28.6085 33.9766 28.3286 33.7013 27.9605Z" fill="#E74724"/>
<path id="path184" fill-rule="evenodd" clip-rule="evenodd" d="M41.123 30.5977L36.8642 29.5134C37.4452 28.8138 38.3965 28.4702 39.3362 28.7094C40.2762 28.9487 40.9473 29.7054 41.123 30.5977ZM30.6558 27.9329L26.6425 26.9112C26.8522 26.3514 27.2855 25.9263 27.8119 25.713L30.2015 26.3214C30.562 26.7604 30.7392 27.341 30.6558 27.9329ZM31.3556 26.6152L32.2073 26.832C32.3405 27.3834 32.4993 27.8123 32.6366 28.0867L32.0391 28.0403C31.7615 27.6001 31.5352 27.1219 31.3556 26.6152ZM33.3247 27.1165L36.9703 28.0446C36.4723 28.6419 35.6586 28.9351 34.8547 28.7305C34.0509 28.5258 33.4764 27.8792 33.3247 27.1165Z" fill="#E74524"/>
<path id="path186" fill-rule="evenodd" clip-rule="evenodd" d="M40.7909 29.7656L37.5542 28.9416C38.078 28.6501 38.7098 28.5504 39.3364 28.7099C39.9632 28.8695 40.4704 29.2592 40.7909 29.7656ZM36.2363 28.6061L33.7014 27.9608C33.3695 27.517 33.2165 26.945 33.3145 26.3664L37.3385 27.3909C37.1479 27.9459 36.7401 28.3751 36.2363 28.6061ZM32.4486 27.6418L31.7099 27.4538C31.4543 26.9407 31.2569 26.3877 31.1136 25.8061L32.0523 26.0451C32.154 26.6965 32.3017 27.2392 32.4486 27.6418ZM30.623 27.1771L27.0331 26.2631C27.534 25.6989 28.325 25.4272 29.1065 25.6262C29.8881 25.8252 30.4529 26.442 30.623 27.1771Z" fill="#E74224"/>
<path id="path188" fill-rule="evenodd" clip-rule="evenodd" d="M36.9706 28.0445L33.325 27.1164C33.2663 26.8212 33.2709 26.5087 33.3501 26.1975C33.3973 26.012 33.4682 25.8388 33.5585 25.6801L37.4523 26.6713C37.4558 26.8539 37.4352 27.04 37.388 27.2255C37.3088 27.5366 37.1632 27.8133 36.9706 28.0445ZM32.2076 26.832L31.3559 26.6151C31.1762 26.1082 31.0439 25.5725 30.9553 25.0173L31.9603 25.2732C32.0094 25.8618 32.1001 26.3868 32.2076 26.832ZM30.2018 26.3213L27.8122 25.713C28.2094 25.5521 28.6596 25.5118 29.1066 25.6257C29.5538 25.7395 29.9298 25.9901 30.2018 26.3213Z" fill="#E74224"/>
<path id="path190" fill-rule="evenodd" clip-rule="evenodd" d="M37.3388 27.3911L33.3147 26.3666C33.3243 26.3105 33.3359 26.2543 33.3502 26.1982C33.469 25.7316 33.7368 25.3423 34.0897 25.0681L37.279 25.88C37.4579 26.2896 37.5069 26.7595 37.3881 27.2262C37.3738 27.2823 37.3573 27.3372 37.3388 27.3911ZM32.0526 26.0453L31.1139 25.8063C30.9903 25.3048 30.907 24.7822 30.8607 24.246L31.9228 24.5164C31.932 25.0729 31.9809 25.5859 32.0526 26.0453Z" fill="#E64024"/>
<path id="path192" fill-rule="evenodd" clip-rule="evenodd" d="M37.4523 26.6714L33.5585 25.6801C33.9165 25.0507 34.5818 24.6508 35.3044 24.6287L36.4216 24.9131C37.0458 25.2781 37.4388 25.9474 37.4523 26.6714ZM31.9603 25.2732L30.9553 25.0174C30.876 24.5206 30.8312 24.0084 30.8194 23.4869L31.9343 23.7708C31.9091 24.3055 31.9216 24.8092 31.9603 25.2732Z" fill="#E63E24"/>
<path id="path194" fill-rule="evenodd" clip-rule="evenodd" d="M37.2783 25.8799L34.089 25.0679C34.5794 24.6869 35.2341 24.5281 35.8824 24.6931C36.5307 24.8582 37.0299 25.3108 37.2783 25.8799ZM31.9221 24.5163L30.86 24.2459C30.8175 23.7537 30.8062 23.2501 30.8239 22.7408L31.9912 23.038C31.9342 23.5565 31.9143 24.0514 31.9221 24.5163Z" fill="#E63E24"/>
<path id="path196" fill-rule="evenodd" clip-rule="evenodd" d="M36.4219 24.9133L35.3047 24.6289C35.495 24.6231 35.6894 24.6434 35.8832 24.6928C36.077 24.7421 36.2574 24.8171 36.4219 24.9133ZM31.9346 23.7709L30.8197 23.4871C30.8086 22.999 30.8263 22.5028 30.87 22.0041L32.094 22.3157C32.0071 22.8208 31.9564 23.3076 31.9346 23.7709Z" fill="#E63E24"/>
<path id="path198" fill-rule="evenodd" clip-rule="evenodd" d="M31.9912 23.0378L30.8239 22.7407C30.8408 22.2562 30.8838 21.7667 30.9513 21.2773L32.2379 21.6048C32.1221 22.0981 32.0418 22.5774 31.9912 23.0378Z" fill="#E63C24"/>
<path id="path200" fill-rule="evenodd" clip-rule="evenodd" d="M32.0937 22.3154L30.8697 22.0038C30.912 21.5229 30.9786 21.0395 31.0679 20.5584L32.4252 20.904C32.281 21.3868 32.1723 21.8585 32.0937 22.3154Z" fill="#E63C24"/>
<path id="path202" fill-rule="evenodd" clip-rule="evenodd" d="M32.2382 21.6047L30.9516 21.2772C31.0174 20.7995 31.1063 20.3219 31.2165 19.8488L32.6534 20.2146C32.4812 20.6877 32.3446 21.1521 32.2382 21.6047Z" fill="#E63925"/>
<path id="path204" fill-rule="evenodd" clip-rule="evenodd" d="M32.4253 20.9042L31.068 20.5587C31.1562 20.0841 31.2666 19.612 31.3971 19.1466L32.9231 19.5351C32.7231 19.9989 32.5591 20.4563 32.4253 20.9042Z" fill="#E63925"/>
<path id="path206" fill-rule="evenodd" clip-rule="evenodd" d="M32.6533 20.2147L31.2165 19.8489C31.3264 19.3774 31.4577 18.9105 31.6081 18.4528L33.2348 18.8669C33.0072 19.3217 32.8145 19.772 32.6533 20.2147Z" fill="#E43924"/>
<path id="path208" fill-rule="evenodd" clip-rule="evenodd" d="M32.9231 19.535L31.397 19.1465C31.5285 18.6778 31.6806 18.2163 31.8512 17.7663L33.5881 18.2085C33.3325 18.6545 33.1117 19.0977 32.9231 19.535Z" fill="#E23924"/>
<path id="path210" fill-rule="evenodd" clip-rule="evenodd" d="M33.2349 18.8665L31.6083 18.4524C31.7614 17.9865 31.9348 17.5303 32.1262 17.0884L33.9828 17.561C33.6992 17.9987 33.4512 18.4346 33.2349 18.8665Z" fill="#E03624"/>
<path id="path212" fill-rule="evenodd" clip-rule="evenodd" d="M33.5885 18.2087L31.8516 17.7665C32.0273 17.3033 32.2228 16.8526 32.436 16.4194L34.4211 16.9248C34.1091 17.354 33.8325 17.7827 33.5885 18.2087Z" fill="#DD3625"/>
<path id="path214" fill-rule="evenodd" clip-rule="evenodd" d="M33.9825 17.5617L32.1259 17.089C32.3255 16.6284 32.5448 16.1837 32.7815 15.7601L34.9006 16.2996C34.5599 16.7204 34.2547 17.1419 33.9825 17.5617Z" fill="#D93424"/>
<path id="path216" fill-rule="evenodd" clip-rule="evenodd" d="M34.4206 16.9247L32.4355 16.4193C32.661 15.9614 32.9062 15.5229 33.1691 15.1102L35.425 15.6845C35.0551 16.0971 34.7213 16.5111 34.4206 16.9247Z" fill="#D53424"/>
<path id="path218" fill-rule="evenodd" clip-rule="evenodd" d="M34.901 16.299L32.7819 15.7595C33.0369 15.3037 33.3122 14.8729 33.605 14.4732L35.0096 14.8308L35.6125 15.4785C35.3592 15.7513 35.1229 16.0251 34.901 16.299Z" fill="#D13324"/>
<path id="path220" fill-rule="evenodd" clip-rule="evenodd" d="M35.4251 15.685L33.1692 15.1107C33.4583 14.6571 33.7686 14.2345 34.0971 13.8512L35.6124 15.479C35.5487 15.5476 35.4868 15.6163 35.4251 15.685Z" fill="#CD3324"/>
<path id="path222" fill-rule="evenodd" clip-rule="evenodd" d="M35.0098 14.8315L33.6052 14.474C33.7643 14.2569 33.9282 14.0488 34.0974 13.8515L35.0098 14.8315Z" fill="#C53024"/>
</g>
</g>
</svg>
