<svg width="48" height="48" viewBox="0 0 48 48" fill="none" xmlns="http://www.w3.org/2000/svg">
<g id="vuesax/bold/quote-up">
<g id="quote-up">
<path id="Vector" d="M16.18 23.2599H6.8C6.96 13.9199 8.8 12.3799 14.54 8.97994C15.2 8.57994 15.42 7.73994 15.02 7.05994C14.64 6.39994 13.78 6.17994 13.12 6.57994C6.36 10.5799 4 13.0199 4 24.6399V35.4199C4 38.8399 6.78 41.5999 10.18 41.5999H16.18C19.7 41.5999 22.36 38.9399 22.36 35.4199V29.4199C22.36 25.9199 19.7 23.2599 16.18 23.2599Z" fill="#EB5749"/>
<path id="Vector_2" d="M37.8201 23.2599H28.4401C28.6001 13.9199 30.4401 12.3799 36.1801 8.97994C36.8401 8.57994 37.0601 7.73994 36.6601 7.05994C36.2601 6.39994 35.4201 6.17994 34.7401 6.57994C27.9801 10.5799 25.6201 13.0199 25.6201 24.6599V35.4399C25.6201 38.8599 28.4001 41.6199 31.8001 41.6199H37.8001C41.3201 41.6199 43.9801 38.9599 43.9801 35.4399V29.4399C44.0001 25.9199 41.3401 23.2599 37.8201 23.2599Z" fill="#EB5749"/>
</g>
</g>
</svg>
