<svg width="32" height="32" viewBox="0 0 32 32" fill="none" xmlns="http://www.w3.org/2000/svg">
<g id="Icons 32">
<path id="Vector" d="M29.4518 4.44376C29.2302 4.24098 28.9587 4.10085 28.665 4.03775C28.3713 3.97466 28.0662 3.99087 27.7808 4.08473L3.16109 12.2004C2.49012 12.4216 2.03512 13.0205 2.00193 13.7262C1.96879 14.4319 2.36555 15.0709 3.01272 15.3541L9.10138 18.0181L10.9384 26.5381C11.0147 26.8921 11.1943 27.2074 11.5749 27.3043C11.9598 27.4024 12.2318 27.192 12.519 26.977L17.0373 23.5937L22.3196 27.9162C22.6272 28.1681 23.0033 28.2994 23.3867 28.2994C23.5725 28.2992 23.7569 28.2686 23.9328 28.2088C24.4888 28.0203 24.9009 27.5665 25.0352 26.9951L29.9553 6.07695C30.0239 5.78454 30.0134 5.47914 29.9249 5.19212C29.8364 4.90509 29.6732 4.6468 29.4518 4.44376ZM12.9126 19.5446C12.9096 19.5517 12.9067 19.5597 12.9039 19.5693L11.8854 23.1278L10.7487 17.8561L18.5645 13.5137L13.1001 19.2273C13.0144 19.3175 12.9503 19.426 12.9126 19.5446ZM13.2359 24.3858L13.6985 22.7695L14.141 21.2235L15.7264 22.521L13.2359 24.3858ZM28.3545 5.70037L23.4345 26.6185C23.432 26.6289 23.4287 26.6433 23.4047 26.6514C23.3808 26.6595 23.3692 26.6503 23.361 26.6435L17.581 21.9136L17.5806 21.9133L14.9026 19.7218L23.5062 10.7258C23.6422 10.5836 23.7227 10.3974 23.7331 10.2009C23.7435 10.0045 23.6831 9.81079 23.5628 9.65506C23.4426 9.49931 23.2705 9.39184 23.0778 9.35215C22.8851 9.31247 22.6846 9.3432 22.5126 9.43877L9.77305 16.5169L3.67193 13.8475C3.65333 13.8394 3.64311 13.8348 3.64458 13.8034C3.64606 13.7721 3.65667 13.7685 3.67592 13.7622L28.2957 5.64651C28.3076 5.64262 28.321 5.63814 28.3408 5.65619C28.3606 5.67434 28.3574 5.68812 28.3545 5.70037Z" fill="#303033"/>
</g>
</svg>
