<svg width="19" height="25" viewBox="0 0 19 25" fill="none" xmlns="http://www.w3.org/2000/svg">
<g id="Group 469">
<path id="Vector" d="M9.51434 9.36363C9.42015 9.35421 9.30713 9.35421 9.20353 9.36363C6.96192 9.2882 5.18182 7.44952 5.18182 5.18653C5.18182 2.8764 7.04669 1 9.36364 1C11.6712 1 13.5455 2.8764 13.5455 5.18653C13.536 7.44952 11.7559 9.2882 9.51434 9.36363Z" stroke="#303033" stroke-width="2" stroke-linecap="round" stroke-linejoin="round"/>
<path id="Vector_2" d="M3.22581 15.2095C0.258065 17.1737 0.258065 20.3747 3.22581 22.3267C6.59824 24.5577 12.129 24.5577 15.5015 22.3267C18.4692 20.3625 18.4692 17.1616 15.5015 15.2095C12.1413 12.9907 6.6105 12.9907 3.22581 15.2095Z" stroke="#303033" stroke-width="2" stroke-linecap="round" stroke-linejoin="round"/>
</g>
</svg>
