<svg width="24" height="24" viewBox="0 0 24 24" fill="none" xmlns="http://www.w3.org/2000/svg">
<path d="M12.1208 9.8911C12.0454 9.88356 11.955 9.88356 11.8721 9.8911C10.0789 9.83076 8.65479 8.35981 8.65479 6.54942C8.65479 4.70131 10.1467 3.2002 12.0002 3.2002C13.8463 3.2002 15.3457 4.70131 15.3457 6.54942C15.3382 8.35981 13.9141 9.83076 12.1208 9.8911Z" fill="#EB5749"/>
<path d="M7.08997 14.5676C4.71578 16.139 4.71578 18.6997 7.08997 20.2614C9.78792 22.0462 14.2126 22.0462 16.9105 20.2614C19.2847 18.69 19.2847 16.1293 16.9105 14.5676C14.2224 12.7926 9.79773 12.7926 7.08997 14.5676Z" fill="#EB5749"/>
</svg>
