<svg width="102" height="620" viewBox="0 0 102 620" fill="none" xmlns="http://www.w3.org/2000/svg">
<g opacity="0.4">
<path d="M51.1853 -9.51398C47.4095 -9.51398 43.9159 -8.91126 40.7047 -7.70583C37.4935 -6.46495 35.041 -4.70998 33.3472 -2.44094C31.6534 -0.13644 30.8065 2.23896 30.8065 4.68528C30.8065 7.16705 31.6534 9.54245 33.3472 11.8115C35.041 14.116 37.4935 15.871 40.7047 17.0764C43.9159 18.3173 47.4095 18.9377 51.1853 18.9377C54.9964 18.9377 58.4899 18.3173 61.6658 17.0764C64.877 15.871 67.3295 14.1337 69.0234 11.8647C69.4821 11.2265 69.8703 10.6061 70.1879 10.0034C73.752 10.0034 75.534 15.6405 75.534 26.9148L71.5641 26.9148L71.5641 17.2359C69.588 20.1077 66.959 22.3767 63.6772 24.0431C59.8308 25.9576 55.6669 26.9148 51.1853 26.9148C46.7037 26.9148 42.5397 25.9576 38.6933 24.0431C34.8822 22.1286 31.9533 19.3809 29.9066 15.8001C27.8599 12.2547 26.8366 8.54974 26.8366 4.68528C26.8366 0.856267 27.8599 -2.84866 29.9066 -6.42949C31.9533 -9.97488 34.8822 -12.7048 38.6933 -14.6193C42.5397 -16.5338 46.7037 -17.4911 51.1853 -17.4911L86.1204 -17.4911C89.6492 -17.4911 92.0311 -17.6684 93.2662 -18.0229C94.5013 -18.3774 95.1188 -19.2638 95.1188 -20.6819C95.1188 -22.1001 94.8013 -23.6423 94.1661 -25.3087L96.1775 -26L102 -12.173L102 -9.51397L51.1853 -9.51398Z" fill="white"/>
<path d="M75.0047 54.1136C75.0047 57.9426 73.9813 61.6298 71.9346 65.1752C69.8879 68.756 66.9414 71.5037 63.095 73.4182C59.2839 75.3327 55.314 76.2899 51.1853 76.2899C46.7037 76.2899 42.5397 75.3327 38.6933 73.4182C34.8822 71.5037 31.9533 68.756 29.9066 65.1752C27.8599 61.6298 26.8366 57.9426 26.8366 54.1136C26.8366 50.2491 27.7717 46.6151 29.642 43.2115C31.5122 39.8434 34.3529 37.3794 38.164 35.8194C38.7992 35.6421 39.3991 35.5535 39.9637 35.5535C41.9398 35.5535 43.0867 36.6171 43.4043 38.7444C43.5101 39.2407 43.5631 39.6839 43.5631 40.0739C43.5631 41.492 43.1043 42.4493 42.1868 42.9456C41.3399 43.442 40.4754 43.6902 39.5932 43.6902C39.3109 43.6902 39.0109 43.6547 38.6933 43.5838C38.411 43.5483 38.1111 43.5306 37.7935 43.5306C36.9113 43.5306 36.0114 43.7433 35.094 44.1688C33.8589 44.807 32.8355 45.9947 32.0239 47.7319C31.2123 49.5046 30.8065 51.6318 30.8065 54.1136C30.8065 56.5599 31.6534 58.9176 33.3472 61.1866C35.041 63.4911 37.4759 65.2461 40.6518 66.4515C43.863 67.6924 47.3742 68.3128 51.1853 68.3128C54.6082 68.3128 57.9253 67.6924 61.1365 66.4515C64.3477 65.2461 66.8002 63.4911 68.494 61.1866C70.1879 58.9176 71.0348 56.5599 71.0348 54.1136C71.0348 49.8946 72.3581 46.0833 75.0047 42.6797C77.6866 39.2762 81.0566 36.9894 85.1147 35.8194L86.2792 37.468C85.7852 37.6453 85.3264 37.8048 84.903 37.9466C82.0446 39.1875 79.6803 41.297 77.8101 44.2751C75.9398 47.2887 75.0047 50.5682 75.0047 54.1136Z" fill="white"/>
<path d="M18.1028 129.281C14.8563 129.281 11.8392 128.324 9.05141 126.41C6.26366 124.495 4.12872 121.747 2.64662 118.167C1.12924 114.621 0.370561 110.916 0.370562 107.052C0.370562 103.223 1.12924 99.5179 2.64662 95.937C4.12873 92.3917 6.26366 89.6617 9.05141 87.7472C11.8392 85.8327 14.8563 84.8754 18.1028 84.8754C21.3846 84.8754 24.4193 85.8327 27.2071 87.7472C29.9948 89.6617 32.1297 92.4094 33.6118 95.9902C33.8942 96.6993 34.1588 97.4084 34.4058 98.1174L29.0597 98.1174C28.0363 96.6993 26.7483 95.5648 25.1957 94.7139C23.0431 93.473 20.6788 92.8526 18.1028 92.8526C15.562 92.8526 13.2154 93.4553 11.0628 94.6607C8.87496 95.9016 7.21643 97.6565 6.08721 99.9256C4.9227 102.23 4.34045 104.605 4.34045 107.052C4.34045 109.534 4.9227 111.909 6.08721 114.178C7.21642 116.483 8.87496 118.237 11.0628 119.443C13.2154 120.684 15.562 121.304 18.1028 121.304L61.7717 121.304C63.7478 121.304 65.4769 120.684 66.959 119.443C68.4411 118.237 69.5703 116.66 70.3467 114.71C71.1583 112.795 71.5641 110.615 71.5641 108.169C71.5641 105.687 71.1583 103.382 70.3467 101.255C69.535 99.1633 68.5117 97.8161 67.2766 97.2134C66.3591 96.7525 65.4593 96.522 64.5771 96.522C64.2595 96.522 63.9595 96.5575 63.6772 96.6284C63.3596 96.6638 63.0597 96.6816 62.7774 96.6816C61.8952 96.6816 61.0306 96.4511 60.1837 95.9902C59.2662 95.4584 58.8075 94.4834 58.8075 93.0653C58.8075 92.6753 58.8604 92.2498 58.9663 91.7889C59.2839 89.6263 60.4307 88.5449 62.4069 88.5449C62.9715 88.5449 63.5714 88.6336 64.2065 88.8108C68.0177 90.3708 70.8583 93.0121 72.7286 96.7347C74.5989 100.493 75.534 104.304 75.534 108.169C75.534 111.998 74.9694 115.525 73.8402 118.752C73.5226 119.638 73.1697 120.489 72.7815 121.304L86.1204 121.304C89.6492 121.304 92.0311 121.127 93.2662 120.772C94.5013 120.418 95.1188 119.532 95.1188 118.113C95.1188 116.695 94.8012 115.153 94.1661 113.487L96.1775 112.795L102 126.622L102 129.281L18.1028 129.281Z" fill="white"/>
<path d="M75.0047 156.48C75.0047 160.309 73.9813 163.996 71.9346 167.542C69.8879 171.123 66.9414 173.87 63.095 175.785C59.2839 177.699 55.314 178.656 51.1853 178.656C46.7037 178.656 42.5397 177.699 38.6933 175.785C34.8822 173.87 31.9533 171.123 29.9066 167.542C27.8599 163.996 26.8366 160.309 26.8366 156.48C26.8366 152.616 27.7717 148.982 29.642 145.578C31.5122 142.21 34.3529 139.746 38.164 138.186C38.7992 138.009 39.3991 137.92 39.9637 137.92C41.9398 137.92 43.0867 138.984 43.4043 141.111C43.5101 141.607 43.5631 142.05 43.5631 142.44C43.5631 143.859 43.1043 144.816 42.1868 145.312C41.3399 145.808 40.4754 146.057 39.5932 146.057C39.3109 146.057 39.0109 146.021 38.6933 145.95C38.411 145.915 38.1111 145.897 37.7935 145.897C36.9113 145.897 36.0114 146.11 35.0939 146.535C33.8589 147.173 32.8355 148.361 32.0239 150.098C31.2123 151.871 30.8064 153.998 30.8064 156.48C30.8064 158.926 31.6534 161.284 33.3472 163.553C35.041 165.858 37.4759 167.613 40.6518 168.818C43.863 170.059 47.3742 170.679 51.1853 170.679C54.6082 170.679 57.9253 170.059 61.1365 168.818C64.3477 167.613 66.8002 165.858 68.494 163.553C70.1879 161.284 71.0348 158.926 71.0348 156.48C71.0348 152.261 72.3581 148.45 75.0047 145.046C77.6866 141.643 81.0566 139.356 85.1147 138.186L86.2792 139.835C85.7852 140.012 85.3264 140.171 84.903 140.313C82.0446 141.554 79.6803 143.664 77.8101 146.642C75.9398 149.655 75.0047 152.935 75.0047 156.48Z" fill="white"/>
<path d="M64.8947 191.443C67.9294 193.216 70.3467 195.52 72.1463 198.357C74.4048 201.902 75.534 205.589 75.534 209.418C75.534 213.283 74.4048 217.005 72.1463 220.586C70.2761 223.494 67.753 225.851 64.5771 227.659C67.753 229.467 70.2761 231.843 72.1463 234.786C74.4048 238.331 75.534 242.018 75.534 245.847C75.534 249.712 74.3871 253.417 72.0934 256.962C69.835 260.543 66.5885 263.29 62.3539 265.205C58.1194 267.119 53.5143 268.077 48.5387 268.077C43.5631 268.077 38.958 267.119 34.7234 265.205C31.7945 263.893 29.342 262.191 27.3659 260.1L27.3659 251.644C27.6482 252.105 27.9834 252.566 28.3716 253.027C30.2771 255.296 33.0472 257.033 36.6819 258.238C40.3166 259.479 44.2688 260.1 48.5387 260.1C52.8438 260.1 56.7961 259.479 60.3954 258.238C64.0301 257.033 66.8002 255.278 68.7058 252.973C70.6113 250.704 71.5641 248.329 71.5641 245.847C71.5641 243.401 70.6113 241.025 68.7058 238.721C66.8002 236.452 64.0301 234.697 60.3954 233.456C56.7961 232.251 52.8438 231.648 48.5387 231.648L48.5387 223.671C52.8438 223.671 56.7961 223.05 60.3954 221.809C64.0301 220.604 66.8002 218.849 68.7058 216.545C70.6113 214.276 71.5641 211.9 71.5641 209.418C71.5641 206.972 70.6113 204.597 68.7058 202.292C66.8002 200.023 64.0301 198.268 60.3954 197.027C56.7961 195.822 52.8438 195.219 48.5387 195.219C44.8687 195.219 41.4281 195.662 38.2169 196.549C38.3934 197.116 38.4816 197.701 38.4816 198.304C38.4816 199.332 38.2346 200.307 37.7405 201.228C37.2465 202.186 36.5231 202.913 35.5703 203.409C34.6529 203.905 33.6824 204.153 32.6591 204.153C31.6357 204.153 30.6477 203.905 29.6949 203.409C28.7774 202.913 28.0716 202.186 27.5776 201.228C27.0836 200.307 26.8366 199.332 26.8366 198.304C26.8366 197.275 27.0836 196.3 27.5776 195.379C27.8952 194.776 28.301 194.262 28.795 193.836C30.0301 192.56 32.0063 191.319 34.7234 190.114C38.958 188.199 43.5631 187.242 48.5387 187.242C49.6326 187.242 53.1438 187.26 59.0721 187.295C65.0358 187.331 71.0348 188.376 77.069 190.433C83.1386 192.489 87.6731 194.652 90.6725 196.921C93.672 199.19 95.8599 201.813 97.2361 204.792C98.6123 207.77 99.3358 213.035 99.4063 220.586C99.4769 226.011 99.6357 229.29 99.8827 230.425C100.13 231.559 100.835 232.641 102 233.669L102 235.743C98.5418 234.573 96.0716 233.155 94.5895 231.488C93.1074 229.822 92.2781 228.032 92.1017 226.117C91.9606 224.203 91.8194 220.781 91.6783 215.853C91.5371 210.535 90.9548 206.848 89.9315 204.792C88.9434 202.771 87.179 200.661 84.6383 198.463C82.1328 196.265 78.8334 194.563 74.74 193.358C71.67 192.436 68.3882 191.798 64.8947 191.443Z" fill="white"/>
<path d="M71.5641 298.839C71.5641 296.392 70.7172 294.017 69.0233 291.712C67.3295 289.443 64.877 287.688 61.6658 286.447C58.4899 285.242 54.9964 284.639 51.1853 284.639C47.4094 284.639 43.9159 285.242 40.7047 286.447C37.4935 287.688 35.041 289.443 33.3472 291.712C31.6534 294.017 30.8064 296.392 30.8064 298.839C30.8064 301.32 31.6534 303.696 33.3472 305.965C35.041 308.269 37.4935 310.024 40.7047 311.23C43.9159 312.471 47.4094 313.091 51.1853 313.091C54.9964 313.091 58.4899 312.471 61.6658 311.23C64.877 310.024 67.3295 308.269 69.0233 305.965C70.7172 303.696 71.5641 301.32 71.5641 298.839ZM48.5387 320.962C45.0452 320.643 41.781 319.721 38.7462 318.196C34.8998 316.282 31.9533 313.534 29.9066 309.953C27.8599 306.408 26.8366 302.703 26.8366 298.839C26.8366 295.01 27.8599 291.305 29.9066 287.724C31.9533 284.178 34.8822 281.448 38.6933 279.534C42.5397 277.619 46.7037 276.662 51.1853 276.662C55.6668 276.662 59.8132 277.619 63.6243 279.534C67.4707 281.448 70.4172 284.178 72.4639 287.724C74.5106 291.305 75.534 295.01 75.534 298.839C75.534 302.703 74.5106 306.426 72.4639 310.007C70.6995 313.091 68.247 315.555 65.1064 317.399C68.0353 319.171 70.3819 321.44 72.1463 324.206C74.4048 327.751 75.534 331.438 75.534 335.267C75.534 339.132 74.3871 342.837 72.0934 346.382C69.835 349.963 66.5885 352.711 62.3539 354.625C58.1194 356.54 53.5143 357.497 48.5387 357.497C43.5631 357.497 38.958 356.54 34.7234 354.625C31.7945 353.313 29.342 351.612 27.3659 349.52L27.3659 341.064C27.6482 341.525 27.9834 341.986 28.3716 342.447C30.2771 344.716 33.0472 346.453 36.6819 347.658C40.3166 348.899 44.2688 349.52 48.5387 349.52C52.8438 349.52 56.7961 348.899 60.3954 347.658C64.0301 346.453 66.8002 344.698 68.7058 342.394C70.6113 340.125 71.5641 337.749 71.5641 335.267C71.5641 332.821 70.6113 330.446 68.7058 328.141C66.8002 325.872 64.0301 324.117 60.3954 322.876C56.7961 321.671 52.8438 321.068 48.5387 321.068L48.5387 320.962Z" fill="white"/>
<path d="M18.1028 410.488C14.8563 410.488 11.8392 409.531 9.0514 407.617C6.26365 405.702 4.12871 402.954 2.64661 399.374C1.12923 395.828 0.370549 392.123 0.370549 388.259C0.370549 384.43 1.12923 380.725 2.64661 377.144C4.12871 373.599 6.26365 370.869 9.0514 368.954C11.8392 367.04 14.8563 366.082 18.1028 366.082C21.3846 366.082 24.4193 367.04 27.2071 368.954C29.9948 370.869 32.1297 373.616 33.6118 377.197C33.8941 377.906 34.1588 378.615 34.4058 379.324L29.0597 379.324C28.0363 377.906 26.7483 376.772 25.1957 375.921C23.0431 374.68 20.6788 374.059 18.1028 374.059C15.562 374.059 13.2154 374.662 11.0628 375.868C8.87495 377.109 7.21641 378.863 6.08719 381.133C4.92269 383.437 4.34044 385.812 4.34044 388.259C4.34044 390.741 4.92269 393.116 6.08719 395.385C7.21641 397.689 8.87495 399.444 11.0628 400.65C13.2154 401.891 15.562 402.511 18.1028 402.511L26.5719 402.511C29.3243 402.511 31.9709 402.068 34.5117 401.182C37.0877 400.331 39.0462 398.93 40.3871 396.98C41.7634 395.066 42.4515 390.847 42.4515 384.323L45.2039 384.323C45.2039 388.578 46.0861 392.141 47.8505 395.013C49.6502 397.92 51.7675 399.888 54.2024 400.916C56.6373 401.979 59.1603 402.511 61.7717 402.511C63.7478 402.511 65.4769 401.891 66.959 400.65C68.4411 399.444 69.5703 397.867 70.3466 395.917C71.1583 394.002 71.5641 391.822 71.5641 389.376C71.5641 386.894 71.1583 384.589 70.3467 382.462C69.535 380.37 68.5117 379.023 67.2766 378.42C66.3591 377.959 65.4593 377.729 64.5771 377.729C64.2595 377.729 63.9595 377.764 63.6772 377.835C63.3596 377.871 63.0597 377.889 62.7774 377.889C61.8952 377.889 61.0306 377.658 60.1837 377.197C59.2662 376.665 58.8075 375.69 58.8075 374.272C58.8075 373.882 58.8604 373.457 58.9663 372.996C59.2839 370.833 60.4307 369.752 62.4069 369.752C62.9715 369.752 63.5714 369.84 64.2065 370.018C68.0176 371.578 70.8583 374.219 72.7286 377.942C74.5989 381.7 75.534 385.511 75.534 389.376C75.534 393.205 74.9694 396.715 73.8402 399.905C72.7109 403.132 71.07 405.702 68.9175 407.617C66.8002 409.531 64.4183 410.488 61.7717 410.488C58.4546 410.488 55.261 409.62 52.191 407.882C49.1562 406.145 46.8272 403.681 45.2039 400.49C45.0275 400.171 44.8687 399.852 44.7276 399.533C44.4805 400.207 44.1982 400.88 43.8806 401.554C42.1515 404.39 39.699 406.588 36.5231 408.148C33.3472 409.708 30.0301 410.488 26.5719 410.488L18.1028 410.488Z" fill="white"/>
<path d="M18.1028 463.533C14.8563 463.533 11.8392 462.576 9.05139 460.661C6.26364 458.747 4.12871 455.999 2.64661 452.418C1.12923 448.873 0.370547 445.168 0.370547 441.303C0.370547 437.474 1.12923 433.769 2.64661 430.189C4.12871 426.643 6.26364 423.913 9.05139 421.999C11.8392 420.084 14.8563 419.127 18.1028 419.127C21.3845 419.127 24.4193 420.084 27.2071 421.999C29.9948 423.913 32.1297 426.661 33.6118 430.242C33.8941 430.951 34.1588 431.66 34.4058 432.369L29.0597 432.369C28.0363 430.951 26.7483 429.816 25.1957 428.965C23.0431 427.725 20.6788 427.104 18.1028 427.104C15.562 427.104 13.2154 427.707 11.0628 428.912C8.87495 430.153 7.21641 431.908 6.08719 434.177C4.92269 436.482 4.34043 438.857 4.34043 441.303C4.34043 443.785 4.92269 446.161 6.08719 448.43C7.21641 450.734 8.87495 452.489 11.0628 453.694C13.2154 454.935 15.562 455.556 18.1028 455.556L61.7717 455.556C63.7478 455.556 65.4769 454.935 66.959 453.694C68.4411 452.489 69.5703 450.911 70.3466 448.961C71.1583 447.047 71.5641 444.866 71.5641 442.42C71.5641 439.938 71.1583 437.634 70.3466 435.507C69.535 433.415 68.5117 432.068 67.2766 431.465C66.3591 431.004 65.4593 430.774 64.5771 430.774C64.2595 430.774 63.9595 430.809 63.6772 430.88C63.3596 430.915 63.0597 430.933 62.7774 430.933C61.8952 430.933 61.0306 430.703 60.1837 430.242C59.2662 429.71 58.8075 428.735 58.8075 427.317C58.8075 426.927 58.8604 426.501 58.9663 426.04C59.2839 423.878 60.4307 422.796 62.4068 422.796C62.9715 422.796 63.5714 422.885 64.2065 423.062C68.0176 424.622 70.8583 427.264 72.7286 430.986C74.5988 434.744 75.534 438.556 75.534 442.42C75.534 446.249 74.9694 449.759 73.8402 452.95C72.7109 456.176 71.07 458.747 68.9175 460.661C66.8002 462.576 64.4183 463.533 61.7717 463.533L18.1028 463.533Z" fill="white"/>
<path d="M66.5355 527.745C68.794 528.951 70.6642 530.44 72.1463 532.213C74.4048 534.907 75.534 537.708 75.534 540.615C75.534 543.558 74.3871 546.376 72.0934 549.071C69.835 551.801 66.5885 553.893 62.3539 555.346C58.1194 556.8 53.5143 557.527 48.5387 557.527C43.563 557.527 38.958 556.8 34.7234 555.346C31.7945 554.354 29.342 553.059 27.3659 551.464L27.3659 544.285C27.6482 544.568 27.9834 544.852 28.3716 545.136C30.2771 546.554 33.0472 547.635 36.6819 548.38C40.3166 549.16 44.2688 549.55 48.5387 549.55C52.8438 549.55 56.7961 549.16 60.3954 548.38C64.0301 547.635 66.8002 546.536 68.7057 545.082C70.6113 543.664 71.5641 542.175 71.5641 540.615C71.5641 539.091 70.6113 537.602 68.7057 536.148C66.8002 534.73 64.0301 533.631 60.3954 532.851C56.7961 532.106 52.8438 531.734 48.5387 531.734L48.5387 523.757C52.8438 523.757 56.7961 523.367 60.3954 522.587C64.0301 521.842 66.8002 520.743 68.7057 519.29C70.6113 517.872 71.5641 516.383 71.5641 514.823C71.5641 513.298 70.6113 511.809 68.7057 510.355C66.8002 508.937 64.0301 507.838 60.3954 507.058C56.7961 506.314 52.8438 505.941 48.5387 505.941L48.5387 497.964C52.8438 497.964 56.7961 497.574 60.3954 496.794C64.0301 496.05 66.8002 494.951 68.7057 493.497C70.6113 492.079 71.5641 490.59 71.5641 489.03C71.5641 487.505 70.6113 486.016 68.7058 484.563C66.8002 483.145 64.0301 482.045 60.3954 481.265C56.7961 480.521 52.8438 480.149 48.5387 480.149C42.9984 480.149 38.6227 480.964 35.4115 482.595C32.2003 484.261 29.1832 487.133 26.3601 491.21C23.5018 495.323 22.0727 498.726 22.0727 501.421C22.0727 513.263 20.6788 524.661 17.891 535.616C15.562 544.621 12.4037 551.925 8.4162 557.527L5.01082e-06 557.527C1.30566 556.498 2.57604 555.293 3.81112 553.91C8.43385 548.734 11.9803 541.307 14.4505 531.628C16.8853 521.949 18.1028 511.88 18.1028 501.421C18.1028 491.281 16.9559 481.531 14.6622 472.172L19.0555 472.172C20.2906 477.844 21.1375 483.641 21.5963 489.562C22.0197 488.817 22.4608 488.055 22.9196 487.275C26.0955 481.886 29.589 478.021 33.4001 475.682C37.2465 473.342 42.2927 472.172 48.5387 472.172C53.5143 472.172 58.1194 472.898 62.3539 474.352C66.5885 475.806 69.835 477.88 72.0934 480.574C74.3871 483.304 75.534 486.123 75.534 489.03C75.534 491.973 74.4048 494.809 72.1463 497.539C70.6642 499.276 68.794 500.747 66.5355 501.953C68.794 503.158 70.6642 504.647 72.1463 506.42C74.4048 509.114 75.534 511.915 75.534 514.823C75.534 517.765 74.4048 520.602 72.1463 523.331C70.6642 525.069 68.794 526.54 66.5355 527.745Z" fill="white"/>
<path d="M48.5386 602.594C52.8438 602.594 56.7961 601.974 60.3954 600.733C64.0301 599.527 66.8002 597.772 68.7057 595.468C70.6113 593.199 71.5641 590.823 71.5641 588.342C71.5641 585.895 70.6113 583.52 68.7057 581.216C66.8002 578.946 64.0301 577.191 60.3954 575.951C56.7961 574.745 52.8438 574.142 48.5387 574.142C44.8687 574.142 41.4281 574.586 38.2169 575.472C38.3934 576.039 38.4816 576.624 38.4816 577.227C38.4816 578.255 38.2346 579.23 37.7405 580.152C37.2465 581.109 36.5231 581.836 35.5703 582.332C34.6528 582.829 33.6824 583.077 32.6591 583.077C31.6357 583.077 30.6476 582.829 29.6949 582.332C28.7774 581.836 28.0716 581.109 27.5776 580.152C27.0836 579.23 26.8365 578.255 26.8365 577.227C26.8365 576.199 27.0836 575.224 27.5776 574.302C27.8952 573.699 28.301 573.185 28.795 572.76C30.0301 571.483 32.0062 570.242 34.7234 569.037C38.958 567.123 43.563 566.165 48.5387 566.165C53.5143 566.165 58.1194 567.123 62.3539 569.037C66.5885 570.952 69.835 573.682 72.0934 577.227C74.3871 580.808 75.534 584.513 75.534 588.342C75.534 592.206 74.4048 595.929 72.1463 599.51C70.2761 602.417 67.753 604.775 64.577 606.583C67.753 608.391 70.2761 610.766 72.1463 613.709C74.4048 617.254 75.534 620.941 75.534 624.771C75.534 628.635 74.3871 632.34 72.0934 635.885C69.835 639.466 66.5885 642.214 62.3539 644.128C58.1193 646.043 53.5143 647 48.5386 647C43.563 647 38.958 646.043 34.7234 644.128C31.7945 642.816 29.342 641.115 27.3658 639.023L27.3658 630.567C27.6481 631.028 27.9834 631.489 28.3716 631.95C30.2771 634.219 33.0472 635.956 36.6819 637.162C40.3166 638.402 44.2688 639.023 48.5386 639.023C52.8438 639.023 56.7961 638.402 60.3954 637.162C64.0301 635.956 66.8002 634.201 68.7057 631.897C70.6113 629.628 71.5641 627.252 71.5641 624.771C71.5641 622.324 70.6113 619.949 68.7057 617.644C66.8002 615.375 64.0301 613.62 60.3954 612.379C56.7961 611.174 52.8438 610.571 48.5386 610.571L48.5386 602.594Z" fill="white"/>
</g>
</svg>
