<svg width="56" height="220" viewBox="0 0 56 220" fill="none" xmlns="http://www.w3.org/2000/svg">
<path d="M18.3086 28.3162L18.1817 56.675L17.0401 59.1131C15.8139 61.8078 15.7716 61.8506 9.89424 69.7209C4.77799 76.5647 2.11415 81.1414 0.930228 84.9055L0 87.8996V149.707V211.515L0.972511 213.654C2.15644 216.263 3.38265 217.631 5.15854 218.401C7.14584 219.257 48.245 219.257 50.2323 218.401C52.0082 217.631 53.2344 216.263 54.4183 213.654L55.3908 211.515V149.707V87.8996L54.4606 84.9055C53.2344 80.9703 50.5706 76.5647 44.6509 68.6516C41.9871 65.1014 39.2387 60.9951 38.5199 59.4553L37.2091 56.675L37.0823 28.3162L36.9868 7H38.6953L38.6953 0.000213623H27.6954H16.6953L16.6953 7H18.4041L18.3086 28.3162ZM22.1986 70.6619C18.3509 76.1797 14.1648 84.1356 13.1078 87.8568C12.3044 90.7227 12.3044 90.1666 12.8541 115.061C13.446 141.409 12.6849 173.575 10.9513 195.903C10.0211 208.136 9.80967 208.948 9.17543 202.105C7.4841 183.455 6.93443 170.153 6.68073 142.222C6.46931 117.242 6.97671 94.444 7.86465 90.1666C8.45662 87.4291 10.4439 83.2373 12.8118 79.7299C15.391 75.8375 24.4396 65.8713 25.3698 65.8713C25.4544 65.8713 24.0168 68.0527 22.1986 70.6619Z" fill="#EB5749"/>
</svg>
