<svg width="1920" height="350" viewBox="0 0 1920 350" fill="none" xmlns="http://www.w3.org/2000/svg">
<g opacity="0.4">
<path d="M27.464 174.365C27.464 187.321 29.5283 199.308 33.6569 210.327C37.9068 221.346 43.9175 229.762 51.6889 235.574C59.5817 241.386 67.7174 244.292 76.0959 244.292C84.5959 244.292 92.7316 241.386 100.503 235.574C108.396 229.762 114.406 221.346 118.535 210.327C122.785 199.308 124.91 187.321 124.91 174.365C124.91 161.287 122.785 149.3 118.535 138.402C114.406 127.383 108.457 118.968 100.685 113.155C98.4994 111.581 96.3744 110.249 94.3102 109.16C94.3102 96.9298 113.617 90.815 152.231 90.815V104.437H119.081C128.917 111.218 136.689 120.239 142.396 131.5C148.953 144.698 152.231 158.987 152.231 174.365C152.231 189.743 148.953 204.031 142.396 217.229C135.839 230.306 126.428 240.357 114.164 247.38C102.021 254.403 89.3316 257.914 76.0959 257.914C62.9817 257.914 50.2925 254.403 38.0283 247.38C25.8855 240.357 16.5355 230.306 9.97839 217.229C3.42128 204.031 0.142725 189.743 0.142725 174.365V54.4891C0.142725 42.3805 -0.464415 34.2071 -1.6787 29.9691C-2.89298 25.7311 -5.92868 23.6121 -10.7858 23.6121C-15.6429 23.6121 -20.925 24.7018 -26.6322 26.8814L-29 19.9795L18.3569 0.000244141H27.464V174.365Z" fill="#EBE7DC"/>
<path d="M245.386 92.6313C258.5 92.6313 271.129 96.1428 283.272 103.166C295.536 110.189 304.947 120.299 311.504 133.498C318.061 146.575 321.339 160.197 321.339 174.365C321.339 189.743 318.061 204.031 311.504 217.229C304.947 230.306 295.536 240.357 283.272 247.38C271.129 254.403 258.5 257.914 245.386 257.914C232.15 257.914 219.704 254.705 208.047 248.288C196.511 241.87 188.072 232.123 182.729 219.045C182.122 216.866 181.818 214.807 181.818 212.87C181.818 206.089 185.461 202.154 192.747 201.064C194.447 200.701 195.965 200.519 197.301 200.519C202.158 200.519 205.436 202.093 207.136 205.242C208.836 208.148 209.686 211.114 209.686 214.141C209.686 215.11 209.565 216.139 209.322 217.229C209.2 218.198 209.14 219.227 209.14 220.317C209.14 223.344 209.868 226.432 211.325 229.58C213.511 233.818 217.579 237.329 223.529 240.114C229.6 242.899 236.886 244.292 245.386 244.292C253.765 244.292 261.84 241.386 269.611 235.574C277.504 229.762 283.514 221.407 287.643 210.509C291.893 199.49 294.018 187.442 294.018 174.365C294.018 162.619 291.893 151.237 287.643 140.218C283.514 129.199 277.504 120.784 269.611 114.972C261.84 109.16 253.765 106.253 245.386 106.253C230.936 106.253 217.883 101.713 206.225 92.6313C194.568 83.4287 186.736 71.865 182.729 57.94L188.376 53.9442C188.983 55.6394 189.529 57.2135 190.015 58.6665C194.265 68.4745 201.49 76.5873 211.69 83.0049C222.011 89.4225 233.243 92.6313 245.386 92.6313Z" fill="#EBE7DC"/>
<path d="M502.833 287.883C502.833 299.023 499.554 309.376 492.997 318.942C486.44 328.507 477.029 335.833 464.765 340.919C452.622 346.125 439.933 348.729 426.698 348.729C413.583 348.729 400.894 346.125 388.63 340.919C376.487 335.833 367.137 328.507 360.58 318.942C354.023 309.376 350.744 299.023 350.744 287.883C350.744 276.622 354.023 266.208 360.58 256.643C367.137 247.077 376.548 239.751 388.812 234.666C391.241 233.697 393.669 232.789 396.098 231.941V250.286C391.241 253.797 387.355 258.217 384.441 263.545C380.191 270.931 378.066 279.044 378.066 287.883C378.066 296.601 380.13 304.653 384.258 312.04C388.508 319.547 394.519 325.238 402.29 329.113C410.183 333.109 418.319 335.107 426.698 335.107C435.197 335.107 443.333 333.109 451.105 329.113C458.997 325.238 465.008 319.547 469.137 312.04C473.387 304.653 475.512 296.601 475.512 287.883V138.039C475.512 131.258 473.387 125.325 469.137 120.239C465.008 115.153 459.604 111.279 452.926 108.615C446.369 105.83 438.901 104.437 430.522 104.437C422.023 104.437 414.13 105.83 406.844 108.615C399.68 111.4 395.065 114.911 393.001 119.149C391.423 122.297 390.633 125.385 390.633 128.412C390.633 129.502 390.755 130.531 390.998 131.5C391.119 132.59 391.18 133.619 391.18 134.588C391.18 137.615 390.391 140.581 388.812 143.488C386.991 146.636 383.651 148.21 378.794 148.21C377.458 148.21 376.001 148.028 374.423 147.665C367.016 146.575 363.312 142.64 363.312 135.859C363.312 133.922 363.616 131.863 364.223 129.684C369.566 116.606 378.612 106.859 391.362 100.441C404.233 94.0238 417.287 90.815 430.522 90.815C443.637 90.815 455.719 92.7523 466.769 96.6271C469.804 97.7169 472.719 98.9278 475.512 100.26V54.4891C475.512 42.3805 474.904 34.2071 473.69 29.9691C472.476 25.7311 469.44 23.6121 464.583 23.6121C459.726 23.6121 454.444 24.7018 448.737 26.8814L446.369 19.9795L493.726 0.000244141H502.833V287.883Z" fill="#EBE7DC"/>
<path d="M595.988 92.6313C609.102 92.6313 621.73 96.1428 633.873 103.166C646.137 110.189 655.548 120.299 662.105 133.498C668.662 146.575 671.941 160.197 671.941 174.365C671.941 189.743 668.662 204.031 662.105 217.229C655.548 230.306 646.137 240.357 633.873 247.38C621.73 254.403 609.102 257.914 595.988 257.914C582.752 257.914 570.306 254.705 558.648 248.288C547.113 241.87 538.674 232.123 533.331 219.045C532.724 216.866 532.42 214.807 532.42 212.87C532.42 206.089 536.063 202.154 543.349 201.064C545.049 200.701 546.566 200.519 547.902 200.519C552.759 200.519 556.038 202.093 557.738 205.242C559.438 208.148 560.288 211.114 560.288 214.141C560.288 215.11 560.166 216.139 559.923 217.229C559.802 218.198 559.741 219.227 559.741 220.317C559.741 223.344 560.47 226.432 561.927 229.58C564.113 233.818 568.181 237.329 574.131 240.114C580.202 242.899 587.488 244.292 595.988 244.292C604.366 244.292 612.441 241.386 620.212 235.574C628.105 229.762 634.116 221.407 638.245 210.509C642.495 199.49 644.62 187.442 644.62 174.365C644.62 162.619 642.495 151.237 638.245 140.218C634.116 129.199 628.105 120.784 620.212 114.972C612.441 109.16 604.366 106.253 595.988 106.253C581.538 106.253 568.484 101.713 556.827 92.6313C545.17 83.4287 537.338 71.865 533.331 57.94L538.977 53.9442C539.584 55.6394 540.131 57.2135 540.616 58.6665C544.866 68.4745 552.091 76.5873 562.291 83.0049C572.613 89.4225 583.845 92.6313 595.988 92.6313Z" fill="#EBE7DC"/>
<path d="M715.735 127.322C721.806 116.909 729.699 108.615 739.414 102.439C751.556 94.6897 764.185 90.815 777.299 90.815C790.535 90.815 803.285 94.6897 815.549 102.439C825.506 108.857 833.581 117.515 839.774 128.412C845.967 117.515 854.102 108.857 864.181 102.439C876.324 94.6897 888.952 90.815 902.066 90.815C915.302 90.815 927.991 94.7503 940.134 102.621C952.398 110.37 961.809 121.51 968.366 136.041C974.923 150.571 978.202 166.373 978.202 183.446C978.202 200.519 974.923 216.321 968.366 230.851C963.873 240.901 958.045 249.317 950.88 256.098H921.92C923.498 255.129 925.077 253.979 926.656 252.647C934.427 246.108 940.377 236.603 944.505 224.131C948.755 211.659 950.88 198.097 950.88 183.446C950.88 168.673 948.755 155.112 944.505 142.761C940.377 130.289 934.366 120.784 926.473 114.245C918.702 107.707 910.566 104.437 902.066 104.437C893.688 104.437 885.552 107.707 877.659 114.245C869.888 120.784 863.877 130.289 859.627 142.761C855.499 155.112 853.434 168.673 853.434 183.446H826.113C826.113 168.673 823.988 155.112 819.738 142.761C815.61 130.289 809.599 120.784 801.706 114.245C793.935 107.707 785.799 104.437 777.299 104.437C768.92 104.437 760.785 107.707 752.892 114.245C745.121 120.784 739.11 130.289 734.86 142.761C730.731 155.112 728.667 168.673 728.667 183.446C728.667 196.039 730.185 207.845 733.221 218.864C735.164 218.258 737.167 217.956 739.231 217.956C742.753 217.956 746.092 218.803 749.249 220.498C752.528 222.194 755.017 224.676 756.717 227.945C758.417 231.093 759.267 234.423 759.267 237.935C759.267 241.446 758.417 244.837 756.717 248.106C755.017 251.254 752.528 253.676 749.249 255.371C746.092 257.066 742.753 257.914 739.231 257.914C735.71 257.914 732.371 257.066 729.214 255.371C727.149 254.281 725.389 252.889 723.931 251.194C719.56 246.956 715.31 240.175 711.181 230.851C704.624 216.321 701.346 200.519 701.346 183.446C701.346 179.692 701.407 167.644 701.528 147.302C701.649 126.838 705.232 106.253 712.274 85.5477C719.317 64.7209 726.724 49.1613 734.496 38.8689C742.267 28.5766 751.253 21.0692 761.453 16.3469C771.653 11.6245 789.685 9.14223 815.549 8.90006C834.127 8.65789 845.359 8.113 849.245 7.2654C853.131 6.41779 856.834 3.99609 860.356 0.000244141H867.459C863.452 11.8667 858.595 20.3427 852.888 25.4283C847.181 30.514 841.049 33.3595 834.492 33.9649C827.935 34.4493 816.217 34.9336 799.338 35.418C781.124 35.9023 768.496 37.9003 761.453 41.4118C754.531 44.8022 747.306 50.8565 739.778 59.5747C732.249 68.1718 726.421 79.4934 722.292 93.5394C719.135 104.074 716.949 115.335 715.735 127.322Z" fill="#EBE7DC"/>
<path d="M1083.56 104.437C1075.18 104.437 1067.05 107.343 1059.15 113.155C1051.38 118.968 1045.37 127.383 1041.12 138.402C1036.99 149.3 1034.93 161.287 1034.93 174.365C1034.93 187.321 1036.99 199.308 1041.12 210.327C1045.37 221.346 1051.38 229.762 1059.15 235.574C1067.05 241.386 1075.18 244.292 1083.56 244.292C1092.06 244.292 1100.2 241.386 1107.97 235.574C1115.86 229.762 1121.87 221.346 1126 210.327C1130.25 199.308 1132.37 187.321 1132.37 174.365C1132.37 161.287 1130.25 149.3 1126 138.402C1121.87 127.383 1115.86 118.968 1107.97 113.155C1100.2 107.343 1092.06 104.437 1083.56 104.437ZM1159.33 183.446C1158.24 195.434 1155.08 206.634 1149.86 217.047C1143.3 230.246 1133.89 240.357 1121.63 247.38C1109.48 254.403 1096.8 257.914 1083.56 257.914C1070.45 257.914 1057.76 254.403 1045.49 247.38C1033.35 240.357 1024 230.306 1017.44 217.229C1010.89 204.031 1007.61 189.743 1007.61 174.365C1007.61 158.987 1010.89 144.759 1017.44 131.682C1024 118.483 1033.35 108.372 1045.49 101.349C1057.76 94.3265 1070.45 90.815 1083.56 90.815C1096.8 90.815 1109.55 94.3265 1121.81 101.349C1132.37 107.404 1140.81 115.819 1147.13 126.596C1153.2 116.546 1160.97 108.494 1170.44 102.439C1182.58 94.6897 1195.21 90.815 1208.33 90.815C1221.56 90.815 1234.25 94.7503 1246.39 102.621C1258.66 110.37 1268.07 121.51 1274.63 136.041C1281.18 150.571 1284.46 166.373 1284.46 183.446C1284.46 200.519 1281.18 216.321 1274.63 230.851C1270.13 240.901 1264.31 249.317 1257.14 256.098H1228.18C1229.76 255.129 1231.34 253.979 1232.92 252.647C1240.69 246.108 1246.64 236.603 1250.77 224.131C1255.02 211.659 1257.14 198.097 1257.14 183.446C1257.14 168.673 1255.02 155.112 1250.77 142.761C1246.64 130.289 1240.63 120.784 1232.73 114.245C1224.96 107.707 1216.83 104.437 1208.33 104.437C1199.95 104.437 1191.81 107.707 1183.92 114.245C1176.15 120.784 1170.14 130.289 1165.89 142.761C1161.76 155.112 1159.7 168.673 1159.7 183.446H1159.33Z" fill="#EBE7DC"/>
<path d="M1465.96 287.883C1465.96 299.023 1462.68 309.376 1456.12 318.942C1449.56 328.507 1440.15 335.833 1427.89 340.919C1415.75 346.125 1403.06 348.729 1389.82 348.729C1376.71 348.729 1364.02 346.125 1351.75 340.919C1339.61 335.833 1330.26 328.507 1323.7 318.942C1317.15 309.376 1313.87 299.023 1313.87 287.883C1313.87 276.622 1317.15 266.208 1323.7 256.643C1330.26 247.077 1339.67 239.751 1351.94 234.666C1354.36 233.697 1356.79 232.789 1359.22 231.941V250.286C1354.36 253.797 1350.48 258.217 1347.56 263.545C1343.31 270.931 1341.19 279.044 1341.19 287.883C1341.19 296.601 1343.25 304.653 1347.38 312.04C1351.63 319.547 1357.64 325.238 1365.41 329.113C1373.31 333.109 1381.44 335.107 1389.82 335.107C1398.32 335.107 1406.46 333.109 1414.23 329.113C1422.12 325.238 1428.13 319.547 1432.26 312.04C1436.51 304.653 1438.63 296.601 1438.63 287.883V258.822C1438.63 249.378 1437.12 240.296 1434.08 231.578C1431.17 222.739 1426.37 216.018 1419.69 211.417C1413.14 206.695 1398.69 204.333 1376.34 204.333V194.889C1390.91 194.889 1403.12 191.862 1412.95 185.807C1422.91 179.632 1429.65 172.367 1433.17 164.012C1436.81 155.657 1438.63 146.999 1438.63 138.039C1438.63 131.258 1436.51 125.325 1432.26 120.239C1428.13 115.153 1422.73 111.279 1416.05 108.615C1409.49 105.83 1402.02 104.437 1393.65 104.437C1385.15 104.437 1377.25 105.83 1369.97 108.615C1362.8 111.4 1358.19 114.911 1356.12 119.149C1354.55 122.297 1353.76 125.385 1353.76 128.412C1353.76 129.502 1353.88 130.531 1354.12 131.5C1354.24 132.59 1354.3 133.619 1354.3 134.588C1354.3 137.615 1353.51 140.581 1351.94 143.488C1350.11 146.636 1346.77 148.21 1341.92 148.21C1340.58 148.21 1339.12 148.028 1337.55 147.665C1330.14 146.575 1326.44 142.64 1326.44 135.859C1326.44 133.922 1326.74 131.863 1327.35 129.684C1332.69 116.606 1341.74 106.859 1354.49 100.441C1367.36 94.0238 1380.41 90.815 1393.65 90.815C1406.76 90.815 1418.78 92.7523 1429.71 96.6271C1440.76 100.502 1449.56 106.132 1456.12 113.519C1462.68 120.784 1465.96 128.957 1465.96 138.039C1465.96 149.421 1462.98 160.379 1457.03 170.914C1451.08 181.327 1442.64 189.319 1431.71 194.889C1430.62 195.494 1429.53 196.039 1428.43 196.523C1430.74 197.371 1433.05 198.34 1435.36 199.429C1445.07 205.363 1452.6 213.778 1457.94 224.676C1463.28 235.574 1465.96 246.956 1465.96 258.822V287.883Z" fill="#EBE7DC"/>
<path d="M1647.63 287.883C1647.63 299.023 1644.35 309.376 1637.8 318.942C1631.24 328.507 1621.83 335.833 1609.56 340.919C1597.42 346.125 1584.73 348.729 1571.5 348.729C1558.38 348.729 1545.69 346.125 1533.43 340.919C1521.29 335.833 1511.94 328.507 1505.38 318.942C1498.82 309.376 1495.54 299.023 1495.54 287.883C1495.54 276.622 1498.82 266.208 1505.38 256.643C1511.94 247.077 1521.35 239.751 1533.61 234.666C1536.04 233.697 1538.47 232.789 1540.9 231.941V250.286C1536.04 253.797 1532.15 258.217 1529.24 263.545C1524.99 270.931 1522.86 279.044 1522.86 287.883C1522.86 296.601 1524.93 304.653 1529.06 312.04C1533.31 319.547 1539.32 325.238 1547.09 329.113C1554.98 333.109 1563.12 335.107 1571.5 335.107C1580 335.107 1588.13 333.109 1595.9 329.113C1603.8 325.238 1609.81 319.547 1613.94 312.04C1618.19 304.653 1620.31 296.601 1620.31 287.883V138.039C1620.31 131.258 1618.19 125.325 1613.94 120.239C1609.81 115.153 1604.4 111.279 1597.72 108.615C1591.17 105.83 1583.7 104.437 1575.32 104.437C1566.82 104.437 1558.93 105.83 1551.64 108.615C1544.48 111.4 1539.86 114.911 1537.8 119.149C1536.22 122.297 1535.43 125.385 1535.43 128.412C1535.43 129.502 1535.55 130.531 1535.8 131.5C1535.92 132.59 1535.98 133.619 1535.98 134.588C1535.98 137.615 1535.19 140.581 1533.61 143.488C1531.79 146.636 1528.45 148.21 1523.59 148.21C1522.26 148.21 1520.8 148.028 1519.22 147.665C1511.81 146.575 1508.11 142.64 1508.11 135.859C1508.11 133.922 1508.41 131.863 1509.02 129.684C1514.36 116.606 1523.41 106.859 1536.16 100.441C1549.03 94.0238 1562.09 90.815 1575.32 90.815C1588.44 90.815 1600.46 92.7523 1611.39 96.6271C1622.44 100.502 1631.24 106.132 1637.8 113.519C1644.35 120.784 1647.63 128.957 1647.63 138.039V287.883Z" fill="#EBE7DC"/>
<path d="M1867.56 121.692C1871.69 113.942 1876.79 107.525 1882.86 102.439C1892.09 94.6897 1901.68 90.815 1911.64 90.815C1921.71 90.815 1931.37 94.7503 1940.6 102.621C1949.95 110.37 1957.11 121.51 1962.09 136.041C1967.07 150.571 1969.56 166.373 1969.56 183.446C1969.56 200.519 1967.07 216.321 1962.09 230.851C1958.69 240.901 1954.26 249.317 1948.79 256.098H1924.2C1925.18 255.129 1926.15 253.979 1927.12 252.647C1931.98 246.108 1935.68 236.603 1938.23 224.131C1940.9 211.659 1942.24 198.097 1942.24 183.446C1942.24 168.673 1940.9 155.112 1938.23 142.761C1935.68 130.289 1931.91 120.784 1926.94 114.245C1922.08 107.707 1916.98 104.437 1911.64 104.437C1906.41 104.437 1901.31 107.707 1896.34 114.245C1891.48 120.784 1887.71 130.289 1885.04 142.761C1882.49 155.112 1881.22 168.673 1881.22 183.446H1853.9C1853.9 168.673 1852.56 155.112 1849.89 142.761C1847.34 130.289 1843.58 120.784 1838.6 114.245C1833.74 107.707 1828.64 104.437 1823.3 104.437C1818.08 104.437 1812.98 107.707 1808 114.245C1803.14 120.784 1799.38 130.289 1796.7 142.761C1794.15 155.112 1792.88 168.673 1792.88 183.446H1765.56C1765.56 168.673 1764.22 155.112 1761.55 142.761C1759 130.289 1755.24 120.784 1750.26 114.245C1745.4 107.707 1740.3 104.437 1734.96 104.437C1729.74 104.437 1724.64 107.707 1719.66 114.245C1714.8 120.784 1711.04 130.289 1708.37 142.761C1705.82 155.112 1704.54 168.673 1704.54 183.446C1704.54 202.457 1707.33 217.471 1712.92 228.49C1718.63 239.509 1728.46 249.862 1742.43 259.549C1756.51 269.357 1768.17 274.261 1777.4 274.261C1817.95 274.261 1856.99 279.044 1894.51 288.609C1925.36 296.601 1950.37 307.438 1969.56 321.121V350C1966.04 345.52 1961.91 341.161 1957.17 336.923C1939.44 321.061 1914 308.891 1880.85 300.415C1847.7 292.06 1813.22 287.883 1777.4 287.883C1742.67 287.883 1709.28 291.818 1677.22 299.689V284.614C1696.65 280.376 1716.5 277.47 1736.78 275.895C1734.23 274.442 1731.62 272.929 1728.95 271.355C1710.49 260.457 1697.25 248.469 1689.24 235.392C1681.23 222.194 1677.22 204.878 1677.22 183.446C1677.22 166.373 1679.71 150.571 1684.69 136.041C1689.67 121.51 1696.77 110.37 1706 102.621C1715.35 94.7503 1725 90.815 1734.96 90.815C1745.04 90.815 1754.75 94.6897 1764.1 102.439C1770.05 107.525 1775.09 113.942 1779.22 121.692C1783.35 113.942 1788.45 107.525 1794.52 102.439C1803.75 94.6897 1813.34 90.815 1823.3 90.815C1833.38 90.815 1843.09 94.6897 1852.44 102.439C1858.39 107.525 1863.43 113.942 1867.56 121.692Z" fill="#EBE7DC"/>
<path d="M2123.91 183.446C2123.91 168.673 2121.79 155.112 2117.54 142.761C2113.41 130.289 2107.4 120.784 2099.5 114.245C2091.73 107.707 2083.6 104.437 2075.1 104.437C2066.72 104.437 2058.58 107.707 2050.69 114.245C2042.92 120.784 2036.91 130.289 2032.66 142.761C2028.53 155.112 2026.47 168.673 2026.47 183.446C2026.47 196.039 2027.98 207.845 2031.02 218.864C2032.96 218.258 2034.97 217.956 2037.03 217.956C2040.55 217.956 2043.89 218.803 2047.05 220.498C2050.33 222.194 2052.82 224.676 2054.52 227.945C2056.22 231.093 2057.07 234.423 2057.07 237.935C2057.07 241.446 2056.22 244.837 2054.52 248.106C2052.82 251.254 2050.33 253.676 2047.05 255.371C2043.89 257.066 2040.55 257.914 2037.03 257.914C2033.51 257.914 2030.17 257.066 2027.01 255.371C2024.95 254.281 2023.19 252.889 2021.73 251.194C2017.36 246.956 2013.11 240.175 2008.98 230.851C2002.42 216.321 1999.14 200.519 1999.14 183.446C1999.14 166.373 2002.42 150.571 2008.98 136.041C2015.54 121.51 2024.89 110.37 2037.03 102.621C2049.29 94.7503 2061.98 90.815 2075.1 90.815C2088.33 90.815 2101.08 94.6897 2113.35 102.439C2123.3 108.857 2131.38 117.515 2137.57 128.412C2143.76 117.515 2151.9 108.857 2161.98 102.439C2174.12 94.6897 2186.75 90.815 2199.86 90.815C2213.1 90.815 2225.79 94.7503 2237.93 102.621C2250.2 110.37 2259.61 121.51 2266.16 136.041C2272.72 150.571 2276 166.373 2276 183.446C2276 200.519 2272.72 216.321 2266.16 230.851C2261.67 240.901 2255.84 249.317 2248.68 256.098H2219.72C2221.3 255.129 2222.88 253.979 2224.45 252.647C2232.23 246.108 2238.18 236.603 2242.3 224.131C2246.55 211.659 2248.68 198.097 2248.68 183.446C2248.68 168.673 2246.55 155.112 2242.3 142.761C2238.18 130.289 2232.16 120.784 2224.27 114.245C2216.5 107.707 2208.36 104.437 2199.86 104.437C2191.49 104.437 2183.35 107.707 2175.46 114.245C2167.69 120.784 2161.68 130.289 2157.43 142.761C2153.3 155.112 2151.23 168.673 2151.23 183.446H2123.91Z" fill="#EBE7DC"/>
</g>
</svg>
