<svg width="186" height="48" viewBox="0 0 186 48" fill="none" xmlns="http://www.w3.org/2000/svg">
<path d="M3.56006 30.1073C13.2626 19.7321 29.143 8.1433 41.7176 2.99316C49.172 -0.0595398 58.2981 -0.00730896 62.9761 5.6493C63.4368 6.20643 63.9003 5.9838 63.9251 5.12362C64.105 -1.11138 70.1888 -1.3165 73.3638 2.67884C78.6877 9.37832 83.333 17.9216 85.5988 27.8935C86.5797 32.2104 85.167 35.1647 82.6473 36.2166C80.6092 37.0673 77.8237 36.7176 75.1677 34.4946C74.1257 33.6225 72.4553 32.5596 72.3461 34.3833C71.9262 41.3795 66.3743 45.2004 58.4425 46.7631C48.5322 48.7159 24.1902 48.4163 8.13759 45.436C-0.94263 43.7531 -2.35718 36.4351 3.56006 30.1073Z" fill="#303033"/>
<path fill-rule="evenodd" clip-rule="evenodd" d="M10.0744 31.3886V39.7168C9.02604 38.6372 8.3811 37.1696 8.3811 35.5528C8.3811 33.9358 9.02604 32.4681 10.0744 31.3886Z" fill="#F7A709"/>
<path fill-rule="evenodd" clip-rule="evenodd" d="M11.7678 30.1628V40.9438C9.76183 39.9658 8.3811 37.9196 8.3811 35.5534C8.3811 33.1872 9.76183 31.1409 11.7678 30.1628Z" fill="#F7A709"/>
<path fill-rule="evenodd" clip-rule="evenodd" d="M10.0757 39.7173V31.3891C10.9638 30.4746 12.1414 29.8392 13.4624 29.6273V41.479C12.1414 41.2671 10.9638 40.6317 10.0757 39.7173Z" fill="#F6A40C"/>
<path fill-rule="evenodd" clip-rule="evenodd" d="M11.7686 40.9438V30.1628C12.5736 29.7702 13.4791 29.5494 14.4367 29.5494C14.6799 29.5494 14.9195 29.5641 15.1552 29.5917V41.5149C14.9195 41.5425 14.6799 41.5571 14.4367 41.5571C13.4791 41.5571 12.5736 41.3363 11.7686 40.9438Z" fill="#F6A10E"/>
<path fill-rule="evenodd" clip-rule="evenodd" d="M13.4615 41.4791V29.6274C13.779 29.5763 14.1045 29.5494 14.4364 29.5494C15.2937 29.5494 16.1092 29.7265 16.8482 30.0452V41.0613C16.1092 41.38 15.2937 41.5571 14.4364 41.5571C14.1045 41.5571 13.779 41.5302 13.4615 41.4791Z" fill="#F59D10"/>
<path fill-rule="evenodd" clip-rule="evenodd" d="M15.1545 41.5146V29.5914C16.4542 29.7439 17.6278 30.3043 18.5412 31.1401V39.9659C17.6278 40.8016 16.4542 41.3621 15.1545 41.5146ZM18.5412 21.4109V28.0186C17.925 27.0652 17.5676 25.9314 17.5676 24.7147C17.5676 23.4983 17.925 22.3644 18.5412 21.4109Z" fill="#F49A12"/>
<path fill-rule="evenodd" clip-rule="evenodd" d="M16.8491 41.0615V30.0454C18.469 30.7437 19.7205 32.1236 20.2358 33.8202V37.2869C19.7205 38.9833 18.469 40.3633 16.8491 41.0615ZM20.2358 19.6721V29.7586C18.6244 28.6518 17.5689 26.8059 17.5689 24.7152C17.5689 22.6246 18.6244 20.7788 20.2358 19.6721Z" fill="#F49614"/>
<path fill-rule="evenodd" clip-rule="evenodd" d="M18.541 39.9663V31.1404C19.7399 32.2376 20.491 33.8085 20.491 35.5535C20.491 37.2985 19.7399 38.8691 18.541 39.9663ZM18.541 28.0189V21.4113C19.3213 20.2041 20.5168 19.2863 21.9277 18.8554V30.5752C20.5168 30.1442 19.3213 29.2263 18.541 28.0189Z" fill="#F39315"/>
<path fill-rule="evenodd" clip-rule="evenodd" d="M20.2351 37.2863V33.8197C20.4017 34.3685 20.4917 34.9501 20.4917 35.553C20.4917 36.1556 20.4017 36.7374 20.2351 37.2863ZM20.2351 29.758V19.6715C21.2003 19.0086 22.3649 18.6113 23.6218 18.5856V30.844C22.3649 30.8183 21.2003 30.4209 20.2351 29.758ZM23.6218 36.2052V40.5903C23.3236 39.9193 23.1577 39.1779 23.1577 38.3976C23.1577 37.6176 23.3236 36.8759 23.6218 36.2052Z" fill="#F28F17"/>
<path fill-rule="evenodd" clip-rule="evenodd" d="M21.928 30.5749V18.8551C22.5042 18.6789 23.1164 18.584 23.7509 18.584C24.2912 18.584 24.8152 18.653 25.3147 18.7821V30.6477C24.8152 30.7768 24.2912 30.8458 23.7509 30.8458C23.1164 30.8458 22.5042 30.751 21.928 30.5749ZM25.3147 34.0726V42.7231C24.0033 41.7286 23.1573 40.1612 23.1573 38.3977C23.1573 36.6345 24.0033 35.0671 25.3147 34.0726Z" fill="#F28E17"/>
<path fill-rule="evenodd" clip-rule="evenodd" d="M23.621 40.5908V36.2056C24.2553 34.7783 25.4898 33.6721 27.0076 33.2021V43.5942C25.4898 43.124 24.2553 42.0181 23.621 40.5908ZM23.621 30.8444V18.5861C23.6641 18.5853 23.7072 18.5842 23.7506 18.5842C24.9459 18.5842 26.0618 18.9209 27.0076 19.5034V29.9269C26.0618 30.5093 24.9459 30.846 23.7506 30.846C23.7072 30.846 23.6641 30.8456 23.621 30.8444Z" fill="#F18A19"/>
<path fill-rule="evenodd" clip-rule="evenodd" d="M25.3145 42.7229V34.0723C26.2384 33.3715 27.3933 32.9547 28.6465 32.9547L28.7011 32.9554V43.8396L28.6465 43.8403C27.3933 43.8403 26.2384 43.4237 25.3145 42.7229ZM25.3145 30.6475V18.7818C26.6871 19.1367 27.8741 19.9473 28.7011 21.0409V28.3884C27.8741 29.4821 26.6871 30.2927 25.3145 30.6475Z" fill="#F18719"/>
<path fill-rule="evenodd" clip-rule="evenodd" d="M29.4349 33.0104C29.7655 33.0577 30.0864 33.1341 30.3952 33.2368V43.5585C30.0864 43.6611 29.7655 43.7375 29.4349 43.7847V33.0104ZM29.4349 27.1325V22.2968C29.7564 23.0387 29.9345 23.8558 29.9345 24.7145C29.9345 25.5732 29.7564 26.3907 29.4349 27.1325ZM29.4349 18.2312V13.6792C29.6785 13.1528 30.004 12.6715 30.3952 12.2511V19.6592C30.004 19.2388 29.6785 18.7575 29.4349 18.2312ZM27.0085 43.5937V33.2016C27.5261 33.0412 28.0765 32.9547 28.6473 32.9547C28.9147 32.9547 29.1777 32.9738 29.4349 33.0104V43.7847C29.1777 43.8215 28.9147 43.8403 28.6473 43.8403C28.0765 43.8403 27.5261 43.754 27.0085 43.5937ZM29.4349 13.6792V18.2312C29.1141 17.5382 28.9352 16.7674 28.9352 15.9551C28.9352 15.143 29.1141 14.3721 29.4349 13.6792ZM29.4349 22.2968V27.1325C28.9324 28.2921 28.0795 29.267 27.0085 29.9265V19.503C28.0795 20.1625 28.9324 21.1374 29.4349 22.2968Z" fill="#F0831A"/>
<path fill-rule="evenodd" clip-rule="evenodd" d="M28.7015 43.8398V32.9557C29.9834 32.9682 31.16 33.4163 32.0882 34.1576V42.6379C31.16 43.3795 29.9834 43.8275 28.7015 43.8398ZM28.7015 28.3887V21.0411C29.4756 22.0649 29.9341 23.3367 29.9341 24.7147C29.9341 26.0929 29.4756 27.3648 28.7015 28.3887ZM32.0882 11.0155V20.8953C30.2242 20.0192 28.9349 18.1365 28.9349 15.9553C28.9349 13.774 30.2242 11.8915 32.0882 11.0155ZM32.0882 26.9674V29.5032C31.9735 29.1 31.9121 28.6749 31.9121 28.2353C31.9121 27.7958 31.9735 27.3706 32.0882 26.9674Z" fill="#F0821B"/>
<path fill-rule="evenodd" clip-rule="evenodd" d="M30.3955 43.5586V33.2369C31.9551 33.756 33.2016 34.9506 33.7822 36.4701V40.3254C33.2016 41.8449 31.9551 43.0394 30.3955 43.5586ZM30.3955 19.6592V12.2512C31.2611 11.321 32.4484 10.69 33.7822 10.5309V21.3796C32.4484 21.2207 31.2611 20.5893 30.3955 19.6592ZM33.7822 24.5149V31.9555C32.6467 31.1049 31.9127 29.755 31.9127 28.2352C31.9127 26.7155 32.6467 25.3656 33.7822 24.5149Z" fill="#EF7D1C"/>
<path fill-rule="evenodd" clip-rule="evenodd" d="M32.088 42.6382V34.1578C33.3368 35.1557 34.136 36.6842 34.136 38.398C34.136 40.1121 33.3368 41.6406 32.088 42.6382ZM32.088 29.5035V26.9677C32.5435 25.3669 33.8401 24.1161 35.4747 23.7132V32.758C33.8401 32.3554 32.5435 31.1043 32.088 29.5035ZM32.088 20.8956V11.0158C32.8027 10.6799 33.6019 10.4916 34.4453 10.4916C34.7971 10.4916 35.1412 10.5247 35.4747 10.5872V21.324C35.1412 21.3866 34.7971 21.4196 34.4453 21.4196C33.6019 21.4196 32.8027 21.2314 32.088 20.8956Z" fill="#EF7B1D"/>
<path fill-rule="evenodd" clip-rule="evenodd" d="M33.782 40.3258V36.4705C34.011 37.0696 34.1367 37.7193 34.1367 38.398C34.1367 39.0768 34.011 39.7264 33.782 40.3258ZM33.782 31.9559V24.5153C34.5692 23.9255 35.5495 23.5757 36.6123 23.5757C36.8006 23.5757 36.9861 23.5868 37.1686 23.6084V32.8628C36.9861 32.8844 36.8006 32.8955 36.6123 32.8955C35.5495 32.8955 34.5692 32.5456 33.782 31.9559ZM33.782 21.38V10.5313C33.9996 10.5055 34.2212 10.4916 34.4459 10.4916C35.4362 10.4916 36.3654 10.7508 37.1686 11.2044V20.7069C36.3654 21.1603 35.4362 21.4196 34.4459 21.4196C34.2212 21.4196 33.9996 21.4059 33.782 21.38ZM37.1686 37.9315V40.4478C37.0762 40.0431 37.0271 39.6222 37.0271 39.1898C37.0271 38.7572 37.0762 38.3362 37.1686 37.9315Z" fill="#EE771D"/>
<path fill-rule="evenodd" clip-rule="evenodd" d="M35.475 32.7581V23.7133C35.8391 23.6238 36.2199 23.5758 36.612 23.5758C37.427 23.5758 38.1934 23.7813 38.8617 24.1433V32.3281C38.1934 32.69 37.427 32.8956 36.612 32.8956C36.2199 32.8956 35.8391 32.8479 35.475 32.7581ZM35.475 21.324V10.5873C36.8545 10.8458 38.0523 11.6139 38.8617 12.687V19.2244C38.0523 20.2975 36.8545 21.0657 35.475 21.324ZM38.8617 35.0286V43.3511C37.7334 42.3154 37.0268 40.8347 37.0268 39.1898C37.0268 37.545 37.7334 36.0641 38.8617 35.0286Z" fill="#EE751E"/>
<path fill-rule="evenodd" clip-rule="evenodd" d="M37.168 40.4475V37.9312C37.5807 36.1253 38.8626 34.647 40.5546 33.9507V44.4282C38.8626 43.7319 37.5807 42.2534 37.168 40.4475ZM37.168 32.8626V23.6081C38.5869 23.7738 39.812 24.5664 40.5546 25.6989V30.7719C39.812 31.9042 38.5869 32.6968 37.168 32.8626ZM37.168 20.7066V11.2041C38.833 12.1443 39.9558 13.9198 39.9558 15.9552C39.9558 17.9908 38.833 19.7664 37.168 20.7066Z" fill="#EE731E"/>
<path fill-rule="evenodd" clip-rule="evenodd" d="M38.8608 43.3508V35.0284C39.7668 34.1968 40.9447 33.6526 42.2475 33.5414V44.8379C40.9447 44.7267 39.7668 44.1825 38.8608 43.3508ZM38.8608 32.3279V24.1431C40.3207 24.9336 41.311 26.47 41.311 28.2354C41.311 30.001 40.3207 31.5372 38.8608 32.3279ZM38.8608 19.2242V12.6868C39.5483 13.5983 39.9554 14.7297 39.9554 15.9554C39.9554 17.1811 39.5483 18.3125 38.8608 19.2242ZM42.2475 7.35801V14.2191C41.462 13.2912 40.9888 12.0948 40.9888 10.7886C40.9888 9.4824 41.462 8.28602 42.2475 7.35801Z" fill="#ED701F"/>
<path fill-rule="evenodd" clip-rule="evenodd" d="M40.5544 44.4283V33.9508C41.229 33.6732 41.9687 33.5197 42.7445 33.5197C43.1549 33.5197 43.5552 33.5628 43.9411 33.6443V44.7346C43.5552 44.8161 43.1549 44.8594 42.7445 44.8594C41.9687 44.8594 41.229 44.7057 40.5544 44.4283ZM40.5544 30.772V25.6991C41.033 26.4288 41.3113 27.2998 41.3113 28.2354C41.3113 29.1711 41.033 30.042 40.5544 30.772ZM43.9411 6.02386V15.5533C42.1895 14.6718 40.989 12.8694 40.989 10.7886C40.989 8.70781 42.1895 6.90508 43.9411 6.02386ZM43.9411 20.7749V27.8413C43.322 26.8063 42.9661 25.5984 42.9661 24.3079C42.9661 23.0175 43.322 21.8095 43.9411 20.7749Z" fill="#ED6C20"/>
<path fill-rule="evenodd" clip-rule="evenodd" d="M42.2484 44.8379V33.5413C42.4122 33.5273 42.5777 33.5197 42.7451 33.5197C43.7995 33.5197 44.787 33.8029 45.635 34.2966V44.0826C44.787 44.5761 43.7995 44.8594 42.7451 44.8594C42.5777 44.8594 42.4122 44.8519 42.2484 44.8379ZM42.2484 14.2191V7.35798C43.0866 6.36779 44.2804 5.68375 45.635 5.499V16.0779C44.2804 15.8932 43.0866 15.2092 42.2484 14.2191ZM45.635 18.858V29.7579C44.0101 28.488 42.9667 26.5187 42.9667 24.3079C42.9667 22.0971 44.0101 20.128 45.635 18.858Z" fill="#EC6820"/>
<path fill-rule="evenodd" clip-rule="evenodd" d="M43.9414 44.7349V33.6446C45.3193 33.9356 46.5135 34.7182 47.3281 35.7989V42.5808C46.5135 43.6613 45.3193 44.444 43.9414 44.7349ZM43.9414 27.8416V20.7752C44.7168 19.4789 45.9058 18.4551 47.3281 17.8814V30.7353C45.9058 30.1617 44.7168 29.1376 43.9414 27.8416ZM43.9414 15.5536V6.02417C44.6724 5.65647 45.4992 5.44899 46.375 5.44899C46.7003 5.44899 47.0188 5.47745 47.3281 5.53241V16.0453C47.0188 16.1001 46.7003 16.1288 46.375 16.1288C45.4992 16.1288 44.6724 15.9213 43.9414 15.5536Z" fill="#EB6321"/>
<path fill-rule="evenodd" clip-rule="evenodd" d="M45.6344 44.0825V34.2965C47.3265 35.2811 48.4626 37.1034 48.4626 39.1895C48.4626 41.2755 47.3265 43.098 45.6344 44.0825ZM45.6344 29.7578V18.858C46.5926 18.1093 47.7531 17.6039 49.0211 17.435V31.181C47.7531 31.0121 46.5926 30.5066 45.6344 29.7578ZM45.6344 16.0779V5.49895C45.8764 5.46605 46.1235 5.44864 46.3747 5.44864C47.3366 5.44864 48.2395 5.69898 49.0211 6.13702V15.4398C48.2395 15.8781 47.3366 16.1284 46.3747 16.1284C46.1235 16.1284 45.8764 16.111 45.6344 16.0779Z" fill="#EB5F22"/>
<path fill-rule="evenodd" clip-rule="evenodd" d="M47.329 42.5806V35.7987C48.0418 36.7445 48.4638 37.9181 48.4638 39.1897C48.4638 40.4611 48.0418 41.6349 47.329 42.5806ZM47.329 30.7351V17.8812C48.1417 17.5535 49.0304 17.3725 49.962 17.3725C50.2167 17.3725 50.468 17.3865 50.7156 17.4128V31.2036C50.468 31.2299 50.2167 31.2436 49.962 31.2436C49.0304 31.2436 48.1417 31.0628 47.329 30.7351ZM47.329 16.0451V5.53218C48.7134 5.77732 49.9143 6.54711 50.7156 7.62654V13.9505C49.9143 15.03 48.7134 15.8 47.329 16.0451Z" fill="#EA5C22"/>
<path fill-rule="evenodd" clip-rule="evenodd" d="M49.022 31.181V17.4351C49.3293 17.394 49.6429 17.3724 49.9616 17.3724C50.8225 17.3724 51.6469 17.5269 52.4086 17.8092V30.8068C51.6469 31.0891 50.8225 31.2435 49.9616 31.2435C49.6429 31.2435 49.3293 31.2221 49.022 31.181ZM49.022 15.4398V6.13704C50.6571 7.05381 51.761 8.79309 51.761 10.7885C51.761 12.7838 50.6571 14.5233 49.022 15.4398ZM52.4086 33.9978V41.2729C51.5706 40.2915 51.0649 39.0221 51.0649 37.6353C51.0649 36.2488 51.5706 34.9794 52.4086 33.9978Z" fill="#EA5822"/>
<path fill-rule="evenodd" clip-rule="evenodd" d="M50.7148 31.2039V17.4131C51.9739 17.5468 53.1327 18.0118 54.1015 18.7184V29.8984C53.1327 30.6051 51.9739 31.07 50.7148 31.2039ZM50.7148 13.9508V7.62684C51.372 8.51217 51.7606 9.60542 51.7606 10.7889C51.7606 11.9724 51.372 13.0657 50.7148 13.9508ZM54.1015 11.1739V14.643C53.8924 14.1047 53.7773 13.5199 53.7773 12.9085C53.7773 12.297 53.8924 11.7123 54.1015 11.1739ZM54.1015 32.6491V42.6226C52.2958 41.6793 51.0645 39.8002 51.0645 37.6357C51.0645 35.4716 52.2958 33.5925 54.1015 32.6491Z" fill="#E95323"/>
<path fill-rule="evenodd" clip-rule="evenodd" d="M52.4078 41.2732V33.9981C53.2558 33.005 54.4443 32.307 55.7945 32.0814V43.1899C54.4443 42.9641 53.2558 42.2664 52.4078 41.2732ZM52.4078 30.8071V17.8095C53.8016 18.3256 54.9845 19.2701 55.7945 20.4811V28.1354C54.9845 29.3465 53.8016 30.2909 52.4078 30.8071ZM55.7945 8.99602V16.8206C54.5724 15.9439 53.777 14.5183 53.777 12.9083C53.777 11.2982 54.5724 9.87278 55.7945 8.99602Z" fill="#E84E23"/>
<path fill-rule="evenodd" clip-rule="evenodd" d="M54.1008 42.6221V32.6487C54.8907 32.2361 55.7902 32.0022 56.745 32.0022C56.9967 32.0022 57.2444 32.0186 57.4875 32.05V43.2206C57.2444 43.252 56.9967 43.2686 56.745 43.2686C55.7902 43.2686 54.8907 43.0345 54.1008 42.6221ZM54.1008 29.8979V18.718C55.8316 19.9804 56.9552 22.014 56.9552 24.3077C56.9552 26.6019 55.8316 28.6354 54.1008 29.8979ZM54.1008 14.6425V11.1734C54.6684 9.71316 55.9315 8.5955 57.4875 8.21941V17.5967C55.9315 17.2205 54.6684 16.1029 54.1008 14.6425Z" fill="#E84C24"/>
<path fill-rule="evenodd" clip-rule="evenodd" d="M55.7954 43.1896V32.0811C56.1046 32.0295 56.4221 32.0022 56.7462 32.0022C57.618 32.0022 58.4438 32.1971 59.1821 32.5452V42.7255C58.4438 43.0735 57.618 43.2686 56.7462 43.2686C56.4221 43.2686 56.1046 43.2412 55.7954 43.1896ZM55.7954 28.1351V20.4808C56.5288 21.5777 56.9564 22.8932 56.9564 24.3078C56.9564 25.7226 56.5288 27.0382 55.7954 28.1351ZM55.7954 16.8203V8.9957C56.5966 8.42086 57.5809 8.08191 58.6452 8.08191C58.8267 8.08191 59.0057 8.09222 59.1821 8.11142V17.7047C59.0057 17.7239 58.8267 17.7341 58.6452 17.7341C57.5809 17.7341 56.5966 17.3952 55.7954 16.8203Z" fill="#E84A24"/>
<path fill-rule="evenodd" clip-rule="evenodd" d="M57.4884 43.2207V32.0501C58.8162 32.2221 59.9996 32.8486 60.8751 33.7669V41.504C59.9996 42.4223 58.8162 43.0488 57.4884 43.2207ZM57.4884 17.5968V8.21956C57.8592 8.13012 58.2463 8.08205 58.6449 8.08205C59.4487 8.08205 60.2069 8.27538 60.8751 8.61751V17.1988C60.2069 17.5409 59.4487 17.7343 58.6449 17.7343C58.2463 17.7343 57.8592 17.6863 57.4884 17.5968ZM60.8751 19.7969V21.5626C60.5139 21.8074 60.2118 22.0366 59.9751 22.2395L59.7358 20.8718C60.0949 20.4963 60.4756 20.1385 60.8751 19.7969ZM60.8751 24.5574V30.6167C60.2004 29.7885 59.7962 28.7346 59.7962 27.5868C59.7962 26.4392 60.2004 25.3857 60.8751 24.5574Z" fill="#E74724"/>
<path fill-rule="evenodd" clip-rule="evenodd" d="M59.1813 42.7256V32.5452C61.1 33.4497 62.4264 35.3889 62.4264 37.6353C62.4264 39.882 61.1 41.8212 59.1813 42.7256ZM59.1813 17.7048V8.11146C60.5694 8.26237 61.7817 8.99203 62.568 10.052V15.7641C61.7817 16.8241 60.5694 17.5538 59.1813 17.7048ZM62.568 18.5228V20.5587C61.3965 21.1727 60.5169 21.7744 59.9746 22.2394L59.7353 20.8717C60.572 19.9969 61.5243 19.2154 62.568 18.5228ZM62.568 23.2297V31.9441C60.9286 31.1675 59.7957 29.5084 59.7957 27.5867C59.7957 25.6652 60.9286 24.0062 62.568 23.2297Z" fill="#E74524"/>
<path fill-rule="evenodd" clip-rule="evenodd" d="M60.8743 41.5039V33.7669C61.8361 34.7761 62.4261 36.1374 62.4261 37.6353C62.4261 39.1336 61.8361 40.4949 60.8743 41.5039ZM60.8743 30.6167V24.5573C61.6876 23.5586 62.8945 22.8882 64.2609 22.7774V32.3965C62.8945 32.2857 61.6876 31.6155 60.8743 30.6167ZM60.8743 21.5625V19.7968C61.8884 18.9298 63.0268 18.1706 64.2609 17.5166V19.7604C62.8447 20.3611 61.701 21.0027 60.8743 21.5625ZM60.8743 17.1987V8.61746C62.4404 9.41942 63.5114 11.0398 63.5114 12.9081C63.5114 14.7764 62.4404 16.3967 60.8743 17.1987Z" fill="#E74224"/>
<path fill-rule="evenodd" clip-rule="evenodd" d="M62.5688 31.9442V23.2298C63.2034 22.9294 63.9137 22.761 64.6638 22.761C65.1111 22.761 65.5441 22.821 65.9555 22.9331V32.2408C65.5441 32.3529 65.1111 32.4131 64.6638 32.4131C63.9137 32.4131 63.2034 32.2445 62.5688 31.9442ZM62.5688 20.5588V18.5229C63.6131 17.8298 64.7495 17.2266 65.9555 16.7104V19.1128C64.6512 19.5595 63.5147 20.0631 62.5688 20.5588ZM62.5688 15.7641V10.0521C63.162 10.8519 63.5127 11.8394 63.5127 12.9081C63.5127 13.9769 63.162 14.9644 62.5688 15.7641Z" fill="#E74224"/>
<path fill-rule="evenodd" clip-rule="evenodd" d="M64.2618 32.3965V22.7774C64.3944 22.7668 64.5282 22.761 64.6635 22.761C65.7886 22.761 66.8242 23.1396 67.6485 23.7752V31.3988C66.8242 32.0345 65.7886 32.4131 64.6635 32.4131C64.5282 32.4131 64.3944 32.4072 64.2618 32.3965ZM64.2618 19.7605V17.5166C65.3261 16.9526 66.4613 16.4669 67.6485 16.0565V18.5953C66.3939 18.9341 65.2605 19.3371 64.2618 19.7605Z" fill="#E64024"/>
<path fill-rule="evenodd" clip-rule="evenodd" d="M65.9548 32.2407V22.933C67.5862 23.3771 68.875 24.6419 69.3415 26.2515V28.9221C68.875 30.5319 67.5862 31.7966 65.9548 32.2407ZM65.9548 19.1127V16.7103C67.0339 16.2484 68.1677 15.8552 69.3415 15.5307V18.1957C68.1163 18.4447 66.9831 18.7607 65.9548 19.1127Z" fill="#E63E24"/>
<path fill-rule="evenodd" clip-rule="evenodd" d="M67.6478 31.3989V23.7753C68.7931 24.6583 69.5301 26.0373 69.5301 27.5869C69.5301 29.1368 68.7931 30.5159 67.6478 31.3989ZM67.6478 18.5954V16.0567C68.7378 15.6798 69.8714 15.3667 71.0345 15.1154V17.9057C69.8277 18.0741 68.6958 18.3124 67.6478 18.5954Z" fill="#E63E24"/>
<path fill-rule="evenodd" clip-rule="evenodd" d="M69.3424 28.9224V26.2518C69.4654 26.6759 69.5313 27.1238 69.5313 27.587C69.5313 28.0503 69.4654 28.4982 69.3424 28.9224ZM69.3424 18.196V15.531C70.4412 15.2271 71.5747 14.9832 72.7291 14.7964V17.7222C71.5353 17.8158 70.4041 17.9803 69.3424 18.196Z" fill="#E63E24"/>
<path fill-rule="evenodd" clip-rule="evenodd" d="M71.0353 17.9053V15.115C72.1418 14.8761 73.2748 14.6928 74.4219 14.5647V17.6402C73.2383 17.6621 72.1069 17.7556 71.0353 17.9053Z" fill="#E63C24"/>
<path fill-rule="evenodd" clip-rule="evenodd" d="M72.7283 17.7222V14.7964C73.8415 14.6164 74.9744 14.4896 76.1149 14.4152V17.6597C74.9386 17.6118 73.808 17.6375 72.7283 17.7222Z" fill="#E63C24"/>
<path fill-rule="evenodd" clip-rule="evenodd" d="M74.4213 17.6404V14.5649C75.5407 14.4395 76.6733 14.3662 77.8079 14.3433V17.7778C76.6376 17.6617 75.5073 17.6206 74.4213 17.6404Z" fill="#E63925"/>
<path fill-rule="evenodd" clip-rule="evenodd" d="M76.1143 17.6599V14.4154C77.2395 14.3422 78.3721 14.3203 79.5009 14.3473V17.9951C78.3356 17.8111 77.2056 17.7042 76.1143 17.6599Z" fill="#E63925"/>
<path fill-rule="evenodd" clip-rule="evenodd" d="M77.8077 17.7778V14.3433C78.9387 14.3206 80.0715 14.3486 81.1944 14.4247V18.313C80.0336 18.0619 78.9031 17.8867 77.8077 17.7778Z" fill="#E43924"/>
<path fill-rule="evenodd" clip-rule="evenodd" d="M79.5017 17.9947V14.3469C80.6388 14.3741 81.7713 14.4517 82.8884 14.5777V18.7295C81.7311 18.4106 80.6006 18.1681 79.5017 17.9947Z" fill="#E23924"/>
<path fill-rule="evenodd" clip-rule="evenodd" d="M81.1947 18.3128V14.4245C82.3378 14.5021 83.4706 14.6305 84.5814 14.8077V19.2456C83.427 18.8591 82.2972 18.5516 81.1947 18.3128Z" fill="#E03624"/>
<path fill-rule="evenodd" clip-rule="evenodd" d="M82.8888 18.7299V14.5781C84.0388 14.7078 85.1717 14.889 86.2754 15.1201V19.8652C85.1239 19.4102 83.9938 19.0341 82.8888 18.7299Z" fill="#DD3625"/>
<path fill-rule="evenodd" clip-rule="evenodd" d="M84.5807 19.2457V14.8078C85.7385 14.9926 86.8717 15.2306 87.9673 15.52V20.5854C86.8182 20.0612 85.6881 19.6169 84.5807 19.2457Z" fill="#D93424"/>
<path fill-rule="evenodd" clip-rule="evenodd" d="M86.2753 19.865V15.1199C87.4421 15.3644 88.5762 15.6642 89.6619 16.0186V21.4111C88.5147 20.8166 87.385 20.3037 86.2753 19.865Z" fill="#D53424"/>
<path fill-rule="evenodd" clip-rule="evenodd" d="M87.9683 20.5856V15.5202C89.1471 15.8319 90.2813 16.2038 91.3549 16.6328V19.9902L90.2361 21.7139C89.4724 21.3012 88.7164 20.9271 87.9683 20.5856Z" fill="#D13324"/>
<path fill-rule="evenodd" clip-rule="evenodd" d="M89.6611 21.4111V16.0186C90.8549 16.4084 91.9905 16.8635 93.0475 17.3818L90.2356 21.7139C90.0435 21.6101 89.8523 21.5103 89.6611 21.4111Z" fill="#CD3324"/>
<path fill-rule="evenodd" clip-rule="evenodd" d="M91.3541 19.9902V16.6329C91.9372 16.8659 92.5029 17.115 93.0471 17.3819L91.3541 19.9902Z" fill="#C53024"/>
<path d="M172.4 37.7302V34.8695H172.815C175.057 34.8695 176.133 33.5614 176.151 32.265C176.17 30.9913 175.17 29.7288 173.257 29.7288H172.4V26.7589H172.893C176.322 26.7589 179.363 28.5191 179.361 32.2187C179.359 34.4814 178.014 36.2269 175.958 37.1376L180.919 44.8123H177.075L172.633 37.7302H172.4ZM172.4 15.0766V9.57805L175.14 5.06862H178.932L172.4 15.0766ZM182.883 44.8123H186V26.7589H182.883V44.8123ZM172.4 9.57805V15.0766L172.326 15.1898V23.1224H169.053V15.1898L162.936 5.92756V5.06862H166.134L170.716 12.35L172.4 9.57805ZM172.4 26.7589V29.7288H168.648V34.8695H172.4V37.7302H168.648V44.8123H165.376V26.7589H172.4ZM162.936 27.9301V26.7589H163.365L162.936 27.9301ZM162.936 23.1224H163.503L162.936 22.2447V23.1224ZM162.936 5.06862V5.92756L162.368 5.06862H162.936ZM162.936 22.2447L158.542 15.4477C160.598 14.5368 161.943 12.7913 161.945 10.5287C161.947 6.82883 158.906 5.06862 155.477 5.06862H154.984V8.03848H155.841C157.754 8.03848 158.754 9.30106 158.735 10.5747C158.717 11.8713 157.642 13.1793 155.399 13.1793H154.984V16.04H155.217L159.659 23.1224H162.936V22.2447ZM162.936 26.7589V27.9301L156.741 44.8123H154.984V39.8631L159.586 26.7589H162.936ZM118.938 23.1221H123.482L130.107 5.06862H126.327L121.242 19.5498H121.15L116.147 5.06862H112.338L118.938 23.1221ZM154.984 5.06862V8.03848H151.233V13.1793H154.984V16.04H151.233V23.1224H147.96V5.06862H154.984ZM154.984 39.8631V44.8123H152.197L145.597 26.7589H149.405L154.409 41.2398H154.501L154.984 39.8631ZM101.828 44.9549V42.0745C102.136 42.0701 102.451 42.0382 102.705 41.9738L101.828 40.7539V39.0159H104.083L105.381 40.82C106.737 39.6741 107.406 37.8338 107.406 35.7986C107.406 32.4219 105.425 29.4612 101.828 29.4393V26.643C107.53 26.6813 110.649 31.1913 110.653 35.7986C110.655 38.6683 109.412 41.5001 107.12 43.2374L109.625 46.7188H106.119L104.557 44.5473C103.725 44.8041 102.815 44.9482 101.828 44.9549ZM101.828 23.1224V20.1525H110.853V23.1224H101.828ZM101.828 15.4385V12.5778H109.599V15.4385H101.828ZM101.828 8.03848V5.06862H110.853V8.03848H101.828ZM117.758 44.8123H122.302L128.926 26.7589H125.146L120.062 41.2398H119.97L114.966 26.7589H111.158L117.758 44.8123ZM140.274 23.2375C141.786 23.2631 143.421 23.0779 144.871 22.6449L143.988 19.812C142.805 20.1485 141.557 20.3363 140.326 20.3271C136.802 20.3001 134.395 18.3671 133.967 15.1547H142.522L143.012 12.3799H134.086C134.737 9.56086 137.048 7.88694 140.326 7.86211C141.556 7.85287 142.921 8.04062 144.104 8.3772L144.871 5.54448C143.411 5.08286 141.802 4.93894 140.274 4.9519C134.723 4.99925 130.626 8.51886 130.626 14.0948C130.626 19.6697 134.715 23.2195 140.274 23.2375ZM139.314 44.9276C140.826 44.9535 142.461 44.7682 143.911 44.3349L143.028 41.5021C141.845 41.8384 140.596 42.0264 139.366 42.0173C135.842 41.9902 133.435 40.0575 133.007 36.8449H141.562L142.052 34.0701H133.126C133.777 31.2513 136.089 29.5769 139.366 29.5523C140.596 29.5429 141.96 29.7309 143.144 30.0674L143.911 27.2345C142.451 26.7729 140.842 26.6292 139.314 26.6421C133.763 26.6894 129.666 30.209 129.666 35.7848C129.666 41.3601 133.755 44.9098 139.314 44.9276ZM101.828 5.06862V8.03848H101.288V12.5778H101.828V15.4385H101.288V20.1525H101.828V23.1224H98.015V5.06862H101.828ZM101.828 26.643V29.4393L101.787 29.4389C98.1649 29.4389 96.249 32.4097 96.249 35.7988C96.249 39.188 97.9582 42.0749 101.755 42.0749L101.828 42.0745V44.9549L101.755 44.9554C96.0638 44.9554 93.0024 40.4258 93.0024 35.7987C93.0024 31.1717 96.0056 26.6422 101.755 26.6422L101.828 26.643ZM101.828 39.0159H100.577L101.828 40.7539V39.0159Z" fill="#303033"/>
</svg>
